<svg width="390" height="844" viewBox="0 0 390 844" fill="none" xmlns="http://www.w3.org/2000/svg">
<rect width="390" height="844" fill="white"/>
<path d="M0 0H390V72C390 76.4183 386.418 80 382 80H8C3.58172 80 0 76.4183 0 72V0Z" fill="white"/>
<path d="M20 248C20 245.791 21.7909 244 24 244H367C369.209 244 371 245.791 371 248V290C371 292.209 369.209 294 367 294H24C21.7909 294 20 292.209 20 290V248Z" fill="#F4F0E9"/>
<path d="M40.928 276H33.746V263.148H40.928V264.57H35.366V268.584H40.604V269.988H35.366V274.578H40.928V276ZM42.722 271.878V270.474H47.078V271.878H42.722ZM59.9167 266.172C61.0087 266.172 61.8247 266.454 62.3647 267.018C62.9047 267.57 63.1747 268.47 63.1747 269.718V276H61.6087V269.79C61.6087 269.034 61.4467 268.464 61.1227 268.08C60.8107 267.696 60.3187 267.504 59.6467 267.504C58.7107 267.504 58.0387 267.774 57.6307 268.314C57.2347 268.854 57.0367 269.64 57.0367 270.672V276H55.4707V269.79C55.4707 269.286 55.3987 268.866 55.2547 268.53C55.1107 268.182 54.8947 267.924 54.6067 267.756C54.3187 267.588 53.9467 267.504 53.4907 267.504C52.8427 267.504 52.3327 267.642 51.9607 267.918C51.5887 268.182 51.3187 268.572 51.1507 269.088C50.9947 269.604 50.9167 270.24 50.9167 270.996V276H49.3327V266.352H50.6107L50.8447 267.666H50.9347C51.1387 267.33 51.3847 267.054 51.6727 266.838C51.9727 266.61 52.3027 266.442 52.6627 266.334C53.0227 266.226 53.3947 266.172 53.7787 266.172C54.5227 266.172 55.1407 266.304 55.6327 266.568C56.1367 266.832 56.5027 267.24 56.7307 267.792H56.8207C57.1447 267.24 57.5827 266.832 58.1347 266.568C58.6987 266.304 59.2927 266.172 59.9167 266.172ZM69.809 266.19C70.985 266.19 71.855 266.448 72.419 266.964C72.983 267.48 73.265 268.302 73.265 269.43V276H72.113L71.807 274.632H71.735C71.459 274.98 71.171 275.274 70.871 275.514C70.583 275.742 70.247 275.91 69.863 276.018C69.491 276.126 69.035 276.18 68.495 276.18C67.919 276.18 67.397 276.078 66.929 275.874C66.473 275.67 66.113 275.358 65.849 274.938C65.585 274.506 65.453 273.966 65.453 273.318C65.453 272.358 65.831 271.62 66.587 271.104C67.343 270.576 68.507 270.288 70.079 270.24L71.717 270.186V269.61C71.717 268.806 71.543 268.248 71.195 267.936C70.847 267.624 70.355 267.468 69.719 267.468C69.215 267.468 68.735 267.546 68.279 267.702C67.823 267.846 67.397 268.014 67.001 268.206L66.515 267.018C66.935 266.79 67.433 266.598 68.009 266.442C68.585 266.274 69.185 266.19 69.809 266.19ZM70.277 271.338C69.077 271.386 68.243 271.578 67.775 271.914C67.319 272.25 67.091 272.724 67.091 273.336C67.091 273.876 67.253 274.272 67.577 274.524C67.913 274.776 68.339 274.902 68.855 274.902C69.671 274.902 70.349 274.68 70.889 274.236C71.429 273.78 71.699 273.084 71.699 272.148V271.284L70.277 271.338ZM77.8288 266.352V276H76.2448V266.352H77.8288ZM77.0548 262.734C77.2948 262.734 77.5048 262.818 77.6848 262.986C77.8768 263.142 77.9728 263.394 77.9728 263.742C77.9728 264.078 77.8768 264.33 77.6848 264.498C77.5048 264.666 77.2948 264.75 77.0548 264.75C76.7908 264.75 76.5688 264.666 76.3888 264.498C76.2088 264.33 76.1188 264.078 76.1188 263.742C76.1188 263.394 76.2088 263.142 76.3888 262.986C76.5688 262.818 76.7908 262.734 77.0548 262.734ZM82.4695 276H80.8855V262.32H82.4695V276Z" fill="#C6C1B9"/>
<path d="M20 306C20 303.791 21.7909 302 24 302H367C369.209 302 371 303.791 371 306V348C371 350.209 369.209 352 367 352H24C21.7909 352 20 350.209 20 348V306Z" fill="#F4F0E9"/>
<path d="M33.746 334V321.148H43.394V334H41.792V322.57H35.366V334H33.746ZM50.35 324.19C51.526 324.19 52.396 324.448 52.96 324.964C53.524 325.48 53.806 326.302 53.806 327.43V334H52.654L52.348 332.632H52.276C52 332.98 51.712 333.274 51.412 333.514C51.124 333.742 50.788 333.91 50.404 334.018C50.032 334.126 49.576 334.18 49.036 334.18C48.46 334.18 47.938 334.078 47.47 333.874C47.014 333.67 46.654 333.358 46.39 332.938C46.126 332.506 45.994 331.966 45.994 331.318C45.994 330.358 46.372 329.62 47.128 329.104C47.884 328.576 49.048 328.288 50.62 328.24L52.258 328.186V327.61C52.258 326.806 52.084 326.248 51.736 325.936C51.388 325.624 50.896 325.468 50.26 325.468C49.756 325.468 49.276 325.546 48.82 325.702C48.364 325.846 47.938 326.014 47.542 326.206L47.056 325.018C47.476 324.79 47.974 324.598 48.55 324.442C49.126 324.274 49.726 324.19 50.35 324.19ZM50.818 329.338C49.618 329.386 48.784 329.578 48.316 329.914C47.86 330.25 47.632 330.724 47.632 331.336C47.632 331.876 47.794 332.272 48.118 332.524C48.454 332.776 48.88 332.902 49.396 332.902C50.212 332.902 50.89 332.68 51.43 332.236C51.97 331.78 52.24 331.084 52.24 330.148V329.284L50.818 329.338ZM61.3759 324.172C62.5639 324.172 63.5179 324.586 64.2379 325.414C64.9699 326.242 65.3359 327.49 65.3359 329.158C65.3359 330.25 65.1679 331.174 64.8319 331.93C64.5079 332.674 64.0459 333.238 63.4459 333.622C62.8579 333.994 62.1619 334.18 61.3579 334.18C60.8659 334.18 60.4279 334.114 60.0439 333.982C59.6599 333.85 59.3299 333.682 59.0539 333.478C58.7899 333.262 58.5619 333.028 58.3699 332.776H58.2619C58.2859 332.98 58.3099 333.238 58.3339 333.55C58.3579 333.862 58.3699 334.132 58.3699 334.36V338.32H56.7859V324.352H58.0819L58.2979 325.666H58.3699C58.5619 325.39 58.7899 325.138 59.0539 324.91C59.3299 324.682 59.6539 324.502 60.0259 324.37C60.4099 324.238 60.8599 324.172 61.3759 324.172ZM61.0879 325.504C60.4399 325.504 59.9179 325.63 59.5219 325.882C59.1259 326.122 58.8379 326.488 58.6579 326.98C58.4779 327.472 58.3819 328.096 58.3699 328.852V329.158C58.3699 329.95 58.4539 330.622 58.6219 331.174C58.7899 331.726 59.0719 332.146 59.4679 332.434C59.8759 332.722 60.4279 332.866 61.1239 332.866C61.7119 332.866 62.1919 332.704 62.5639 332.38C62.9479 332.056 63.2299 331.618 63.4099 331.066C63.6019 330.502 63.6979 329.86 63.6979 329.14C63.6979 328.036 63.4819 327.154 63.0499 326.494C62.6299 325.834 61.9759 325.504 61.0879 325.504ZM76.2481 329.158C76.2481 329.962 76.1401 330.676 75.9241 331.3C75.7201 331.912 75.4201 332.434 75.0241 332.866C74.6401 333.298 74.1661 333.628 73.6021 333.856C73.0501 334.072 72.4321 334.18 71.7481 334.18C71.1121 334.18 70.5241 334.072 69.9841 333.856C69.4441 333.628 68.9761 333.298 68.5801 332.866C68.1841 332.434 67.8721 331.912 67.6441 331.3C67.4281 330.676 67.3201 329.962 67.3201 329.158C67.3201 328.09 67.5001 327.19 67.8601 326.458C68.2201 325.714 68.7361 325.15 69.4081 324.766C70.0801 324.37 70.8781 324.172 71.8021 324.172C72.6781 324.172 73.4461 324.37 74.1061 324.766C74.7781 325.15 75.3001 325.714 75.6721 326.458C76.0561 327.19 76.2481 328.09 76.2481 329.158ZM68.9581 329.158C68.9581 329.914 69.0541 330.574 69.2461 331.138C69.4501 331.69 69.7621 332.116 70.1821 332.416C70.6021 332.716 71.1361 332.866 71.7841 332.866C72.4321 332.866 72.9661 332.716 73.3861 332.416C73.8061 332.116 74.1121 331.69 74.3041 331.138C74.5081 330.574 74.6101 329.914 74.6101 329.158C74.6101 328.39 74.5081 327.736 74.3041 327.196C74.1001 326.656 73.7881 326.242 73.3681 325.954C72.9601 325.654 72.4261 325.504 71.7661 325.504C70.7821 325.504 70.0681 325.828 69.6241 326.476C69.1801 327.124 68.9581 328.018 68.9581 329.158ZM86.1025 334H84.5005V325.666H81.6565C81.5365 327.19 81.3865 328.492 81.2065 329.572C81.0265 330.64 80.7985 331.51 80.5225 332.182C80.2465 332.854 79.9165 333.346 79.5325 333.658C79.1485 333.97 78.6985 334.126 78.1825 334.126C78.0265 334.126 77.8705 334.114 77.7145 334.09C77.5705 334.078 77.4505 334.048 77.3545 334V332.812C77.4265 332.836 77.5045 332.854 77.5885 332.866C77.6725 332.878 77.7565 332.884 77.8405 332.884C78.1045 332.884 78.3445 332.776 78.5605 332.56C78.7765 332.344 78.9685 332.014 79.1365 331.57C79.3165 331.126 79.4785 330.568 79.6225 329.896C79.7665 329.212 79.8925 328.408 80.0005 327.484C80.1085 326.56 80.2045 325.516 80.2885 324.352H86.1025V334ZM93.6108 328.312C94.4508 328.312 95.1468 328.414 95.6988 328.618C96.2508 328.822 96.6648 329.128 96.9408 329.536C97.2288 329.932 97.3728 330.436 97.3728 331.048C97.3728 331.648 97.2348 332.17 96.9588 332.614C96.6948 333.058 96.2808 333.4 95.7168 333.64C95.1528 333.88 94.4268 334 93.5388 334H89.1648V324.352H90.7488V328.312H93.6108ZM95.7888 331.138C95.7888 330.55 95.5788 330.154 95.1588 329.95C94.7508 329.734 94.1748 329.626 93.4308 329.626H90.7488V332.722H93.4668C94.1388 332.722 94.6908 332.602 95.1228 332.362C95.5668 332.122 95.7888 331.714 95.7888 331.138Z" fill="#C6C1B9"/>
<path d="M20 376C20 373.791 21.7909 372 24 372H367C369.209 372 371 373.791 371 376V418C371 420.209 369.209 422 367 422H24C21.7909 422 20 420.209 20 418V376Z" fill="#E48100"/>
<path d="M173.128 400.346C172.744 401.198 172.354 401.912 171.958 402.488C171.574 403.052 171.118 403.478 170.59 403.766C170.062 404.042 169.39 404.18 168.574 404.18C168.238 404.18 167.92 404.156 167.62 404.108C167.332 404.06 167.068 403.994 166.828 403.91V402.308C167.068 402.416 167.326 402.506 167.602 402.578C167.878 402.638 168.166 402.668 168.466 402.668C168.91 402.668 169.288 402.608 169.6 402.488C169.924 402.356 170.206 402.146 170.446 401.858C170.698 401.57 170.932 401.186 171.148 400.706L166.198 391.148H167.98L171.562 398.222C171.61 398.306 171.658 398.408 171.706 398.528C171.754 398.636 171.802 398.75 171.85 398.87C171.91 398.99 171.958 399.104 171.994 399.212H172.066C172.102 399.128 172.138 399.032 172.174 398.924C172.222 398.804 172.264 398.69 172.3 398.582C172.348 398.462 172.39 398.36 172.426 398.276L175.522 391.148H177.232L173.128 400.346ZM186.52 396.782C186.52 397.382 186.34 397.85 185.98 398.186C185.62 398.522 185.158 398.75 184.594 398.87V398.942C185.194 399.026 185.716 399.242 186.16 399.59C186.604 399.926 186.826 400.454 186.826 401.174C186.826 401.582 186.748 401.96 186.592 402.308C186.448 402.656 186.22 402.956 185.908 403.208C185.596 403.46 185.194 403.658 184.702 403.802C184.21 403.934 183.616 404 182.92 404H178.762V394.352H182.902C183.586 394.352 184.198 394.43 184.738 394.586C185.29 394.73 185.722 394.982 186.034 395.342C186.358 395.69 186.52 396.17 186.52 396.782ZM185.188 401.174C185.188 400.622 184.978 400.226 184.558 399.986C184.138 399.746 183.52 399.626 182.704 399.626H180.346V402.722H182.74C183.532 402.722 184.138 402.608 184.558 402.38C184.978 402.14 185.188 401.738 185.188 401.174ZM184.918 396.98C184.918 396.524 184.75 396.194 184.414 395.99C184.09 395.774 183.556 395.666 182.812 395.666H180.346V398.312H182.524C183.304 398.312 183.898 398.204 184.306 397.988C184.714 397.772 184.918 397.436 184.918 396.98ZM190.718 394.352V404H189.134V394.352H190.718ZM189.944 390.734C190.184 390.734 190.394 390.818 190.574 390.986C190.766 391.142 190.862 391.394 190.862 391.742C190.862 392.078 190.766 392.33 190.574 392.498C190.394 392.666 190.184 392.75 189.944 392.75C189.68 392.75 189.458 392.666 189.278 392.498C189.098 392.33 189.008 392.078 189.008 391.742C189.008 391.394 189.098 391.142 189.278 390.986C189.458 390.818 189.68 390.734 189.944 390.734ZM201.586 390.356C201.538 390.956 201.388 391.46 201.136 391.868C200.896 392.276 200.536 392.582 200.056 392.786C199.576 392.99 198.952 393.092 198.184 393.092C197.404 393.092 196.774 392.99 196.294 392.786C195.826 392.582 195.484 392.282 195.268 391.886C195.052 391.478 194.92 390.968 194.872 390.356H196.348C196.408 391.004 196.576 391.442 196.852 391.67C197.14 391.886 197.596 391.994 198.22 391.994C198.772 391.994 199.204 391.88 199.516 391.652C199.84 391.412 200.032 390.98 200.092 390.356H201.586ZM195.268 400.238C195.268 400.346 195.262 400.502 195.25 400.706C195.25 400.898 195.244 401.108 195.232 401.336C195.22 401.552 195.208 401.762 195.196 401.966C195.184 402.158 195.172 402.314 195.16 402.434L200.326 394.352H202.27V404H200.794V398.312C200.794 398.12 200.794 397.868 200.794 397.556C200.806 397.244 200.818 396.938 200.83 396.638C200.842 396.326 200.854 396.092 200.866 395.936L195.736 404H193.774V394.352H195.268V400.238ZM212.001 395.684H208.851V404H207.285V395.684H204.171V394.352H212.001V395.684ZM215.395 400.238C215.395 400.346 215.389 400.502 215.377 400.706C215.377 400.898 215.371 401.108 215.359 401.336C215.347 401.552 215.335 401.762 215.323 401.966C215.311 402.158 215.299 402.314 215.287 402.434L220.453 394.352H222.397V404H220.921V398.312C220.921 398.12 220.921 397.868 220.921 397.556C220.933 397.244 220.945 396.938 220.957 396.638C220.969 396.326 220.981 396.092 220.993 395.936L215.863 404H213.901V394.352H215.395V400.238Z" fill="white"/>
<path d="M20 434C20 431.791 21.7909 430 24 430H367C369.209 430 371 431.791 371 434V476C371 478.209 369.209 480 367 480H24C21.7909 480 20 478.209 20 476V434Z" fill="#E48100"/>
<path d="M137.257 452.552H136.25V452.5H125V457.5H132.064C131.034 460.411 128.264 462.5 125 462.5C120.858 462.5 117.5 459.142 117.5 455C117.5 450.858 120.858 447.5 125 447.5C126.912 447.5 128.651 448.221 129.976 449.399L133.511 445.864C131.279 443.783 128.293 442.5 125 442.5C118.097 442.5 112.5 448.097 112.5 455C112.5 461.903 118.097 467.5 125 467.5C131.903 467.5 137.5 461.903 137.5 455C137.5 454.162 137.414 453.344 137.257 452.552Z" fill="white"/>
<path d="M113.941 449.182L118.048 452.194C119.16 449.443 121.851 447.5 125 447.5C126.912 447.5 128.651 448.221 129.976 449.399L133.511 445.864C131.279 443.783 128.293 442.5 125 442.5C120.199 442.5 116.035 445.211 113.941 449.182Z" fill="white"/>
<path d="M125 467.5C128.229 467.5 131.163 466.264 133.381 464.255L129.512 460.981C128.215 461.968 126.63 462.501 125 462.5C121.749 462.5 118.988 460.427 117.948 457.534L113.872 460.674C115.941 464.722 120.142 467.5 125 467.5Z" fill="white"/>
<path d="M137.257 452.552H136.25V452.5H125V457.5H132.064C131.571 458.885 130.683 460.096 129.51 460.982L129.512 460.981L133.381 464.254C133.107 464.503 137.5 461.25 137.5 455C137.5 454.162 137.414 453.344 137.257 452.552Z" fill="white"/>
<path d="M151.128 457.846C150.744 458.698 150.354 459.412 149.958 459.988C149.574 460.552 149.118 460.978 148.59 461.266C148.062 461.542 147.39 461.68 146.574 461.68C146.238 461.68 145.92 461.656 145.62 461.608C145.332 461.56 145.068 461.494 144.828 461.41V459.808C145.068 459.916 145.326 460.006 145.602 460.078C145.878 460.138 146.166 460.168 146.466 460.168C146.91 460.168 147.288 460.108 147.6 459.988C147.924 459.856 148.206 459.646 148.446 459.358C148.698 459.07 148.932 458.686 149.148 458.206L144.198 448.648H145.98L149.562 455.722C149.61 455.806 149.658 455.908 149.706 456.028C149.754 456.136 149.802 456.25 149.85 456.37C149.91 456.49 149.958 456.604 149.994 456.712H150.066C150.102 456.628 150.138 456.532 150.174 456.424C150.222 456.304 150.264 456.19 150.3 456.082C150.348 455.962 150.39 455.86 150.426 455.776L153.522 448.648H155.232L151.128 457.846ZM164.52 454.282C164.52 454.882 164.34 455.35 163.98 455.686C163.62 456.022 163.158 456.25 162.594 456.37V456.442C163.194 456.526 163.716 456.742 164.16 457.09C164.604 457.426 164.826 457.954 164.826 458.674C164.826 459.082 164.748 459.46 164.592 459.808C164.448 460.156 164.22 460.456 163.908 460.708C163.596 460.96 163.194 461.158 162.702 461.302C162.21 461.434 161.616 461.5 160.92 461.5H156.762V451.852H160.902C161.586 451.852 162.198 451.93 162.738 452.086C163.29 452.23 163.722 452.482 164.034 452.842C164.358 453.19 164.52 453.67 164.52 454.282ZM163.188 458.674C163.188 458.122 162.978 457.726 162.558 457.486C162.138 457.246 161.52 457.126 160.704 457.126H158.346V460.222H160.74C161.532 460.222 162.138 460.108 162.558 459.88C162.978 459.64 163.188 459.238 163.188 458.674ZM162.918 454.48C162.918 454.024 162.75 453.694 162.414 453.49C162.09 453.274 161.556 453.166 160.812 453.166H158.346V455.812H160.524C161.304 455.812 161.898 455.704 162.306 455.488C162.714 455.272 162.918 454.936 162.918 454.48ZM168.718 451.852V461.5H167.134V451.852H168.718ZM167.944 448.234C168.184 448.234 168.394 448.318 168.574 448.486C168.766 448.642 168.862 448.894 168.862 449.242C168.862 449.578 168.766 449.83 168.574 449.998C168.394 450.166 168.184 450.25 167.944 450.25C167.68 450.25 167.458 450.166 167.278 449.998C167.098 449.83 167.008 449.578 167.008 449.242C167.008 448.894 167.098 448.642 167.278 448.486C167.458 448.318 167.68 448.234 167.944 448.234ZM179.586 447.856C179.538 448.456 179.388 448.96 179.136 449.368C178.896 449.776 178.536 450.082 178.056 450.286C177.576 450.49 176.952 450.592 176.184 450.592C175.404 450.592 174.774 450.49 174.294 450.286C173.826 450.082 173.484 449.782 173.268 449.386C173.052 448.978 172.92 448.468 172.872 447.856H174.348C174.408 448.504 174.576 448.942 174.852 449.17C175.14 449.386 175.596 449.494 176.22 449.494C176.772 449.494 177.204 449.38 177.516 449.152C177.84 448.912 178.032 448.48 178.092 447.856H179.586ZM173.268 457.738C173.268 457.846 173.262 458.002 173.25 458.206C173.25 458.398 173.244 458.608 173.232 458.836C173.22 459.052 173.208 459.262 173.196 459.466C173.184 459.658 173.172 459.814 173.16 459.934L178.326 451.852H180.27V461.5H178.794V455.812C178.794 455.62 178.794 455.368 178.794 455.056C178.806 454.744 178.818 454.438 178.83 454.138C178.842 453.826 178.854 453.592 178.866 453.436L173.736 461.5H171.774V451.852H173.268V457.738ZM190.001 453.184H186.851V461.5H185.285V453.184H182.171V451.852H190.001V453.184ZM193.395 457.738C193.395 457.846 193.389 458.002 193.377 458.206C193.377 458.398 193.371 458.608 193.359 458.836C193.347 459.052 193.335 459.262 193.323 459.466C193.311 459.658 193.299 459.814 193.287 459.934L198.453 451.852H200.397V461.5H198.921V455.812C198.921 455.62 198.921 455.368 198.921 455.056C198.933 454.744 198.945 454.438 198.957 454.138C198.969 453.826 198.981 453.592 198.993 453.436L193.863 461.5H191.901V451.852H193.395V457.738ZM210.681 451.672C211.413 451.672 212.049 451.774 212.589 451.978C213.129 452.17 213.549 452.458 213.849 452.842C214.149 453.214 214.299 453.67 214.299 454.21C214.299 454.798 214.137 455.266 213.813 455.614C213.489 455.95 213.045 456.196 212.481 456.352V456.424C212.865 456.532 213.219 456.682 213.543 456.874C213.867 457.066 214.125 457.318 214.317 457.63C214.521 457.942 214.623 458.344 214.623 458.836C214.623 459.364 214.473 459.844 214.173 460.276C213.885 460.708 213.435 461.05 212.823 461.302C212.223 461.554 211.449 461.68 210.501 461.68C210.045 461.68 209.607 461.656 209.187 461.608C208.779 461.56 208.407 461.488 208.071 461.392C207.747 461.296 207.459 461.182 207.207 461.05V459.628C207.615 459.82 208.095 459.994 208.647 460.15C209.211 460.306 209.823 460.384 210.483 460.384C210.963 460.384 211.395 460.33 211.779 460.222C212.175 460.114 212.487 459.946 212.715 459.718C212.943 459.478 213.057 459.154 213.057 458.746C213.057 458.374 212.955 458.074 212.751 457.846C212.547 457.606 212.241 457.426 211.833 457.306C211.437 457.186 210.927 457.126 210.303 457.126H209.007V455.83H210.051C210.879 455.83 211.539 455.722 212.031 455.506C212.535 455.278 212.787 454.894 212.787 454.354C212.787 453.898 212.595 453.556 212.211 453.328C211.839 453.1 211.299 452.986 210.591 452.986C210.063 452.986 209.595 453.04 209.187 453.148C208.791 453.244 208.353 453.394 207.873 453.598L207.315 452.338C207.831 452.11 208.371 451.942 208.935 451.834C209.499 451.726 210.081 451.672 210.681 451.672ZM227.439 454.714H231.885V461.014C231.189 461.242 230.487 461.41 229.779 461.518C229.071 461.626 228.267 461.68 227.367 461.68C226.035 461.68 224.913 461.416 224.001 460.888C223.089 460.348 222.393 459.586 221.913 458.602C221.445 457.606 221.211 456.43 221.211 455.074C221.211 453.73 221.475 452.566 222.003 451.582C222.531 450.598 223.287 449.836 224.271 449.296C225.267 448.744 226.467 448.468 227.871 448.468C228.591 448.468 229.269 448.534 229.905 448.666C230.553 448.798 231.153 448.984 231.705 449.224L231.093 450.628C230.637 450.424 230.121 450.25 229.545 450.106C228.981 449.962 228.393 449.89 227.781 449.89C226.761 449.89 225.885 450.1 225.153 450.52C224.421 450.94 223.863 451.54 223.479 452.32C223.095 453.088 222.903 454.006 222.903 455.074C222.903 456.094 223.065 457 223.389 457.792C223.725 458.572 224.247 459.184 224.955 459.628C225.663 460.06 226.593 460.276 227.745 460.276C228.129 460.276 228.465 460.264 228.753 460.24C229.053 460.204 229.323 460.162 229.563 460.114C229.815 460.066 230.049 460.018 230.265 459.97V456.154H227.439V454.714ZM243.127 456.658C243.127 457.462 243.019 458.176 242.803 458.8C242.599 459.412 242.299 459.934 241.903 460.366C241.519 460.798 241.045 461.128 240.481 461.356C239.929 461.572 239.311 461.68 238.627 461.68C237.991 461.68 237.403 461.572 236.863 461.356C236.323 461.128 235.855 460.798 235.459 460.366C235.063 459.934 234.751 459.412 234.523 458.8C234.307 458.176 234.199 457.462 234.199 456.658C234.199 455.59 234.379 454.69 234.739 453.958C235.099 453.214 235.615 452.65 236.287 452.266C236.959 451.87 237.757 451.672 238.681 451.672C239.557 451.672 240.325 451.87 240.985 452.266C241.657 452.65 242.179 453.214 242.551 453.958C242.935 454.69 243.127 455.59 243.127 456.658ZM235.837 456.658C235.837 457.414 235.933 458.074 236.125 458.638C236.329 459.19 236.641 459.616 237.061 459.916C237.481 460.216 238.015 460.366 238.663 460.366C239.311 460.366 239.845 460.216 240.265 459.916C240.685 459.616 240.991 459.19 241.183 458.638C241.387 458.074 241.489 457.414 241.489 456.658C241.489 455.89 241.387 455.236 241.183 454.696C240.979 454.156 240.667 453.742 240.247 453.454C239.839 453.154 239.305 453.004 238.645 453.004C237.661 453.004 236.947 453.328 236.503 453.976C236.059 454.624 235.837 455.518 235.837 456.658ZM254.025 456.658C254.025 457.462 253.917 458.176 253.701 458.8C253.497 459.412 253.197 459.934 252.801 460.366C252.417 460.798 251.943 461.128 251.379 461.356C250.827 461.572 250.209 461.68 249.525 461.68C248.889 461.68 248.301 461.572 247.761 461.356C247.221 461.128 246.753 460.798 246.357 460.366C245.961 459.934 245.649 459.412 245.421 458.8C245.205 458.176 245.097 457.462 245.097 456.658C245.097 455.59 245.277 454.69 245.637 453.958C245.997 453.214 246.513 452.65 247.185 452.266C247.857 451.87 248.655 451.672 249.579 451.672C250.455 451.672 251.223 451.87 251.883 452.266C252.555 452.65 253.077 453.214 253.449 453.958C253.833 454.69 254.025 455.59 254.025 456.658ZM246.735 456.658C246.735 457.414 246.831 458.074 247.023 458.638C247.227 459.19 247.539 459.616 247.959 459.916C248.379 460.216 248.913 460.366 249.561 460.366C250.209 460.366 250.743 460.216 251.163 459.916C251.583 459.616 251.889 459.19 252.081 458.638C252.285 458.074 252.387 457.414 252.387 456.658C252.387 455.89 252.285 455.236 252.081 454.696C251.877 454.156 251.565 453.742 251.145 453.454C250.737 453.154 250.203 453.004 249.543 453.004C248.559 453.004 247.845 453.328 247.401 453.976C246.957 454.624 246.735 455.518 246.735 456.658ZM259.956 451.672C260.592 451.672 261.162 451.792 261.666 452.032C262.182 452.272 262.62 452.638 262.98 453.13H263.07L263.286 451.852H264.546V461.662C264.546 462.574 264.39 463.336 264.078 463.948C263.766 464.572 263.292 465.04 262.656 465.352C262.02 465.664 261.21 465.82 260.226 465.82C259.53 465.82 258.888 465.766 258.3 465.658C257.724 465.562 257.208 465.412 256.752 465.208V463.75C257.064 463.906 257.406 464.038 257.778 464.146C258.15 464.266 258.552 464.356 258.984 464.416C259.416 464.476 259.86 464.506 260.316 464.506C261.144 464.506 261.792 464.26 262.26 463.768C262.74 463.288 262.98 462.628 262.98 461.788V461.41C262.98 461.266 262.986 461.062 262.998 460.798C263.01 460.522 263.022 460.33 263.034 460.222H262.962C262.626 460.714 262.206 461.08 261.702 461.32C261.21 461.56 260.634 461.68 259.974 461.68C258.726 461.68 257.748 461.242 257.04 460.366C256.344 459.49 255.996 458.266 255.996 456.694C255.996 455.662 256.152 454.774 256.464 454.03C256.788 453.274 257.244 452.692 257.832 452.284C258.42 451.876 259.128 451.672 259.956 451.672ZM260.172 453.004C259.632 453.004 259.17 453.148 258.786 453.436C258.414 453.724 258.126 454.144 257.922 454.696C257.73 455.248 257.634 455.92 257.634 456.712C257.634 457.9 257.85 458.812 258.282 459.448C258.726 460.072 259.368 460.384 260.208 460.384C260.7 460.384 261.12 460.324 261.468 460.204C261.816 460.072 262.104 459.874 262.332 459.61C262.56 459.334 262.728 458.986 262.836 458.566C262.944 458.146 262.998 457.648 262.998 457.072V456.694C262.998 455.818 262.896 455.11 262.692 454.57C262.5 454.03 262.194 453.634 261.774 453.382C261.354 453.13 260.82 453.004 260.172 453.004ZM269.194 461.5H267.61V447.82H269.194V461.5ZM275.977 451.672C276.805 451.672 277.513 451.852 278.101 452.212C278.701 452.572 279.157 453.082 279.469 453.742C279.793 454.39 279.955 455.152 279.955 456.028V456.982H273.349C273.373 458.074 273.649 458.908 274.177 459.484C274.717 460.048 275.467 460.33 276.427 460.33C277.039 460.33 277.579 460.276 278.047 460.168C278.527 460.048 279.019 459.88 279.523 459.664V461.05C279.031 461.266 278.545 461.422 278.065 461.518C277.585 461.626 277.015 461.68 276.355 461.68C275.443 461.68 274.633 461.494 273.925 461.122C273.229 460.75 272.683 460.198 272.287 459.466C271.903 458.722 271.711 457.816 271.711 456.748C271.711 455.692 271.885 454.786 272.233 454.03C272.593 453.274 273.091 452.692 273.727 452.284C274.375 451.876 275.125 451.672 275.977 451.672ZM275.959 452.968C275.203 452.968 274.603 453.214 274.159 453.706C273.727 454.186 273.469 454.858 273.385 455.722H278.299C278.299 455.17 278.215 454.69 278.047 454.282C277.879 453.874 277.621 453.556 277.273 453.328C276.937 453.088 276.499 452.968 275.959 452.968Z" fill="white"/>
<path d="M111.37 499.342C111.37 500.023 111.155 500.565 110.726 500.966C110.296 501.358 109.722 501.61 109.004 501.722V501.778C109.844 501.89 110.483 502.151 110.922 502.562C111.36 502.973 111.58 503.509 111.58 504.172C111.58 504.76 111.43 505.278 111.132 505.726C110.833 506.165 110.385 506.51 109.788 506.762C109.19 507.014 108.444 507.14 107.548 507.14C107.006 507.14 106.488 507.098 105.994 507.014C105.508 506.939 105.056 506.799 104.636 506.594V505.446C104.925 505.586 105.233 505.707 105.56 505.81C105.896 505.903 106.232 505.978 106.568 506.034C106.904 506.081 107.226 506.104 107.534 506.104C108.43 506.104 109.106 505.936 109.564 505.6C110.03 505.264 110.264 504.788 110.264 504.172C110.264 503.537 109.993 503.075 109.452 502.786C108.91 502.497 108.154 502.352 107.184 502.352H105.756V501.302H107.114C107.776 501.302 108.322 501.227 108.752 501.078C109.19 500.929 109.517 500.719 109.732 500.448C109.956 500.168 110.068 499.841 110.068 499.468C110.068 498.964 109.881 498.577 109.508 498.306C109.134 498.035 108.649 497.9 108.052 497.9C107.426 497.9 106.904 497.979 106.484 498.138C106.073 498.297 105.672 498.502 105.28 498.754L104.678 497.9C104.939 497.704 105.238 497.531 105.574 497.382C105.919 497.223 106.302 497.097 106.722 497.004C107.142 496.911 107.59 496.864 108.066 496.864C108.784 496.864 109.386 496.971 109.872 497.186C110.366 497.401 110.74 497.695 110.992 498.068C111.244 498.432 111.37 498.857 111.37 499.342ZM116.366 499.37C117.281 499.37 117.957 499.571 118.396 499.972C118.835 500.373 119.054 501.013 119.054 501.89V507H118.158L117.92 505.936H117.864C117.649 506.207 117.425 506.435 117.192 506.622C116.968 506.799 116.707 506.93 116.408 507.014C116.119 507.098 115.764 507.14 115.344 507.14C114.896 507.14 114.49 507.061 114.126 506.902C113.771 506.743 113.491 506.501 113.286 506.174C113.081 505.838 112.978 505.418 112.978 504.914C112.978 504.167 113.272 503.593 113.86 503.192C114.448 502.781 115.353 502.557 116.576 502.52L117.85 502.478V502.03C117.85 501.405 117.715 500.971 117.444 500.728C117.173 500.485 116.791 500.364 116.296 500.364C115.904 500.364 115.531 500.425 115.176 500.546C114.821 500.658 114.49 500.789 114.182 500.938L113.804 500.014C114.131 499.837 114.518 499.687 114.966 499.566C115.414 499.435 115.881 499.37 116.366 499.37ZM116.73 503.374C115.797 503.411 115.148 503.561 114.784 503.822C114.429 504.083 114.252 504.452 114.252 504.928C114.252 505.348 114.378 505.656 114.63 505.852C114.891 506.048 115.223 506.146 115.624 506.146C116.259 506.146 116.786 505.973 117.206 505.628C117.626 505.273 117.836 504.732 117.836 504.004V503.332L116.73 503.374ZM120.98 502.492C120.98 501.4 121.087 500.471 121.302 499.706C121.526 498.931 121.866 498.315 122.324 497.858C122.79 497.391 123.388 497.079 124.116 496.92C124.722 496.789 125.315 496.673 125.894 496.57C126.472 496.467 127.014 496.374 127.518 496.29L127.728 497.368C127.485 497.405 127.214 497.452 126.916 497.508C126.617 497.555 126.314 497.606 126.006 497.662C125.698 497.709 125.399 497.76 125.11 497.816C124.83 497.863 124.582 497.909 124.368 497.956C124.06 498.021 123.784 498.133 123.542 498.292C123.299 498.441 123.089 498.647 122.912 498.908C122.744 499.169 122.608 499.491 122.506 499.874C122.403 500.257 122.342 500.709 122.324 501.232H122.408C122.538 501.055 122.716 500.873 122.94 500.686C123.173 500.499 123.448 500.341 123.766 500.21C124.092 500.079 124.461 500.014 124.872 500.014C125.525 500.014 126.066 500.159 126.496 500.448C126.934 500.728 127.261 501.12 127.476 501.624C127.7 502.128 127.812 502.716 127.812 503.388C127.812 504.219 127.667 504.914 127.378 505.474C127.088 506.034 126.687 506.454 126.174 506.734C125.66 507.005 125.063 507.14 124.382 507.14C123.868 507.14 123.402 507.042 122.982 506.846C122.562 506.641 122.202 506.342 121.904 505.95C121.605 505.558 121.376 505.073 121.218 504.494C121.059 503.915 120.98 503.248 120.98 502.492ZM124.48 506.118C124.89 506.118 125.245 506.034 125.544 505.866C125.852 505.698 126.09 505.423 126.258 505.04C126.426 504.657 126.51 504.149 126.51 503.514C126.51 502.749 126.365 502.147 126.076 501.708C125.796 501.26 125.329 501.036 124.676 501.036C124.265 501.036 123.892 501.129 123.556 501.316C123.22 501.493 122.94 501.699 122.716 501.932C122.492 502.165 122.333 502.361 122.24 502.52C122.24 502.977 122.272 503.421 122.338 503.85C122.403 504.279 122.515 504.667 122.674 505.012C122.842 505.348 123.07 505.619 123.36 505.824C123.658 506.02 124.032 506.118 124.48 506.118ZM128.577 499.496H129.893L131.517 503.766C131.61 504.018 131.694 504.261 131.769 504.494C131.853 504.727 131.927 504.956 131.993 505.18C132.058 505.395 132.109 505.605 132.147 505.81H132.203C132.259 505.577 132.347 505.273 132.469 504.9C132.59 504.517 132.716 504.135 132.847 503.752L134.373 499.496H135.703L132.469 508.036C132.291 508.503 132.081 508.909 131.839 509.254C131.605 509.609 131.316 509.879 130.971 510.066C130.635 510.262 130.224 510.36 129.739 510.36C129.515 510.36 129.319 510.346 129.151 510.318C128.983 510.299 128.838 510.276 128.717 510.248V509.268C128.819 509.287 128.941 509.305 129.081 509.324C129.23 509.343 129.384 509.352 129.543 509.352C129.832 509.352 130.079 509.296 130.285 509.184C130.499 509.081 130.681 508.927 130.831 508.722C130.98 508.526 131.106 508.293 131.209 508.022L131.601 507.028L128.577 499.496ZM142.328 507H141.082V500.518H138.87C138.776 501.703 138.66 502.716 138.52 503.556C138.38 504.387 138.202 505.063 137.988 505.586C137.773 506.109 137.516 506.491 137.218 506.734C136.919 506.977 136.569 507.098 136.168 507.098C136.046 507.098 135.925 507.089 135.804 507.07C135.692 507.061 135.598 507.037 135.524 507V506.076C135.58 506.095 135.64 506.109 135.706 506.118C135.771 506.127 135.836 506.132 135.902 506.132C136.107 506.132 136.294 506.048 136.462 505.88C136.63 505.712 136.779 505.455 136.91 505.11C137.05 504.765 137.176 504.331 137.288 503.808C137.4 503.276 137.498 502.651 137.582 501.932C137.666 501.213 137.74 500.401 137.806 499.496H142.328V507ZM145.872 504.074C145.872 504.158 145.867 504.279 145.858 504.438C145.858 504.587 145.853 504.751 145.844 504.928C145.834 505.096 145.825 505.259 145.816 505.418C145.806 505.567 145.797 505.689 145.788 505.782L149.806 499.496H151.318V507H150.17V502.576C150.17 502.427 150.17 502.231 150.17 501.988C150.179 501.745 150.188 501.507 150.198 501.274C150.207 501.031 150.216 500.849 150.226 500.728L146.236 507H144.71V499.496H145.872V504.074ZM163.684 499.496V507H162.452V500.546H158.574V507H157.342V499.496H163.684ZM168.921 499.37C169.835 499.37 170.512 499.571 170.951 499.972C171.389 500.373 171.609 501.013 171.609 501.89V507H170.713L170.475 505.936H170.419C170.204 506.207 169.98 506.435 169.747 506.622C169.523 506.799 169.261 506.93 168.963 507.014C168.673 507.098 168.319 507.14 167.899 507.14C167.451 507.14 167.045 507.061 166.681 506.902C166.326 506.743 166.046 506.501 165.841 506.174C165.635 505.838 165.533 505.418 165.533 504.914C165.533 504.167 165.827 503.593 166.415 503.192C167.003 502.781 167.908 502.557 169.131 502.52L170.405 502.478V502.03C170.405 501.405 170.269 500.971 169.999 500.728C169.728 500.485 169.345 500.364 168.851 500.364C168.459 500.364 168.085 500.425 167.731 500.546C167.376 500.658 167.045 500.789 166.737 500.938L166.359 500.014C166.685 499.837 167.073 499.687 167.521 499.566C167.969 499.435 168.435 499.37 168.921 499.37ZM169.285 503.374C168.351 503.411 167.703 503.561 167.339 503.822C166.984 504.083 166.807 504.452 166.807 504.928C166.807 505.348 166.933 505.656 167.185 505.852C167.446 506.048 167.777 506.146 168.179 506.146C168.813 506.146 169.341 505.973 169.761 505.628C170.181 505.273 170.391 504.732 170.391 504.004V503.332L169.285 503.374ZM177.496 499.356C178.42 499.356 179.162 499.678 179.722 500.322C180.292 500.966 180.576 501.937 180.576 503.234C180.576 504.083 180.446 504.802 180.184 505.39C179.932 505.969 179.573 506.407 179.106 506.706C178.649 506.995 178.108 507.14 177.482 507.14C177.1 507.14 176.759 507.089 176.46 506.986C176.162 506.883 175.905 506.753 175.69 506.594C175.485 506.426 175.308 506.244 175.158 506.048H175.074C175.093 506.207 175.112 506.407 175.13 506.65C175.149 506.893 175.158 507.103 175.158 507.28V510.36H173.926V499.496H174.934L175.102 500.518H175.158C175.308 500.303 175.485 500.107 175.69 499.93C175.905 499.753 176.157 499.613 176.446 499.51C176.745 499.407 177.095 499.356 177.496 499.356ZM177.272 500.392C176.768 500.392 176.362 500.49 176.054 500.686C175.746 500.873 175.522 501.157 175.382 501.54C175.242 501.923 175.168 502.408 175.158 502.996V503.234C175.158 503.85 175.224 504.373 175.354 504.802C175.485 505.231 175.704 505.558 176.012 505.782C176.33 506.006 176.759 506.118 177.3 506.118C177.758 506.118 178.131 505.992 178.42 505.74C178.719 505.488 178.938 505.147 179.078 504.718C179.228 504.279 179.302 503.78 179.302 503.22C179.302 502.361 179.134 501.675 178.798 501.162C178.472 500.649 177.963 500.392 177.272 500.392ZM189.064 503.234C189.064 503.859 188.98 504.415 188.812 504.9C188.653 505.376 188.42 505.782 188.112 506.118C187.813 506.454 187.444 506.711 187.006 506.888C186.576 507.056 186.096 507.14 185.564 507.14C185.069 507.14 184.612 507.056 184.192 506.888C183.772 506.711 183.408 506.454 183.1 506.118C182.792 505.782 182.549 505.376 182.372 504.9C182.204 504.415 182.12 503.859 182.12 503.234C182.12 502.403 182.26 501.703 182.54 501.134C182.82 500.555 183.221 500.117 183.744 499.818C184.266 499.51 184.887 499.356 185.606 499.356C186.287 499.356 186.884 499.51 187.398 499.818C187.92 500.117 188.326 500.555 188.616 501.134C188.914 501.703 189.064 502.403 189.064 503.234ZM183.394 503.234C183.394 503.822 183.468 504.335 183.618 504.774C183.776 505.203 184.019 505.535 184.346 505.768C184.672 506.001 185.088 506.118 185.592 506.118C186.096 506.118 186.511 506.001 186.838 505.768C187.164 505.535 187.402 505.203 187.552 504.774C187.71 504.335 187.79 503.822 187.79 503.234C187.79 502.637 187.71 502.128 187.552 501.708C187.393 501.288 187.15 500.966 186.824 500.742C186.506 500.509 186.091 500.392 185.578 500.392C184.812 500.392 184.257 500.644 183.912 501.148C183.566 501.652 183.394 502.347 183.394 503.234ZM196.728 507H195.482V500.518H193.27C193.177 501.703 193.06 502.716 192.92 503.556C192.78 504.387 192.603 505.063 192.388 505.586C192.174 506.109 191.917 506.491 191.618 506.734C191.32 506.977 190.97 507.098 190.568 507.098C190.447 507.098 190.326 507.089 190.204 507.07C190.092 507.061 189.999 507.037 189.924 507V506.076C189.98 506.095 190.041 506.109 190.106 506.118C190.172 506.127 190.237 506.132 190.302 506.132C190.508 506.132 190.694 506.048 190.862 505.88C191.03 505.712 191.18 505.455 191.31 505.11C191.45 504.765 191.576 504.331 191.688 503.808C191.8 503.276 191.898 502.651 191.982 501.932C192.066 501.213 192.141 500.401 192.206 499.496H196.728V507ZM202.568 502.576C203.221 502.576 203.763 502.655 204.192 502.814C204.621 502.973 204.943 503.211 205.158 503.528C205.382 503.836 205.494 504.228 205.494 504.704C205.494 505.171 205.387 505.577 205.172 505.922C204.967 506.267 204.645 506.533 204.206 506.72C203.767 506.907 203.203 507 202.512 507H199.11V499.496H200.342V502.576H202.568ZM204.262 504.774C204.262 504.317 204.099 504.009 203.772 503.85C203.455 503.682 203.007 503.598 202.428 503.598H200.342V506.006H202.456C202.979 506.006 203.408 505.913 203.744 505.726C204.089 505.539 204.262 505.222 204.262 504.774ZM208.192 503.808C208.192 503.453 208.225 503.15 208.29 502.898C208.365 502.637 208.486 502.389 208.654 502.156C208.832 501.923 209.07 501.68 209.368 501.428C209.732 501.12 210.012 500.863 210.208 500.658C210.414 500.453 210.558 500.252 210.642 500.056C210.726 499.86 210.768 499.622 210.768 499.342C210.768 498.894 210.624 498.549 210.334 498.306C210.045 498.063 209.625 497.942 209.074 497.942C208.617 497.942 208.211 498.003 207.856 498.124C207.502 498.236 207.161 498.371 206.834 498.53L206.4 497.55C206.774 497.354 207.184 497.191 207.632 497.06C208.09 496.929 208.598 496.864 209.158 496.864C210.045 496.864 210.731 497.083 211.216 497.522C211.702 497.961 211.944 498.558 211.944 499.314C211.944 499.734 211.874 500.093 211.734 500.392C211.604 500.681 211.412 500.952 211.16 501.204C210.918 501.447 210.628 501.708 210.292 501.988C209.984 502.249 209.746 502.478 209.578 502.674C209.42 502.87 209.312 503.066 209.256 503.262C209.2 503.449 209.172 503.677 209.172 503.948V504.186H208.192V503.808ZM207.87 506.244C207.87 505.899 207.95 505.656 208.108 505.516C208.276 505.376 208.486 505.306 208.738 505.306C208.972 505.306 209.172 505.376 209.34 505.516C209.508 505.656 209.592 505.899 209.592 506.244C209.592 506.58 209.508 506.823 209.34 506.972C209.172 507.121 208.972 507.196 208.738 507.196C208.486 507.196 208.276 507.121 208.108 506.972C207.95 506.823 207.87 506.58 207.87 506.244Z" fill="#40403B"/>
<path d="M220.153 497.004C220.984 497.004 221.679 497.083 222.239 497.242C222.809 497.401 223.233 497.662 223.513 498.026C223.803 498.39 223.947 498.875 223.947 499.482C223.947 499.874 223.873 500.224 223.723 500.532C223.583 500.831 223.369 501.083 223.079 501.288C222.799 501.484 222.454 501.619 222.043 501.694V501.764C222.463 501.829 222.841 501.951 223.177 502.128C223.523 502.305 223.793 502.557 223.989 502.884C224.185 503.211 224.283 503.635 224.283 504.158C224.283 504.765 224.143 505.283 223.863 505.712C223.583 506.132 223.182 506.454 222.659 506.678C222.146 506.893 221.53 507 220.811 507H217.297V497.004H220.153ZM220.405 501.26C221.264 501.26 221.852 501.125 222.169 500.854C222.487 500.574 222.645 500.163 222.645 499.622C222.645 499.071 222.449 498.679 222.057 498.446C221.675 498.203 221.059 498.082 220.209 498.082H218.557V501.26H220.405ZM218.557 502.31V505.936H220.573C221.46 505.936 222.076 505.763 222.421 505.418C222.767 505.073 222.939 504.62 222.939 504.06C222.939 503.705 222.86 503.397 222.701 503.136C222.552 502.875 222.295 502.674 221.931 502.534C221.577 502.385 221.091 502.31 220.475 502.31H218.557ZM227.467 499.496V507H226.235V499.496H227.467ZM226.865 496.682C227.052 496.682 227.215 496.747 227.355 496.878C227.504 496.999 227.579 497.195 227.579 497.466C227.579 497.727 227.504 497.923 227.355 498.054C227.215 498.185 227.052 498.25 226.865 498.25C226.66 498.25 226.487 498.185 226.347 498.054C226.207 497.923 226.137 497.727 226.137 497.466C226.137 497.195 226.207 496.999 226.347 496.878C226.487 496.747 226.66 496.682 226.865 496.682ZM235.416 499.496V505.964H236.508V509.604H235.318V507H230.096V509.604H228.92V505.964H229.522C229.952 505.367 230.306 504.718 230.586 504.018C230.876 503.309 231.09 502.571 231.23 501.806C231.38 501.031 231.459 500.261 231.468 499.496H235.416ZM232.56 500.462C232.523 501.097 232.425 501.755 232.266 502.436C232.108 503.108 231.902 503.752 231.65 504.368C231.408 504.984 231.123 505.516 230.796 505.964H234.226V500.462H232.56ZM239.211 499.496V502.618H243.285V499.496H244.517V507H243.285V503.654H239.211V507H237.979V499.496H239.211ZM253.417 503.234C253.417 503.859 253.333 504.415 253.165 504.9C253.006 505.376 252.773 505.782 252.465 506.118C252.166 506.454 251.798 506.711 251.359 506.888C250.93 507.056 250.449 507.14 249.917 507.14C249.422 507.14 248.965 507.056 248.545 506.888C248.125 506.711 247.761 506.454 247.453 506.118C247.145 505.782 246.902 505.376 246.725 504.9C246.557 504.415 246.473 503.859 246.473 503.234C246.473 502.403 246.613 501.703 246.893 501.134C247.173 500.555 247.574 500.117 248.097 499.818C248.62 499.51 249.24 499.356 249.959 499.356C250.64 499.356 251.238 499.51 251.751 499.818C252.274 500.117 252.68 500.555 252.969 501.134C253.268 501.703 253.417 502.403 253.417 503.234ZM247.747 503.234C247.747 503.822 247.822 504.335 247.971 504.774C248.13 505.203 248.372 505.535 248.699 505.768C249.026 506.001 249.441 506.118 249.945 506.118C250.449 506.118 250.864 506.001 251.191 505.768C251.518 505.535 251.756 505.203 251.905 504.774C252.064 504.335 252.143 503.822 252.143 503.234C252.143 502.637 252.064 502.128 251.905 501.708C251.746 501.288 251.504 500.966 251.177 500.742C250.86 500.509 250.444 500.392 249.931 500.392C249.166 500.392 248.61 500.644 248.265 501.148C247.92 501.652 247.747 502.347 247.747 503.234ZM261.404 501.386C261.404 501.853 261.264 502.217 260.984 502.478C260.704 502.739 260.344 502.917 259.906 503.01V503.066C260.372 503.131 260.778 503.299 261.124 503.57C261.469 503.831 261.642 504.242 261.642 504.802C261.642 505.119 261.581 505.413 261.46 505.684C261.348 505.955 261.17 506.188 260.928 506.384C260.685 506.58 260.372 506.734 259.99 506.846C259.607 506.949 259.145 507 258.604 507H255.37V499.496H258.59C259.122 499.496 259.598 499.557 260.018 499.678C260.447 499.79 260.783 499.986 261.026 500.266C261.278 500.537 261.404 500.91 261.404 501.386ZM260.368 504.802C260.368 504.373 260.204 504.065 259.878 503.878C259.551 503.691 259.07 503.598 258.436 503.598H256.602V506.006H258.464C259.08 506.006 259.551 505.917 259.878 505.74C260.204 505.553 260.368 505.241 260.368 504.802ZM260.158 501.54C260.158 501.185 260.027 500.929 259.766 500.77C259.514 500.602 259.098 500.518 258.52 500.518H256.602V502.576H258.296C258.902 502.576 259.364 502.492 259.682 502.324C259.999 502.156 260.158 501.895 260.158 501.54ZM264.598 504.074C264.598 504.158 264.593 504.279 264.584 504.438C264.584 504.587 264.579 504.751 264.57 504.928C264.561 505.096 264.551 505.259 264.542 505.418C264.533 505.567 264.523 505.689 264.514 505.782L268.532 499.496H270.044V507H268.896V502.576C268.896 502.427 268.896 502.231 268.896 501.988C268.905 501.745 268.915 501.507 268.924 501.274C268.933 501.031 268.943 500.849 268.952 500.728L264.962 507H263.436V499.496H264.598V504.074ZM277.612 500.532H275.162V507H273.944V500.532H271.522V499.496H277.612V500.532ZM280.252 504.074C280.252 504.158 280.248 504.279 280.238 504.438C280.238 504.587 280.234 504.751 280.224 504.928C280.215 505.096 280.206 505.259 280.196 505.418C280.187 505.567 280.178 505.689 280.168 505.782L284.186 499.496H285.698V507H284.55V502.576C284.55 502.427 284.55 502.231 284.55 501.988C284.56 501.745 284.569 501.507 284.578 501.274C284.588 501.031 284.597 500.849 284.606 500.728L280.616 507H279.09V499.496H280.252V504.074Z" fill="#E48100"/>
<path d="M133.169 126.038C133.572 126.034 133.977 126.03 134.394 126.027C137.351 126.052 137.351 126.052 138.377 126.888C139.233 128.089 139.158 129.298 139.138 130.742C139.151 131.151 139.151 131.151 139.162 131.567C139.158 133.079 139.056 133.687 138.162 134.932C136.992 135.84 136.269 135.797 134.854 135.648C134.909 135.999 134.963 136.35 135.021 136.712C135.229 138.283 135.256 139.831 135.256 141.416C135.263 141.691 135.267 141.966 135.27 142.249C135.277 144.145 135.007 145.766 134.513 147.59C135.512 147.662 135.512 147.662 136.512 147.731C137.579 148.056 137.958 148.433 138.606 149.399C138.831 150.481 138.841 151.53 138.838 152.634C138.861 153.068 138.861 153.068 138.882 153.509C138.889 154.693 138.865 155.554 138.169 156.513C136.58 157.891 134.97 158.011 132.978 157.971C132.699 157.982 132.422 157.993 132.132 158C130.287 157.993 129.128 157.595 127.798 156.209C127.023 155.069 126.945 154.009 126.924 152.634C126.904 152.384 126.884 152.131 126.863 151.874C126.809 150.517 126.969 149.822 127.695 148.7C128.715 147.951 128.715 147.951 131.443 147.59C131.443 143.649 131.443 139.708 131.443 135.648C130.543 135.648 129.643 135.648 128.715 135.648C127.705 134.925 127.705 134.925 127.01 133.839C126.836 132.786 126.768 131.99 126.795 130.944C126.788 130.691 126.781 130.441 126.774 130.181C126.788 128.903 126.993 128.078 127.596 126.978C129.373 125.806 131.123 125.994 133.169 126.038Z" fill="#E48100"/>
<path d="M129.444 141.059C129.795 141.241 129.795 141.241 130.152 141.422C130.152 143.461 130.152 145.5 130.152 147.6C129.451 147.6 128.027 147.963 128.027 147.963C128.027 147.963 127.559 148.127 127.319 148.327C127.051 148.55 126.973 148.639 126.788 148.872C126.004 149.857 126.083 150.95 126.012 152.03C125.991 152.357 125.966 152.684 125.941 153.022C125.924 153.396 125.924 153.396 125.902 153.777C124.344 153.254 123.405 152.898 122.559 151.415C122.006 150.144 122.006 150.144 122.006 149.053C121.613 149.173 121.216 149.293 120.809 149.417C118.634 149.976 116.378 150.053 114.214 149.417C114.2 149.7 114.186 149.987 114.172 150.282C113.736 152.128 112.897 153.748 111.735 155.231C110.619 155.718 109.419 155.667 108.214 155.685C107.853 155.696 107.492 155.703 107.12 155.714C105.508 155.533 104.605 154.849 103.522 153.639C101.938 151.288 101.8 148.937 102.172 146.146C102.686 144.442 103.277 143.265 104.651 142.149C106.748 141.629 109.716 141.19 111.735 142.149C112.337 142.952 112.337 142.952 112.886 143.944C113.07 144.268 113.254 144.595 113.446 144.929C113.86 145.783 113.86 145.783 113.86 146.51C114.151 146.452 114.437 146.39 114.738 146.328C116.159 146.121 117.519 146.106 118.953 146.125C119.212 146.125 119.474 146.128 119.743 146.128C120.377 146.132 121.015 146.139 121.652 146.146C121.698 145.819 121.748 145.492 121.794 145.154C122.623 140.499 125.424 140.616 129.444 141.059Z" fill="#E48100"/>
<path d="M171.169 154H167.137V131.152H180.097V134.576H171.169V141.296H179.489V144.72H171.169V154ZM188.004 136.656V154H183.972V136.656H188.004ZM185.988 129.968C186.585 129.968 187.108 130.128 187.556 130.448C188.004 130.747 188.228 131.291 188.228 132.08C188.228 132.848 188.004 133.403 187.556 133.744C187.108 134.064 186.585 134.224 185.988 134.224C185.369 134.224 184.836 134.064 184.388 133.744C183.961 133.403 183.748 132.848 183.748 132.08C183.748 131.291 183.961 130.747 184.388 130.448C184.836 130.128 185.369 129.968 185.988 129.968ZM199.879 151.088C200.391 151.088 200.882 151.045 201.351 150.96C201.821 150.853 202.258 150.736 202.663 150.608V153.616C202.237 153.808 201.682 153.968 200.999 154.096C200.317 154.245 199.602 154.32 198.855 154.32C197.874 154.32 196.978 154.16 196.167 153.84C195.378 153.499 194.738 152.923 194.247 152.112C193.778 151.301 193.543 150.171 193.543 148.72V139.696H191.207V137.936L193.767 136.528L195.047 132.848H197.575V136.656H202.503V139.696H197.575V148.688C197.575 149.499 197.789 150.107 198.215 150.512C198.642 150.896 199.197 151.088 199.879 151.088ZM214.735 154H210.639V134.608H204.079V131.152H221.295V134.608H214.735V154ZM231.904 136.336C232.16 136.336 232.458 136.347 232.8 136.368C233.141 136.389 233.429 136.432 233.664 136.496L233.312 140.24C233.12 140.197 232.864 140.165 232.544 140.144C232.245 140.101 231.978 140.08 231.744 140.08C231.104 140.08 230.485 140.187 229.888 140.4C229.312 140.592 228.789 140.891 228.32 141.296C227.872 141.68 227.509 142.181 227.232 142.8C226.976 143.419 226.848 144.155 226.848 145.008V154H222.816V136.656H225.92L226.496 139.664H226.688C227.029 139.045 227.456 138.491 227.968 138C228.48 137.488 229.066 137.083 229.728 136.784C230.41 136.485 231.136 136.336 231.904 136.336ZM243.165 136.336C245.405 136.336 247.101 136.827 248.253 137.808C249.426 138.768 250.013 140.283 250.013 142.352V154H247.165L246.365 151.6H246.237C245.746 152.219 245.234 152.741 244.701 153.168C244.189 153.573 243.592 153.861 242.909 154.032C242.248 154.224 241.437 154.32 240.477 154.32C239.453 154.32 238.525 154.128 237.693 153.744C236.882 153.36 236.242 152.773 235.773 151.984C235.304 151.173 235.069 150.16 235.069 148.944C235.069 147.152 235.72 145.808 237.021 144.912C238.344 143.995 240.338 143.493 243.005 143.408L246.013 143.312V142.448C246.013 141.339 245.746 140.549 245.213 140.08C244.68 139.611 243.933 139.376 242.973 139.376C242.098 139.376 241.256 139.504 240.445 139.76C239.634 140.016 238.845 140.315 238.077 140.656L236.797 137.84C237.65 137.392 238.621 137.029 239.709 136.752C240.818 136.475 241.97 136.336 243.165 136.336ZM243.901 145.872C242.13 145.936 240.904 146.245 240.221 146.8C239.538 147.333 239.197 148.059 239.197 148.976C239.197 149.787 239.442 150.373 239.933 150.736C240.424 151.099 241.053 151.28 241.821 151.28C242.994 151.28 243.986 150.949 244.797 150.288C245.608 149.605 246.013 148.603 246.013 147.28V145.808L243.901 145.872ZM262.074 154.32C260.431 154.32 259.002 154.011 257.786 153.392C256.591 152.752 255.663 151.781 255.002 150.48C254.362 149.157 254.042 147.472 254.042 145.424C254.042 143.291 254.394 141.563 255.098 140.24C255.823 138.896 256.815 137.915 258.074 137.296C259.332 136.656 260.772 136.336 262.394 136.336C263.482 136.336 264.452 136.443 265.306 136.656C266.159 136.869 266.884 137.125 267.482 137.424L266.298 140.592C265.636 140.336 264.975 140.123 264.314 139.952C263.652 139.76 263.012 139.664 262.394 139.664C261.434 139.664 260.634 139.877 259.994 140.304C259.375 140.731 258.916 141.371 258.618 142.224C258.319 143.056 258.17 144.112 258.17 145.392C258.17 146.629 258.319 147.664 258.618 148.496C258.938 149.328 259.407 149.957 260.026 150.384C260.644 150.789 261.412 150.992 262.33 150.992C263.311 150.992 264.175 150.875 264.922 150.64C265.668 150.405 266.372 150.085 267.034 149.68V153.168C266.372 153.573 265.658 153.861 264.89 154.032C264.143 154.224 263.204 154.32 262.074 154.32ZM275.097 141.232C275.097 141.787 275.076 142.373 275.033 142.992C274.99 143.589 274.948 144.176 274.905 144.752H275.001C275.172 144.496 275.374 144.219 275.609 143.92C275.844 143.6 276.078 143.291 276.313 142.992C276.569 142.672 276.814 142.384 277.049 142.128L282.169 136.656H286.745L279.801 144.144L287.193 154H282.489L277.113 146.576L275.097 148.24V154H271.097V129.68H275.097V141.232Z" fill="#E48100"/>
<path d="M94.0899 804H92.8299V799.338H87.7059V804H86.4459V794.004H87.7059V798.232H92.8299V794.004H94.0899V804ZM99.5528 796.356C100.197 796.356 100.748 796.496 101.205 796.776C101.672 797.056 102.026 797.453 102.269 797.966C102.521 798.47 102.647 799.063 102.647 799.744V800.486H97.5088C97.5275 801.335 97.7422 801.984 98.1528 802.432C98.5728 802.871 99.1562 803.09 99.9028 803.09C100.379 803.09 100.799 803.048 101.163 802.964C101.536 802.871 101.919 802.74 102.311 802.572V803.65C101.928 803.818 101.55 803.939 101.177 804.014C100.804 804.098 100.36 804.14 99.8468 804.14C99.1375 804.14 98.5075 803.995 97.9568 803.706C97.4155 803.417 96.9908 802.987 96.6828 802.418C96.3842 801.839 96.2348 801.135 96.2348 800.304C96.2348 799.483 96.3702 798.778 96.6408 798.19C96.9208 797.602 97.3082 797.149 97.8028 796.832C98.3068 796.515 98.8902 796.356 99.5528 796.356ZM99.5388 797.364C98.9508 797.364 98.4842 797.555 98.1388 797.938C97.8028 798.311 97.6022 798.834 97.5368 799.506H101.359C101.359 799.077 101.294 798.703 101.163 798.386C101.032 798.069 100.832 797.821 100.561 797.644C100.3 797.457 99.9588 797.364 99.5388 797.364ZM110.168 796.356C110.737 796.356 111.232 796.435 111.652 796.594C112.072 796.743 112.399 796.967 112.632 797.266C112.865 797.555 112.982 797.91 112.982 798.33C112.982 798.787 112.856 799.151 112.604 799.422C112.352 799.683 112.007 799.875 111.568 799.996V800.052C111.867 800.136 112.142 800.253 112.394 800.402C112.646 800.551 112.847 800.747 112.996 800.99C113.155 801.233 113.234 801.545 113.234 801.928C113.234 802.339 113.117 802.712 112.884 803.048C112.66 803.384 112.31 803.65 111.834 803.846C111.367 804.042 110.765 804.14 110.028 804.14C109.673 804.14 109.333 804.121 109.006 804.084C108.689 804.047 108.399 803.991 108.138 803.916C107.886 803.841 107.662 803.753 107.466 803.65V802.544C107.783 802.693 108.157 802.829 108.586 802.95C109.025 803.071 109.501 803.132 110.014 803.132C110.387 803.132 110.723 803.09 111.022 803.006C111.33 802.922 111.573 802.791 111.75 802.614C111.927 802.427 112.016 802.175 112.016 801.858C112.016 801.569 111.937 801.335 111.778 801.158C111.619 800.971 111.381 800.831 111.064 800.738C110.756 800.645 110.359 800.598 109.874 800.598H108.866V799.59H109.678C110.322 799.59 110.835 799.506 111.218 799.338C111.61 799.161 111.806 798.862 111.806 798.442C111.806 798.087 111.657 797.821 111.358 797.644C111.069 797.467 110.649 797.378 110.098 797.378C109.687 797.378 109.323 797.42 109.006 797.504C108.698 797.579 108.357 797.695 107.984 797.854L107.55 796.874C107.951 796.697 108.371 796.566 108.81 796.482C109.249 796.398 109.701 796.356 110.168 796.356ZM117.899 796.37C118.814 796.37 119.491 796.571 119.929 796.972C120.368 797.373 120.587 798.013 120.587 798.89V804H119.691L119.453 802.936H119.397C119.183 803.207 118.959 803.435 118.725 803.622C118.501 803.799 118.24 803.93 117.941 804.014C117.652 804.098 117.297 804.14 116.877 804.14C116.429 804.14 116.023 804.061 115.659 803.902C115.305 803.743 115.025 803.501 114.819 803.174C114.614 802.838 114.511 802.418 114.511 801.914C114.511 801.167 114.805 800.593 115.393 800.192C115.981 799.781 116.887 799.557 118.109 799.52L119.383 799.478V799.03C119.383 798.405 119.248 797.971 118.977 797.728C118.707 797.485 118.324 797.364 117.829 797.364C117.437 797.364 117.064 797.425 116.709 797.546C116.355 797.658 116.023 797.789 115.715 797.938L115.337 797.014C115.664 796.837 116.051 796.687 116.499 796.566C116.947 796.435 117.414 796.37 117.899 796.37ZM118.263 800.374C117.33 800.411 116.681 800.561 116.317 800.822C115.963 801.083 115.785 801.452 115.785 801.928C115.785 802.348 115.911 802.656 116.163 802.852C116.425 803.048 116.756 803.146 117.157 803.146C117.792 803.146 118.319 802.973 118.739 802.628C119.159 802.273 119.369 801.732 119.369 801.004V800.332L118.263 800.374ZM126.475 796.356C127.399 796.356 128.141 796.678 128.701 797.322C129.27 797.966 129.555 798.937 129.555 800.234C129.555 801.083 129.424 801.802 129.163 802.39C128.911 802.969 128.552 803.407 128.085 803.706C127.628 803.995 127.086 804.14 126.461 804.14C126.078 804.14 125.738 804.089 125.439 803.986C125.14 803.883 124.884 803.753 124.669 803.594C124.464 803.426 124.286 803.244 124.137 803.048H124.053C124.072 803.207 124.09 803.407 124.109 803.65C124.128 803.893 124.137 804.103 124.137 804.28V807.36H122.905V796.496H123.913L124.081 797.518H124.137C124.286 797.303 124.464 797.107 124.669 796.93C124.884 796.753 125.136 796.613 125.425 796.51C125.724 796.407 126.074 796.356 126.475 796.356ZM126.251 797.392C125.747 797.392 125.341 797.49 125.033 797.686C124.725 797.873 124.501 798.157 124.361 798.54C124.221 798.923 124.146 799.408 124.137 799.996V800.234C124.137 800.85 124.202 801.373 124.333 801.802C124.464 802.231 124.683 802.558 124.991 802.782C125.308 803.006 125.738 803.118 126.279 803.118C126.736 803.118 127.11 802.992 127.399 802.74C127.698 802.488 127.917 802.147 128.057 801.718C128.206 801.279 128.281 800.78 128.281 800.22C128.281 799.361 128.113 798.675 127.777 798.162C127.45 797.649 126.942 797.392 126.251 797.392ZM134.416 796.356C135.06 796.356 135.611 796.496 136.068 796.776C136.535 797.056 136.889 797.453 137.132 797.966C137.384 798.47 137.51 799.063 137.51 799.744V800.486H132.372C132.391 801.335 132.605 801.984 133.016 802.432C133.436 802.871 134.019 803.09 134.766 803.09C135.242 803.09 135.662 803.048 136.026 802.964C136.399 802.871 136.782 802.74 137.174 802.572V803.65C136.791 803.818 136.413 803.939 136.04 804.014C135.667 804.098 135.223 804.14 134.71 804.14C134.001 804.14 133.371 803.995 132.82 803.706C132.279 803.417 131.854 802.987 131.546 802.418C131.247 801.839 131.098 801.135 131.098 800.304C131.098 799.483 131.233 798.778 131.504 798.19C131.784 797.602 132.171 797.149 132.666 796.832C133.17 796.515 133.753 796.356 134.416 796.356ZM134.402 797.364C133.814 797.364 133.347 797.555 133.002 797.938C132.666 798.311 132.465 798.834 132.4 799.506H136.222C136.222 799.077 136.157 798.703 136.026 798.386C135.895 798.069 135.695 797.821 135.424 797.644C135.163 797.457 134.822 797.364 134.402 797.364ZM142.57 804.14C141.88 804.14 141.264 804.009 140.722 803.748C140.19 803.477 139.77 803.057 139.462 802.488C139.154 801.919 139 801.186 139 800.29C139 799.357 139.159 798.601 139.476 798.022C139.794 797.443 140.223 797.023 140.764 796.762C141.315 796.491 141.931 796.356 142.612 796.356C142.995 796.356 143.368 796.393 143.732 796.468C144.106 796.543 144.423 796.641 144.684 796.762L144.32 797.77C144.059 797.667 143.77 797.583 143.452 797.518C143.144 797.453 142.855 797.42 142.584 797.42C142.108 797.42 141.707 797.499 141.38 797.658C141.054 797.817 140.802 798.059 140.624 798.386C140.447 798.713 140.33 799.128 140.274 799.632H143.956V800.64H140.26C140.288 801.191 140.391 801.648 140.568 802.012C140.746 802.376 140.998 802.647 141.324 802.824C141.651 803.001 142.057 803.09 142.542 803.09C142.962 803.09 143.336 803.048 143.662 802.964C143.989 802.88 144.292 802.782 144.572 802.67V803.734C144.311 803.865 144.022 803.963 143.704 804.028C143.387 804.103 143.009 804.14 142.57 804.14ZM149.362 804.14C148.699 804.14 148.107 804.005 147.584 803.734C147.071 803.463 146.665 803.043 146.366 802.474C146.077 801.905 145.932 801.177 145.932 800.29C145.932 799.366 146.086 798.615 146.394 798.036C146.702 797.457 147.117 797.033 147.64 796.762C148.172 796.491 148.774 796.356 149.446 796.356C149.829 796.356 150.197 796.398 150.552 796.482C150.907 796.557 151.196 796.65 151.42 796.762L151.042 797.784C150.818 797.7 150.557 797.621 150.258 797.546C149.959 797.471 149.679 797.434 149.418 797.434C148.914 797.434 148.499 797.541 148.172 797.756C147.845 797.971 147.603 798.288 147.444 798.708C147.285 799.128 147.206 799.651 147.206 800.276C147.206 800.873 147.285 801.382 147.444 801.802C147.603 802.222 147.841 802.539 148.158 802.754C148.475 802.969 148.872 803.076 149.348 803.076C149.759 803.076 150.118 803.034 150.426 802.95C150.743 802.866 151.033 802.763 151.294 802.642V803.734C151.042 803.865 150.762 803.963 150.454 804.028C150.155 804.103 149.791 804.14 149.362 804.14ZM158.259 797.532H155.809V804H154.591V797.532H152.169V796.496H158.259V797.532ZM163.307 796.356C164.231 796.356 164.973 796.678 165.533 797.322C166.102 797.966 166.387 798.937 166.387 800.234C166.387 801.083 166.256 801.802 165.995 802.39C165.743 802.969 165.384 803.407 164.917 803.706C164.46 803.995 163.918 804.14 163.293 804.14C162.91 804.14 162.57 804.089 162.271 803.986C161.972 803.883 161.716 803.753 161.501 803.594C161.296 803.426 161.118 803.244 160.969 803.048H160.885C160.904 803.207 160.922 803.407 160.941 803.65C160.96 803.893 160.969 804.103 160.969 804.28V807.36H159.737V796.496H160.745L160.913 797.518H160.969C161.118 797.303 161.296 797.107 161.501 796.93C161.716 796.753 161.968 796.613 162.257 796.51C162.556 796.407 162.906 796.356 163.307 796.356ZM163.083 797.392C162.579 797.392 162.173 797.49 161.865 797.686C161.557 797.873 161.333 798.157 161.193 798.54C161.053 798.923 160.978 799.408 160.969 799.996V800.234C160.969 800.85 161.034 801.373 161.165 801.802C161.296 802.231 161.515 802.558 161.823 802.782C162.14 803.006 162.57 803.118 163.111 803.118C163.568 803.118 163.942 802.992 164.231 802.74C164.53 802.488 164.749 802.147 164.889 801.718C165.038 801.279 165.113 800.78 165.113 800.22C165.113 799.361 164.945 798.675 164.609 798.162C164.282 797.649 163.774 797.392 163.083 797.392ZM174.874 800.234C174.874 800.859 174.79 801.415 174.622 801.9C174.463 802.376 174.23 802.782 173.922 803.118C173.623 803.454 173.255 803.711 172.816 803.888C172.387 804.056 171.906 804.14 171.374 804.14C170.879 804.14 170.422 804.056 170.002 803.888C169.582 803.711 169.218 803.454 168.91 803.118C168.602 802.782 168.359 802.376 168.182 801.9C168.014 801.415 167.93 800.859 167.93 800.234C167.93 799.403 168.07 798.703 168.35 798.134C168.63 797.555 169.031 797.117 169.554 796.818C170.077 796.51 170.697 796.356 171.416 796.356C172.097 796.356 172.695 796.51 173.208 796.818C173.731 797.117 174.137 797.555 174.426 798.134C174.725 798.703 174.874 799.403 174.874 800.234ZM169.204 800.234C169.204 800.822 169.279 801.335 169.428 801.774C169.587 802.203 169.829 802.535 170.156 802.768C170.483 803.001 170.898 803.118 171.402 803.118C171.906 803.118 172.321 803.001 172.648 802.768C172.975 802.535 173.213 802.203 173.362 801.774C173.521 801.335 173.6 800.822 173.6 800.234C173.6 799.637 173.521 799.128 173.362 798.708C173.203 798.288 172.961 797.966 172.634 797.742C172.317 797.509 171.901 797.392 171.388 797.392C170.623 797.392 170.067 797.644 169.722 798.148C169.377 798.652 169.204 799.347 169.204 800.234ZM182.861 798.386C182.861 798.853 182.721 799.217 182.441 799.478C182.161 799.739 181.801 799.917 181.363 800.01V800.066C181.829 800.131 182.235 800.299 182.581 800.57C182.926 800.831 183.099 801.242 183.099 801.802C183.099 802.119 183.038 802.413 182.917 802.684C182.805 802.955 182.627 803.188 182.385 803.384C182.142 803.58 181.829 803.734 181.447 803.846C181.064 803.949 180.602 804 180.061 804H176.827V796.496H180.047C180.579 796.496 181.055 796.557 181.475 796.678C181.904 796.79 182.24 796.986 182.483 797.266C182.735 797.537 182.861 797.91 182.861 798.386ZM181.825 801.802C181.825 801.373 181.661 801.065 181.335 800.878C181.008 800.691 180.527 800.598 179.893 800.598H178.059V803.006H179.921C180.537 803.006 181.008 802.917 181.335 802.74C181.661 802.553 181.825 802.241 181.825 801.802ZM181.615 798.54C181.615 798.185 181.484 797.929 181.223 797.77C180.971 797.602 180.555 797.518 179.977 797.518H178.059V799.576H179.753C180.359 799.576 180.821 799.492 181.139 799.324C181.456 799.156 181.615 798.895 181.615 798.54ZM187.735 796.37C188.65 796.37 189.326 796.571 189.765 796.972C190.204 797.373 190.423 798.013 190.423 798.89V804H189.527L189.289 802.936H189.233C189.018 803.207 188.794 803.435 188.561 803.622C188.337 803.799 188.076 803.93 187.777 804.014C187.488 804.098 187.133 804.14 186.713 804.14C186.265 804.14 185.859 804.061 185.495 803.902C185.14 803.743 184.86 803.501 184.655 803.174C184.45 802.838 184.347 802.418 184.347 801.914C184.347 801.167 184.641 800.593 185.229 800.192C185.817 799.781 186.722 799.557 187.945 799.52L189.219 799.478V799.03C189.219 798.405 189.084 797.971 188.813 797.728C188.542 797.485 188.16 797.364 187.665 797.364C187.273 797.364 186.9 797.425 186.545 797.546C186.19 797.658 185.859 797.789 185.551 797.938L185.173 797.014C185.5 796.837 185.887 796.687 186.335 796.566C186.783 796.435 187.25 796.37 187.735 796.37ZM188.099 800.374C187.166 800.411 186.517 800.561 186.153 800.822C185.798 801.083 185.621 801.452 185.621 801.928C185.621 802.348 185.747 802.656 185.999 802.852C186.26 803.048 186.592 803.146 186.993 803.146C187.628 803.146 188.155 802.973 188.575 802.628C188.995 802.273 189.205 801.732 189.205 801.004V800.332L188.099 800.374ZM193.973 796.496V799.618H198.047V796.496H199.279V804H198.047V800.654H193.973V804H192.741V796.496H193.973ZM202.887 796.496V804H201.655V796.496H202.887ZM202.285 793.682C202.472 793.682 202.635 793.747 202.775 793.878C202.924 793.999 202.999 794.195 202.999 794.466C202.999 794.727 202.924 794.923 202.775 795.054C202.635 795.185 202.472 795.25 202.285 795.25C202.08 795.25 201.907 795.185 201.767 795.054C201.627 794.923 201.557 794.727 201.557 794.466C201.557 794.195 201.627 793.999 201.767 793.878C201.907 793.747 202.08 793.682 202.285 793.682ZM206.034 800.808C206.034 800.453 206.067 800.15 206.132 799.898C206.207 799.637 206.328 799.389 206.496 799.156C206.674 798.923 206.912 798.68 207.21 798.428C207.574 798.12 207.854 797.863 208.05 797.658C208.256 797.453 208.4 797.252 208.484 797.056C208.568 796.86 208.61 796.622 208.61 796.342C208.61 795.894 208.466 795.549 208.176 795.306C207.887 795.063 207.467 794.942 206.916 794.942C206.459 794.942 206.053 795.003 205.698 795.124C205.344 795.236 205.003 795.371 204.676 795.53L204.242 794.55C204.616 794.354 205.026 794.191 205.474 794.06C205.932 793.929 206.44 793.864 207 793.864C207.887 793.864 208.573 794.083 209.058 794.522C209.544 794.961 209.786 795.558 209.786 796.314C209.786 796.734 209.716 797.093 209.576 797.392C209.446 797.681 209.254 797.952 209.002 798.204C208.76 798.447 208.47 798.708 208.134 798.988C207.826 799.249 207.588 799.478 207.42 799.674C207.262 799.87 207.154 800.066 207.098 800.262C207.042 800.449 207.014 800.677 207.014 800.948V801.186H206.034V800.808ZM205.712 803.244C205.712 802.899 205.792 802.656 205.95 802.516C206.118 802.376 206.328 802.306 206.58 802.306C206.814 802.306 207.014 802.376 207.182 802.516C207.35 802.656 207.434 802.899 207.434 803.244C207.434 803.58 207.35 803.823 207.182 803.972C207.014 804.121 206.814 804.196 206.58 804.196C206.328 804.196 206.118 804.121 205.95 803.972C205.792 803.823 205.712 803.58 205.712 803.244Z" fill="#40403B"/>
<path d="M221.047 796.342C221.047 797.023 220.833 797.565 220.403 797.966C219.974 798.358 219.4 798.61 218.681 798.722V798.778C219.521 798.89 220.161 799.151 220.599 799.562C221.038 799.973 221.257 800.509 221.257 801.172C221.257 801.76 221.108 802.278 220.809 802.726C220.511 803.165 220.063 803.51 219.465 803.762C218.868 804.014 218.121 804.14 217.225 804.14C216.684 804.14 216.166 804.098 215.671 804.014C215.186 803.939 214.733 803.799 214.313 803.594V802.446C214.603 802.586 214.911 802.707 215.237 802.81C215.573 802.903 215.909 802.978 216.245 803.034C216.581 803.081 216.903 803.104 217.211 803.104C218.107 803.104 218.784 802.936 219.241 802.6C219.708 802.264 219.941 801.788 219.941 801.172C219.941 800.537 219.671 800.075 219.129 799.786C218.588 799.497 217.832 799.352 216.861 799.352H215.433V798.302H216.791C217.454 798.302 218 798.227 218.429 798.078C218.868 797.929 219.195 797.719 219.409 797.448C219.633 797.168 219.745 796.841 219.745 796.468C219.745 795.964 219.559 795.577 219.185 795.306C218.812 795.035 218.327 794.9 217.729 794.9C217.104 794.9 216.581 794.979 216.161 795.138C215.751 795.297 215.349 795.502 214.957 795.754L214.355 794.9C214.617 794.704 214.915 794.531 215.251 794.382C215.597 794.223 215.979 794.097 216.399 794.004C216.819 793.911 217.267 793.864 217.743 793.864C218.462 793.864 219.064 793.971 219.549 794.186C220.044 794.401 220.417 794.695 220.669 795.068C220.921 795.432 221.047 795.857 221.047 796.342ZM226.044 796.37C226.958 796.37 227.635 796.571 228.074 796.972C228.512 797.373 228.732 798.013 228.732 798.89V804H227.836L227.598 802.936H227.542C227.327 803.207 227.103 803.435 226.87 803.622C226.646 803.799 226.384 803.93 226.086 804.014C225.796 804.098 225.442 804.14 225.022 804.14C224.574 804.14 224.168 804.061 223.804 803.902C223.449 803.743 223.169 803.501 222.964 803.174C222.758 802.838 222.656 802.418 222.656 801.914C222.656 801.167 222.95 800.593 223.538 800.192C224.126 799.781 225.031 799.557 226.254 799.52L227.528 799.478V799.03C227.528 798.405 227.392 797.971 227.122 797.728C226.851 797.485 226.468 797.364 225.974 797.364C225.582 797.364 225.208 797.425 224.854 797.546C224.499 797.658 224.168 797.789 223.86 797.938L223.482 797.014C223.808 796.837 224.196 796.687 224.644 796.566C225.092 796.435 225.558 796.37 226.044 796.37ZM226.408 800.374C225.474 800.411 224.826 800.561 224.462 800.822C224.107 801.083 223.93 801.452 223.93 801.928C223.93 802.348 224.056 802.656 224.308 802.852C224.569 803.048 224.9 803.146 225.302 803.146C225.936 803.146 226.464 802.973 226.884 802.628C227.304 802.273 227.514 801.732 227.514 801.004V800.332L226.408 800.374ZM234.619 796.356C235.543 796.356 236.285 796.678 236.845 797.322C237.415 797.966 237.699 798.937 237.699 800.234C237.699 801.083 237.569 801.802 237.307 802.39C237.055 802.969 236.696 803.407 236.229 803.706C235.772 803.995 235.231 804.14 234.605 804.14C234.223 804.14 233.882 804.089 233.583 803.986C233.285 803.883 233.028 803.753 232.813 803.594C232.608 803.426 232.431 803.244 232.281 803.048H232.197C232.216 803.207 232.235 803.407 232.253 803.65C232.272 803.893 232.281 804.103 232.281 804.28V807.36H231.049V796.496H232.057L232.225 797.518H232.281C232.431 797.303 232.608 797.107 232.813 796.93C233.028 796.753 233.28 796.613 233.569 796.51C233.868 796.407 234.218 796.356 234.619 796.356ZM234.395 797.392C233.891 797.392 233.485 797.49 233.177 797.686C232.869 797.873 232.645 798.157 232.505 798.54C232.365 798.923 232.291 799.408 232.281 799.996V800.234C232.281 800.85 232.347 801.373 232.477 801.802C232.608 802.231 232.827 802.558 233.135 802.782C233.453 803.006 233.882 803.118 234.423 803.118C234.881 803.118 235.254 802.992 235.543 802.74C235.842 802.488 236.061 802.147 236.201 801.718C236.351 801.279 236.425 800.78 236.425 800.22C236.425 799.361 236.257 798.675 235.921 798.162C235.595 797.649 235.086 797.392 234.395 797.392ZM242.561 796.356C243.205 796.356 243.755 796.496 244.213 796.776C244.679 797.056 245.034 797.453 245.277 797.966C245.529 798.47 245.655 799.063 245.655 799.744V800.486H240.517C240.535 801.335 240.75 801.984 241.161 802.432C241.581 802.871 242.164 803.09 242.911 803.09C243.387 803.09 243.807 803.048 244.171 802.964C244.544 802.871 244.927 802.74 245.319 802.572V803.65C244.936 803.818 244.558 803.939 244.185 804.014C243.811 804.098 243.368 804.14 242.855 804.14C242.145 804.14 241.515 803.995 240.965 803.706C240.423 803.417 239.999 802.987 239.691 802.418C239.392 801.839 239.243 801.135 239.243 800.304C239.243 799.483 239.378 798.778 239.649 798.19C239.929 797.602 240.316 797.149 240.811 796.832C241.315 796.515 241.898 796.356 242.561 796.356ZM242.547 797.364C241.959 797.364 241.492 797.555 241.147 797.938C240.811 798.311 240.61 798.834 240.545 799.506H244.367C244.367 799.077 244.301 798.703 244.171 798.386C244.04 798.069 243.839 797.821 243.569 797.644C243.307 797.457 242.967 797.364 242.547 797.364ZM250.715 804.14C250.024 804.14 249.408 804.009 248.867 803.748C248.335 803.477 247.915 803.057 247.607 802.488C247.299 801.919 247.145 801.186 247.145 800.29C247.145 799.357 247.304 798.601 247.621 798.022C247.938 797.443 248.368 797.023 248.909 796.762C249.46 796.491 250.076 796.356 250.757 796.356C251.14 796.356 251.513 796.393 251.877 796.468C252.25 796.543 252.568 796.641 252.829 796.762L252.465 797.77C252.204 797.667 251.914 797.583 251.597 797.518C251.289 797.453 251 797.42 250.729 797.42C250.253 797.42 249.852 797.499 249.525 797.658C249.198 797.817 248.946 798.059 248.769 798.386C248.592 798.713 248.475 799.128 248.419 799.632H252.101V800.64H248.405C248.433 801.191 248.536 801.648 248.713 802.012C248.89 802.376 249.142 802.647 249.469 802.824C249.796 803.001 250.202 803.09 250.687 803.09C251.107 803.09 251.48 803.048 251.807 802.964C252.134 802.88 252.437 802.782 252.717 802.67V803.734C252.456 803.865 252.166 803.963 251.849 804.028C251.532 804.103 251.154 804.14 250.715 804.14ZM257.507 804.14C256.844 804.14 256.251 804.005 255.729 803.734C255.215 803.463 254.809 803.043 254.511 802.474C254.221 801.905 254.077 801.177 254.077 800.29C254.077 799.366 254.231 798.615 254.539 798.036C254.847 797.457 255.262 797.033 255.785 796.762C256.317 796.491 256.919 796.356 257.591 796.356C257.973 796.356 258.342 796.398 258.697 796.482C259.051 796.557 259.341 796.65 259.565 796.762L259.187 797.784C258.963 797.7 258.701 797.621 258.403 797.546C258.104 797.471 257.824 797.434 257.563 797.434C257.059 797.434 256.643 797.541 256.317 797.756C255.99 797.971 255.747 798.288 255.589 798.708C255.43 799.128 255.351 799.651 255.351 800.276C255.351 800.873 255.43 801.382 255.589 801.802C255.747 802.222 255.985 802.539 256.303 802.754C256.62 802.969 257.017 803.076 257.493 803.076C257.903 803.076 258.263 803.034 258.571 802.95C258.888 802.866 259.177 802.763 259.439 802.642V803.734C259.187 803.865 258.907 803.963 258.599 804.028C258.3 804.103 257.936 804.14 257.507 804.14ZM266.403 797.532H263.953V804H262.735V797.532H260.313V796.496H266.403V797.532ZM271.451 796.356C272.375 796.356 273.117 796.678 273.677 797.322C274.247 797.966 274.531 798.937 274.531 800.234C274.531 801.083 274.401 801.802 274.139 802.39C273.887 802.969 273.528 803.407 273.061 803.706C272.604 803.995 272.063 804.14 271.437 804.14C271.055 804.14 270.714 804.089 270.415 803.986C270.117 803.883 269.86 803.753 269.645 803.594C269.44 803.426 269.263 803.244 269.113 803.048H269.029C269.048 803.207 269.067 803.407 269.085 803.65C269.104 803.893 269.113 804.103 269.113 804.28V807.36H267.881V796.496H268.889L269.057 797.518H269.113C269.263 797.303 269.44 797.107 269.645 796.93C269.86 796.753 270.112 796.613 270.401 796.51C270.7 796.407 271.05 796.356 271.451 796.356ZM271.227 797.392C270.723 797.392 270.317 797.49 270.009 797.686C269.701 797.873 269.477 798.157 269.337 798.54C269.197 798.923 269.123 799.408 269.113 799.996V800.234C269.113 800.85 269.179 801.373 269.309 801.802C269.44 802.231 269.659 802.558 269.967 802.782C270.285 803.006 270.714 803.118 271.255 803.118C271.713 803.118 272.086 802.992 272.375 802.74C272.674 802.488 272.893 802.147 273.033 801.718C273.183 801.279 273.257 800.78 273.257 800.22C273.257 799.361 273.089 798.675 272.753 798.162C272.427 797.649 271.918 797.392 271.227 797.392ZM275.182 796.496H276.498L278.122 800.766C278.215 801.018 278.299 801.261 278.374 801.494C278.458 801.727 278.533 801.956 278.598 802.18C278.663 802.395 278.715 802.605 278.752 802.81H278.808C278.864 802.577 278.953 802.273 279.074 801.9C279.195 801.517 279.321 801.135 279.452 800.752L280.978 796.496H282.308L279.074 805.036C278.897 805.503 278.687 805.909 278.444 806.254C278.211 806.609 277.921 806.879 277.576 807.066C277.24 807.262 276.829 807.36 276.344 807.36C276.12 807.36 275.924 807.346 275.756 807.318C275.588 807.299 275.443 807.276 275.322 807.248V806.268C275.425 806.287 275.546 806.305 275.686 806.324C275.835 806.343 275.989 806.352 276.148 806.352C276.437 806.352 276.685 806.296 276.89 806.184C277.105 806.081 277.287 805.927 277.436 805.722C277.585 805.526 277.711 805.293 277.814 805.022L278.206 804.028L275.182 796.496ZM289.529 798.386C289.529 798.853 289.389 799.217 289.109 799.478C288.829 799.739 288.469 799.917 288.031 800.01V800.066C288.497 800.131 288.903 800.299 289.249 800.57C289.594 800.831 289.767 801.242 289.767 801.802C289.767 802.119 289.706 802.413 289.585 802.684C289.473 802.955 289.295 803.188 289.053 803.384C288.81 803.58 288.497 803.734 288.115 803.846C287.732 803.949 287.27 804 286.729 804H283.495V796.496H286.715C287.247 796.496 287.723 796.557 288.143 796.678C288.572 796.79 288.908 796.986 289.151 797.266C289.403 797.537 289.529 797.91 289.529 798.386ZM288.493 801.802C288.493 801.373 288.329 801.065 288.003 800.878C287.676 800.691 287.195 800.598 286.561 800.598H284.727V803.006H286.589C287.205 803.006 287.676 802.917 288.003 802.74C288.329 802.553 288.493 802.241 288.493 801.802ZM288.283 798.54C288.283 798.185 288.152 797.929 287.891 797.77C287.639 797.602 287.223 797.518 286.645 797.518H284.727V799.576H286.421C287.027 799.576 287.489 799.492 287.807 799.324C288.124 799.156 288.283 798.895 288.283 798.54ZM294.403 796.37C295.318 796.37 295.994 796.571 296.433 796.972C296.872 797.373 297.091 798.013 297.091 798.89V804H296.195L295.957 802.936H295.901C295.686 803.207 295.462 803.435 295.229 803.622C295.005 803.799 294.744 803.93 294.445 804.014C294.156 804.098 293.801 804.14 293.381 804.14C292.933 804.14 292.527 804.061 292.163 803.902C291.808 803.743 291.528 803.501 291.323 803.174C291.118 802.838 291.015 802.418 291.015 801.914C291.015 801.167 291.309 800.593 291.897 800.192C292.485 799.781 293.39 799.557 294.613 799.52L295.887 799.478V799.03C295.887 798.405 295.752 797.971 295.481 797.728C295.21 797.485 294.828 797.364 294.333 797.364C293.941 797.364 293.568 797.425 293.213 797.546C292.858 797.658 292.527 797.789 292.219 797.938L291.841 797.014C292.168 796.837 292.555 796.687 293.003 796.566C293.451 796.435 293.918 796.37 294.403 796.37ZM294.767 800.374C293.834 800.411 293.185 800.561 292.821 800.822C292.466 801.083 292.289 801.452 292.289 801.928C292.289 802.348 292.415 802.656 292.667 802.852C292.928 803.048 293.26 803.146 293.661 803.146C294.296 803.146 294.823 802.973 295.243 802.628C295.663 802.273 295.873 801.732 295.873 801.004V800.332L294.767 800.374ZM304.589 797.532H302.139V804H300.921V797.532H298.499V796.496H304.589V797.532ZM307.229 801.074C307.229 801.158 307.224 801.279 307.215 801.438C307.215 801.587 307.21 801.751 307.201 801.928C307.192 802.096 307.182 802.259 307.173 802.418C307.164 802.567 307.154 802.689 307.145 802.782L311.163 796.496H312.675V804H311.527V799.576C311.527 799.427 311.527 799.231 311.527 798.988C311.536 798.745 311.546 798.507 311.555 798.274C311.564 798.031 311.574 797.849 311.583 797.728L307.593 804H306.067V796.496H307.229V801.074ZM318.073 804.14C317.41 804.14 316.818 804.005 316.295 803.734C315.782 803.463 315.376 803.043 315.077 802.474C314.788 801.905 314.643 801.177 314.643 800.29C314.643 799.366 314.797 798.615 315.105 798.036C315.413 797.457 315.828 797.033 316.351 796.762C316.883 796.491 317.485 796.356 318.157 796.356C318.54 796.356 318.908 796.398 319.263 796.482C319.618 796.557 319.907 796.65 320.131 796.762L319.753 797.784C319.529 797.7 319.268 797.621 318.969 797.546C318.67 797.471 318.39 797.434 318.129 797.434C317.625 797.434 317.21 797.541 316.883 797.756C316.556 797.971 316.314 798.288 316.155 798.708C315.996 799.128 315.917 799.651 315.917 800.276C315.917 800.873 315.996 801.382 316.155 801.802C316.314 802.222 316.552 802.539 316.869 802.754C317.186 802.969 317.583 803.076 318.059 803.076C318.47 803.076 318.829 803.034 319.137 802.95C319.454 802.866 319.744 802.763 320.005 802.642V803.734C319.753 803.865 319.473 803.963 319.165 804.028C318.866 804.103 318.502 804.14 318.073 804.14ZM325.248 799.576C325.901 799.576 326.442 799.655 326.872 799.814C327.301 799.973 327.623 800.211 327.838 800.528C328.062 800.836 328.174 801.228 328.174 801.704C328.174 802.171 328.066 802.577 327.852 802.922C327.646 803.267 327.324 803.533 326.886 803.72C326.447 803.907 325.882 804 325.192 804H321.79V796.496H323.022V799.576H325.248ZM326.942 801.774C326.942 801.317 326.778 801.009 326.452 800.85C326.134 800.682 325.686 800.598 325.108 800.598H323.022V803.006H325.136C325.658 803.006 326.088 802.913 326.424 802.726C326.769 802.539 326.942 802.222 326.942 801.774Z" fill="#E48100"/>
</svg>
