<svg width="400" height="48" viewBox="0 0 400 48" fill="none" xmlns="http://www.w3.org/2000/svg">
<path d="M0 0H4C6.20914 0 8 1.79086 8 4V44C8 46.2091 6.20914 48 4 48H0V0Z" fill="#E48100"/>
<rect x="75" width="250" height="48" rx="12" fill="#E48100"/>
<path fill-rule="evenodd" clip-rule="evenodd" d="M88.3333 25.3333H96.3333C97.0667 25.3333 97.6667 24.7333 97.6667 24V13.3333C97.6667 12.6 97.0667 12 96.3333 12H88.3333C87.6 12 87 12.6 87 13.3333V24C87 24.7333 87.6 25.3333 88.3333 25.3333ZM88.3333 36H96.3333C97.0667 36 97.6667 35.4 97.6667 34.6667V29.3333C97.6667 28.6 97.0667 28 96.3333 28H88.3333C87.6 28 87 28.6 87 29.3333V34.6667C87 35.4 87.6 36 88.3333 36ZM101.667 36H109.667C110.4 36 111 35.4 111 34.6667V24C111 23.2667 110.4 22.6667 109.667 22.6667H101.667C100.933 22.6667 100.333 23.2667 100.333 24V34.6667C100.333 35.4 100.933 36 101.667 36ZM100.333 13.3333V18.6667C100.333 19.4 100.933 20 101.667 20H109.667C110.4 20 111 19.4 111 18.6667V13.3333C111 12.6 110.4 12 109.667 12H101.667C100.933 12 100.333 12.6 100.333 13.3333Z" fill="white"/>
<path d="M124.746 30.5V17.648H134.394V30.5H132.792V19.07H126.366V30.5H124.746ZM141.35 20.69C142.526 20.69 143.396 20.948 143.96 21.464C144.524 21.98 144.806 22.802 144.806 23.93V30.5H143.654L143.348 29.132H143.276C143 29.48 142.712 29.774 142.412 30.014C142.124 30.242 141.788 30.41 141.404 30.518C141.032 30.626 140.576 30.68 140.036 30.68C139.46 30.68 138.938 30.578 138.47 30.374C138.014 30.17 137.654 29.858 137.39 29.438C137.126 29.006 136.994 28.466 136.994 27.818C136.994 26.858 137.372 26.12 138.128 25.604C138.884 25.076 140.048 24.788 141.62 24.74L143.258 24.686V24.11C143.258 23.306 143.084 22.748 142.736 22.436C142.388 22.124 141.896 21.968 141.26 21.968C140.756 21.968 140.276 22.046 139.82 22.202C139.364 22.346 138.938 22.514 138.542 22.706L138.056 21.518C138.476 21.29 138.974 21.098 139.55 20.942C140.126 20.774 140.726 20.69 141.35 20.69ZM141.818 25.838C140.618 25.886 139.784 26.078 139.316 26.414C138.86 26.75 138.632 27.224 138.632 27.836C138.632 28.376 138.794 28.772 139.118 29.024C139.454 29.276 139.88 29.402 140.396 29.402C141.212 29.402 141.89 29.18 142.43 28.736C142.97 28.28 143.24 27.584 143.24 26.648V25.784L141.818 25.838ZM149.37 20.852V24.866H154.608V20.852H156.192V30.5H154.608V26.198H149.37V30.5H147.786V20.852H149.37ZM162.973 20.672C163.801 20.672 164.509 20.852 165.097 21.212C165.697 21.572 166.153 22.082 166.465 22.742C166.789 23.39 166.951 24.152 166.951 25.028V25.982H160.345C160.369 27.074 160.645 27.908 161.173 28.484C161.713 29.048 162.463 29.33 163.423 29.33C164.035 29.33 164.575 29.276 165.043 29.168C165.523 29.048 166.015 28.88 166.519 28.664V30.05C166.027 30.266 165.541 30.422 165.061 30.518C164.581 30.626 164.011 30.68 163.351 30.68C162.439 30.68 161.629 30.494 160.921 30.122C160.225 29.75 159.679 29.198 159.283 28.466C158.899 27.722 158.707 26.816 158.707 25.748C158.707 24.692 158.881 23.786 159.229 23.03C159.589 22.274 160.087 21.692 160.723 21.284C161.371 20.876 162.121 20.672 162.973 20.672ZM162.955 21.968C162.199 21.968 161.599 22.214 161.155 22.706C160.723 23.186 160.465 23.858 160.381 24.722H165.295C165.295 24.17 165.211 23.69 165.043 23.282C164.875 22.874 164.617 22.556 164.269 22.328C163.933 22.088 163.495 21.968 162.955 21.968ZM176.751 30.5H175.149V22.166H172.305C172.185 23.69 172.035 24.992 171.855 26.072C171.675 27.14 171.447 28.01 171.171 28.682C170.895 29.354 170.565 29.846 170.181 30.158C169.797 30.47 169.347 30.626 168.831 30.626C168.675 30.626 168.519 30.614 168.363 30.59C168.219 30.578 168.099 30.548 168.003 30.5V29.312C168.075 29.336 168.153 29.354 168.237 29.366C168.321 29.378 168.405 29.384 168.489 29.384C168.753 29.384 168.993 29.276 169.209 29.06C169.425 28.844 169.617 28.514 169.785 28.07C169.965 27.626 170.127 27.068 170.271 26.396C170.415 25.712 170.541 24.908 170.649 23.984C170.757 23.06 170.853 22.016 170.937 20.852H176.751V30.5ZM184.259 24.812C185.099 24.812 185.795 24.914 186.347 25.118C186.899 25.322 187.313 25.628 187.589 26.036C187.877 26.432 188.021 26.936 188.021 27.548C188.021 28.148 187.883 28.67 187.607 29.114C187.343 29.558 186.929 29.9 186.365 30.14C185.801 30.38 185.075 30.5 184.187 30.5H179.813V20.852H181.397V24.812H184.259ZM186.437 27.638C186.437 27.05 186.227 26.654 185.807 26.45C185.399 26.234 184.823 26.126 184.079 26.126H181.397V29.222H184.115C184.787 29.222 185.339 29.102 185.771 28.862C186.215 28.622 186.437 28.214 186.437 27.638Z" fill="white"/>
</svg>
