<svg width="22" height="22" viewBox="0 0 22 22" fill="none" xmlns="http://www.w3.org/2000/svg">
<g id="Group">
<g id="Group_2">
<path id="Vector" d="M20.4284 16.9692C17.7525 16.9692 13.3109 15.5283 11.025 11.0867C8.50085 6.20082 10.4834 1.89999 11.5992 0.17749C5.79252 0.383324 1.14502 5.13916 1.14502 11C1.14502 11.1517 1.16669 11.3033 1.16669 11.455C1.82752 11.1733 2.55335 11 3.31169 11C3.31169 7.65249 5.18585 4.74916 7.97002 3.30832C7.42835 5.68082 7.38502 8.76832 9.09669 12.0833C10.7975 15.3767 13.625 17.4458 16.4634 18.4317C15.1309 19.2333 13.5925 19.6775 11.9892 19.6775C11.4475 19.6775 10.9059 19.6233 10.3859 19.5258C9.98502 20.2842 9.36752 20.9017 8.60919 21.3025C9.67085 21.6492 10.8084 21.8442 11.9784 21.8442C15.77 21.8442 19.1067 19.8942 21.0459 16.9475C20.8617 16.9583 20.645 16.9692 20.4284 16.9692Z" fill="white"/>
<path id="Vector_2" d="M6.58337 15.3333H6.38837C5.93337 14.0766 4.74171 13.1666 3.33337 13.1666C1.53504 13.1666 0.083374 14.6183 0.083374 16.4166C0.083374 18.215 1.53504 19.6666 3.33337 19.6666C4.00504 19.6666 6.03087 19.6666 6.58337 19.6666C7.77504 19.6666 8.75004 18.6916 8.75004 17.5C8.75004 16.3083 7.77504 15.3333 6.58337 15.3333Z" fill="white"/>
</g>
</g>
</svg>
