<svg width="38" height="32" viewBox="0 0 38 32" fill="none" xmlns="http://www.w3.org/2000/svg">
<g id="Frame 12">
<path id="Vector" d="M31.1692 0.0375842C31.5716 0.0339656 31.9775 0.0303471 32.3936 0.0267286C35.3505 0.0520583 35.3505 0.0520582 36.3771 0.887937C37.2331 2.08929 37.1581 3.29787 37.1376 4.74166C37.1513 5.15056 37.1513 5.15056 37.1615 5.56669C37.1581 7.07923 37.0558 7.68714 36.1622 8.93191C34.9924 9.84016 34.2694 9.79674 32.854 9.64838C32.9086 9.99938 32.9631 10.3504 33.0211 10.7122C33.2292 12.2827 33.2564 13.8314 33.2564 15.4163C33.2633 15.6913 33.2667 15.9663 33.2701 16.2486C33.2769 18.1447 33.0075 19.7658 32.5129 21.5895C33.5122 21.6619 33.5122 21.6619 34.5115 21.7306C35.579 22.0563 35.9576 22.4326 36.6056 23.3988C36.8307 24.4807 36.8409 25.5301 36.8375 26.6337C36.8614 27.0679 36.8614 27.068 36.8818 27.5094C36.8887 28.6927 36.8648 29.5539 36.169 30.5128C34.5797 31.8914 32.97 32.0109 30.9782 31.971C30.6985 31.9819 30.4223 31.9928 30.1324 32C28.2873 31.9928 27.1277 31.5947 25.7976 30.2088C25.0234 29.069 24.9449 28.0088 24.9245 26.6337C24.904 26.384 24.8836 26.1308 24.8631 25.8738C24.8085 24.5169 24.9688 23.8221 25.6953 22.7004C26.715 21.9514 26.715 21.9514 29.4434 21.5895C29.4434 17.6489 29.4434 13.7084 29.4434 9.64838C28.5431 9.64838 27.6427 9.64838 26.715 9.64838C25.7055 8.92468 25.7055 8.92468 25.0097 7.83912C24.8358 6.78613 24.7676 5.99005 24.7949 4.9443C24.7881 4.691 24.7812 4.44133 24.7744 4.18079C24.7881 2.90345 24.9927 2.07843 25.5964 0.9784C27.3732 -0.194001 29.1229 -0.00583811 31.1692 0.0375842Z" fill="#E48100"/>
<path id="Vector_2" d="M27.4441 15.0592C27.7948 15.2409 27.7948 15.2409 28.1525 15.4225C28.1525 17.4611 28.1525 19.4998 28.1525 21.6001C27.4512 21.6001 26.0274 21.9635 26.0274 21.9635C26.0274 21.9635 25.5591 22.1268 25.319 22.3269C25.0507 22.5506 24.9734 22.6388 24.7878 22.872C24.0037 23.857 24.0829 24.9506 24.0121 26.0298C23.9909 26.3569 23.9661 26.6839 23.9413 27.0219C23.9236 27.3962 23.9236 27.3962 23.9023 27.7777C22.3439 27.2544 21.4053 26.8983 20.5588 25.4157C20.0063 24.1438 20.0063 24.1438 20.0063 23.0537C19.6132 23.1736 19.2165 23.2935 18.8092 23.4171C16.6345 23.9767 14.3783 24.053 12.2143 23.4171C12.2001 23.7005 12.1859 23.9876 12.1718 24.2819C11.7361 26.1279 10.8967 27.7486 9.735 29.2313C8.61932 29.7182 7.41864 29.6673 6.21442 29.6855C5.85316 29.6964 5.49189 29.7037 5.12 29.7146C3.50847 29.5329 2.6053 28.8497 1.5215 27.6396C-0.0616926 25.2885 -0.199823 22.9374 0.172069 20.1466C0.685633 18.4423 1.27712 17.2649 2.65135 16.1493C4.74811 15.6297 7.71616 15.19 9.735 16.1493C10.3371 16.9524 10.3371 16.9524 10.8861 17.9445C11.0703 18.2679 11.2544 18.5949 11.4457 18.9292C11.8601 19.7832 11.8601 19.7832 11.8601 20.51C12.1505 20.4518 12.4374 20.3901 12.7385 20.3283C14.1587 20.1211 15.5188 20.1066 16.9532 20.1248C17.2118 20.1248 17.4739 20.1284 17.7431 20.1284C18.3771 20.132 19.0146 20.1393 19.6521 20.1466C19.6982 19.8195 19.7477 19.4925 19.7938 19.1545C20.6226 14.4995 23.4242 14.6158 27.4441 15.0592Z" fill="#E48100"/>
</g>
</svg>
