<svg width="26" height="26" viewBox="0 0 26 26" fill="none" xmlns="http://www.w3.org/2000/svg">
<g id="wb_sunny" clip-path="url(#clip0_266_1491)">
<path id="Vector" d="M7.32337 5.24333L5.37337 3.30416L3.84587 4.83166L5.78504 6.77083L7.32337 5.24333ZM1.08337 11.375H4.33337V13.5417H1.08337V11.375ZM11.9167 0.595825H14.0834V3.79166H11.9167V0.595825ZM20.6267 3.29874L22.152 4.82299L20.2129 6.76216L18.6886 5.23683L20.6267 3.29874ZM18.6767 19.6733L20.6159 21.6233L22.1434 20.0958L20.1934 18.1567L18.6767 19.6733ZM21.6667 11.375H24.9167V13.5417H21.6667V11.375ZM13 5.95833C9.41421 5.95833 6.50004 8.87249 6.50004 12.4583C6.50004 16.0442 9.41421 18.9583 13 18.9583C16.5859 18.9583 19.5 16.0442 19.5 12.4583C19.5 8.87249 16.5859 5.95833 13 5.95833ZM13 16.7917C10.6059 16.7917 8.66671 14.8525 8.66671 12.4583C8.66671 10.0642 10.6059 8.12499 13 8.12499C15.3942 8.12499 17.3334 10.0642 17.3334 12.4583C17.3334 14.8525 15.3942 16.7917 13 16.7917ZM11.9167 21.125H14.0834V24.3208H11.9167V21.125ZM3.84587 20.085L5.37337 21.6125L7.31254 19.6625L5.78504 18.135L3.84587 20.085Z" fill="#E48100"/>
</g>
<defs>
<clipPath id="clip0_266_1491">
<rect width="26" height="26" fill="white"/>
</clipPath>
</defs>
</svg>
