<svg width="96" height="95" viewBox="0 0 96 95" fill="none" xmlns="http://www.w3.org/2000/svg">
<g id="flat-color-icons:statistics">
<g id="Group">
<path id="Vector" d="M46.0208 9.896H49.9791V81.146H46.0208V9.896Z" fill="#201F1C"/>
<path id="Vector_2" d="M51.5962 64.8613L54.3947 67.6599L34.5239 87.5307L31.7253 84.7322L51.5962 64.8613Z" fill="#201F1C"/>
<path id="Vector_3" d="M64.3459 84.7561L61.5473 87.5546L41.6765 67.6838L44.4751 64.8853L64.3459 84.7561Z" fill="#201F1C"/>
</g>
<path id="Vector_4" d="M8.41675 15.8335H87.5834V71.2502H8.41675V15.8335Z" fill="#CFD8DC"/>
<g id="Group_2">
<path id="Vector_5" d="M6.4375 13.854H89.5625V21.7707H6.4375V13.854ZM6.4375 69.2707H89.5625V73.229H6.4375V69.2707Z" fill="#40403B"/>
<path id="Vector_6" d="M62.8438 89.0625C64.4833 89.0625 65.8125 87.7333 65.8125 86.0938C65.8125 84.4542 64.4833 83.125 62.8438 83.125C61.2042 83.125 59.875 84.4542 59.875 86.0938C59.875 87.7333 61.2042 89.0625 62.8438 89.0625Z" fill="#40403B"/>
<path id="Vector_7" d="M33.1562 89.0625C34.7958 89.0625 36.125 87.7333 36.125 86.0938C36.125 84.4542 34.7958 83.125 33.1562 83.125C31.5167 83.125 30.1875 84.4542 30.1875 86.0938C30.1875 87.7333 31.5167 89.0625 33.1562 89.0625Z" fill="#40403B"/>
</g>
<g id="Group_3">
<path id="Vector_8" d="M63.6353 37.4062L51.9583 49.2812L40.0833 37.4062L24.052 53.2396L28.4062 57.5938L40.0833 45.7188L51.9583 57.5938L67.9895 41.7604L63.6353 37.4062Z" fill="#E48100"/>
<path id="Vector_9" d="M71.7499 47.5002L57.8958 33.646H71.7499V47.5002Z" fill="#E48100"/>
</g>
</g>
</svg>
