<svg width="58" height="51" viewBox="0 0 58 51" fill="none" xmlns="http://www.w3.org/2000/svg">
<g id="Logo">
<path id="Vector" d="M48.3086 0.0598998C48.9259 0.0541327 49.5485 0.0483657 50.1867 0.0425987C54.7222 0.0829678 54.7222 0.0829678 56.2968 1.41515C57.6099 3.3298 57.4948 5.25599 57.4634 7.55703C57.4843 8.2087 57.4843 8.2087 57.5 8.87191C57.4948 11.2825 57.3378 12.2514 55.9672 14.2352C54.1729 15.6828 53.0639 15.6136 50.8929 15.3771C50.9766 15.9365 51.0603 16.4959 51.1492 17.0726C51.4683 19.5755 51.5102 22.0438 51.5102 24.5697C51.5206 25.008 51.5259 25.4463 51.5311 25.8962C51.5416 28.9181 51.1283 31.5017 50.3698 34.4083C51.9025 34.5236 51.9025 34.5236 53.4353 34.6332C55.0727 35.1522 55.6534 35.752 56.6473 37.2918C56.9926 39.0161 57.0083 40.6886 57.003 42.4475C57.0396 43.1395 57.0396 43.1395 57.071 43.8431C57.0815 45.7289 57.0449 47.1015 55.9777 48.6298C53.5399 50.827 51.0708 51.0173 48.0157 50.9539C47.5867 50.9712 47.163 50.9885 46.7183 51C43.8882 50.9885 42.1096 50.3541 40.0694 48.1453C38.8819 46.3287 38.7616 44.639 38.7302 42.4475C38.6988 42.0496 38.6674 41.6459 38.636 41.2364C38.5523 39.0738 38.7982 37.9665 39.9124 36.1788C41.4766 34.985 41.4766 34.985 45.6616 34.4083C45.6616 28.128 45.6616 21.8477 45.6616 15.3771C44.2806 15.3771 42.8995 15.3771 41.4766 15.3771C39.9281 14.2237 39.9281 14.2237 38.861 12.4936C38.5942 10.8154 38.4895 9.54665 38.5314 7.87998C38.5209 7.47629 38.5105 7.07836 38.5 6.66314C38.5209 4.62738 38.8348 3.3125 39.7607 1.55933C42.4862 -0.30919 45.1699 -0.00930449 48.3086 0.0598998Z" fill="#E48100"/>
<path id="Vector_2" d="M42.5953 24.0002C43.1331 24.2898 43.1331 24.2898 43.6818 24.5794C43.6818 27.8284 43.6818 31.0774 43.6818 34.4249C42.6062 34.4249 40.4222 35.0041 40.4222 35.0041C40.4222 35.0041 39.7039 35.2643 39.3357 35.5832C38.9241 35.9398 38.8055 36.0803 38.5208 36.4519C37.3182 38.0218 37.4397 39.7646 37.3311 41.4847C37.2985 42.006 37.2604 42.5272 37.2224 43.0658C37.1952 43.6623 37.1952 43.6623 37.1626 44.2704C34.7723 43.4364 33.3326 42.8689 32.0342 40.506C31.1867 38.4789 31.1867 38.4789 31.1867 36.7415C30.5837 36.9326 29.9753 37.1237 29.3505 37.3206C26.0149 38.2125 22.5543 38.3342 19.2349 37.3206C19.2132 37.7724 19.1915 38.2299 19.1697 38.699C18.5015 41.6411 17.214 44.2241 15.4321 46.587C13.7208 47.3631 11.8791 47.282 10.032 47.3109C9.47789 47.3283 8.92376 47.3399 8.35333 47.3573C5.88148 47.0677 4.49615 45.9789 2.83376 44.0503C0.405373 40.3033 0.193501 36.5562 0.763928 32.1083C1.55166 29.3921 2.45891 27.5157 4.56678 25.7377C7.78291 24.9095 12.3355 24.2087 15.4321 25.7377C16.3556 27.0176 16.3556 27.0176 17.1977 28.5987C17.4802 29.1141 17.7627 29.6353 18.056 30.1682C18.6917 31.5292 18.6917 31.5292 18.6917 32.6875C19.1371 32.5948 19.5772 32.4963 20.039 32.3979C22.2174 32.0678 24.3036 32.0446 26.5038 32.0736C26.9004 32.0736 27.3024 32.0794 27.7153 32.0794C28.6877 32.0851 29.6656 32.0967 30.6435 32.1083C30.7141 31.5871 30.7902 31.0658 30.8608 30.5272C32.132 23.1083 36.4292 23.2937 42.5953 24.0002Z" fill="#E48100"/>
</g>
</svg>
