<svg width="25" height="25" viewBox="0 0 25 25" fill="none" xmlns="http://www.w3.org/2000/svg">
<g id="save" clip-path="url(#clip0_425_4389)">
<path id="Vector" d="M17.5 3.5H5.5C4.39 3.5 3.5 4.4 3.5 5.5V19.5C3.5 20.6 4.39 21.5 5.5 21.5H19.5C20.6 21.5 21.5 20.6 21.5 19.5V7.5L17.5 3.5ZM19.5 19.5H5.5V5.5H16.67L19.5 8.33V19.5ZM12.5 12.5C10.84 12.5 9.5 13.84 9.5 15.5C9.5 17.16 10.84 18.5 12.5 18.5C14.16 18.5 15.5 17.16 15.5 15.5C15.5 13.84 14.16 12.5 12.5 12.5ZM6.5 6.5H15.5V10.5H6.5V6.5Z" fill="white"/>
</g>
<defs>
<clipPath id="clip0_425_4389">
<rect width="24" height="24" fill="white" transform="translate(0.5 0.5)"/>
</clipPath>
</defs>
</svg>
