<svg width="48" height="48" viewBox="0 0 48 48" fill="none" xmlns="http://www.w3.org/2000/svg">
<g id="data_usage" clip-path="url(#clip0_341_2639)">
<path id="Vector" d="M26 4.09961V10.1596C32.78 11.1396 38 16.9396 38 23.9996C38 25.7996 37.64 27.4996 37.04 29.0796L42.24 32.1396C43.36 29.6596 44 26.8996 44 23.9996C44 13.6396 36.1 5.09961 26 4.09961ZM24 37.9996C16.26 37.9996 10 31.7396 10 23.9996C10 16.9396 15.22 11.1396 22 10.1596V4.09961C11.88 5.09961 4 13.6196 4 23.9996C4 35.0396 12.94 43.9996 23.98 43.9996C30.6 43.9996 36.46 40.7796 40.1 35.8196L34.9 32.7596C32.34 35.9596 28.42 37.9996 24 37.9996Z" fill="#E6AD00"/>
</g>
<defs>
<clipPath id="clip0_341_2639">
<rect width="48" height="48" fill="white"/>
</clipPath>
</defs>
</svg>
