<svg width="48" height="48" viewBox="0 0 48 48" fill="none" xmlns="http://www.w3.org/2000/svg">
<g id="directions_walk" clip-path="url(#clip0_422_2572)">
<path id="Vector" d="M27 11C29.2 11 31 9.2 31 7C31 4.8 29.2 3 27 3C24.8 3 23 4.8 23 7C23 9.2 24.8 11 27 11ZM19.6 17.8L14 46H18.2L21.8 30L26 34V46H30V31L25.8 27L27 21C29.6 24 33.6 26 38 26V22C34.2 22 31 20 29.4 17.2L27.4 14C26.28 12.22 24.04 11.5 22.1 12.32L12 16.6V26H16V19.2L19.6 17.8Z" fill="#E48100"/>
</g>
<defs>
<clipPath id="clip0_422_2572">
<rect width="48" height="48" fill="white"/>
</clipPath>
</defs>
</svg>
