<svg width="48" height="49" viewBox="0 0 48 49" fill="none" xmlns="http://www.w3.org/2000/svg">
<path id="Vector" d="M43.586 26.2524C45.1818 24.6588 46.3989 22.7269 47.1473 20.5995C47.8958 18.4721 48.1564 16.2036 47.9098 13.9619C47.6633 11.7203 46.916 9.56266 45.7232 7.64874C44.5303 5.73482 42.9225 4.11355 41.0185 2.90484C36.1955 -0.286551 29.7407 -0.310546 24.8696 2.83285C20.6464 5.54433 18.3189 9.76752 17.911 14.1347C17.599 17.3021 16.3993 20.2535 14.1917 22.4611L14.1197 22.5331C11.3362 25.3165 11.3362 29.5637 13.9517 32.1552L16.3273 34.5308C17.5844 35.7871 19.289 36.4929 21.0664 36.4929C22.8437 36.4929 24.5483 35.7871 25.8054 34.5308C28.133 32.2032 31.2044 30.9315 34.5398 30.5715C37.8271 30.2116 41.0425 28.7719 43.586 26.2524ZM10.2324 43.3611C10.8803 44.7048 10.6643 46.3365 9.53656 47.4403C9.04812 47.9361 8.42559 48.2786 7.74533 48.4257C7.06507 48.5728 6.35665 48.5182 5.70699 48.2685C5.05733 48.0189 4.49466 47.585 4.08801 47.0202C3.68136 46.4553 3.44841 45.7841 3.41774 45.0888C2.72242 45.0581 2.05118 44.8251 1.48635 44.4185C0.921513 44.0118 0.487649 43.4492 0.237974 42.7995C-0.0117006 42.1498 -0.0663291 41.4414 0.0807894 40.7612C0.227908 40.0809 0.570376 39.4584 1.06619 38.9699C2.16997 37.8661 3.82566 37.6262 5.1454 38.2741L11.0963 32.4432C11.4322 32.8991 11.8161 33.427 12.248 33.8589L14.6236 36.2345C15.1275 36.7144 15.6074 37.1223 16.2313 37.4822L10.2324 43.3611Z" fill="#E48100"/>
</svg>
