<svg width="96" height="101" viewBox="0 0 96 101" fill="none" xmlns="http://www.w3.org/2000/svg">
<g id="Frame">
<g id="Group">
<g id="Group_2">
<g id="Group_3">
<path id="Vector" d="M47.1409 70.3193C42.2547 69.5094 37.3566 48.1685 46.0734 39.3389C49.7108 35.6545 53.881 36.0104 56.8092 30.9384C59.422 26.4127 57.2565 24.1294 59.266 18.8876C62.0915 11.5175 70.6932 4.76289 76.777 6.7852C79.8293 7.79972 82.7419 11.188 82.9249 15.1192C83.0714 18.2678 79.9431 20.7398 80.6767 21.5345C81.279 22.1871 83.173 20.498 84.3614 21.1567C86.1137 22.128 86.1407 28.1004 83.382 32.4894C78.6592 40.0033 68.7762 38.0988 67.0632 43.8913C65.9713 47.5834 69.6125 49.6216 68.1084 53.3411C66.785 56.6135 63.3626 56.5281 58.2282 59.7993C50.1852 64.9232 49.7608 70.7535 47.1409 70.3193Z" fill="url(#paint0_linear_881_6481)"/>
<g id="Clip path group">
<mask id="mask0_881_6481" style="mask-type:luminance" maskUnits="userSpaceOnUse" x="41" y="6" width="45" height="65">
<g id="SVGID_3_">
<path id="Vector_2" d="M47.1409 70.3193C42.2547 69.5094 37.3566 48.1685 46.0734 39.3389C49.7108 35.6545 53.881 36.0104 56.8092 30.9384C59.422 26.4127 57.2565 24.1294 59.266 18.8876C62.0915 11.5175 70.6932 4.76289 76.777 6.7852C79.8293 7.79972 82.7419 11.188 82.9249 15.1192C83.0714 18.2678 79.9431 20.7398 80.6767 21.5345C81.279 22.1871 83.173 20.498 84.3614 21.1567C86.1137 22.128 86.1407 28.1004 83.382 32.4894C78.6592 40.0033 68.7762 38.0988 67.0632 43.8913C65.9713 47.5834 69.6125 49.6216 68.1084 53.3411C66.785 56.6135 63.3626 56.5281 58.2282 59.7993C50.1852 64.9232 49.7608 70.7535 47.1409 70.3193Z" fill="white"/>
</g>
</mask>
<g mask="url(#mask0_881_6481)">
<g id="Group_4" opacity="0.5">
<path id="Vector_3" d="M47.4182 74.8318C47.3149 74.8386 47.2139 74.7792 47.1731 74.6779C47.1369 74.5891 47.1562 74.4912 47.2149 74.4233C47.249 74.2778 47.2575 73.7836 47.2672 73.2167C47.3223 70.0273 47.4685 61.5545 51.9942 49.0304C57.686 33.2791 68.101 17.0365 82.9499 0.753754C83.0421 0.652807 83.1988 0.645717 83.2994 0.737548C83.4003 0.829717 83.4074 0.986032 83.3156 1.08698C67.362 18.5807 48.244 45.2968 47.7619 73.2251C47.7399 74.4885 47.7362 74.7164 47.4951 74.814C47.4698 74.8244 47.4438 74.8302 47.4182 74.8318Z" fill="white"/>
<path id="Vector_4" d="M60.2418 32.8283C60.1115 32.8367 59.9957 32.7415 59.9805 32.6102C59.9646 32.4745 60.0615 32.3516 60.1972 32.3357C71.3678 31.0234 78.3409 28.6824 82.2234 26.9501C86.4277 25.074 88.0122 23.4885 88.0277 23.4727C88.1229 23.3754 88.2795 23.3738 88.3774 23.4693C88.475 23.5648 88.4767 23.7212 88.3815 23.8187C88.3163 23.8852 86.7414 25.4697 82.4712 27.3812C78.5539 29.1351 71.5194 31.5035 60.2546 32.8269C60.2506 32.8276 60.2462 32.8279 60.2418 32.8283Z" fill="white"/>
<path id="Vector_5" d="M66.6007 22.015C66.5497 22.0184 66.4977 22.0059 66.4515 21.9762C63.8616 20.3148 62.6972 16.385 62.9906 10.2961C63.2067 5.80791 64.1793 1.74237 64.1891 1.70186C64.2212 1.56884 64.3549 1.48714 64.4876 1.51955C64.6203 1.55162 64.702 1.68531 64.6699 1.818C64.6314 1.97769 60.8836 17.8168 66.7185 21.5599C66.8333 21.6335 66.8671 21.7868 66.7931 21.9019C66.7489 21.9705 66.6763 22.01 66.6007 22.015Z" fill="white"/>
<path id="Vector_6" d="M51.2771 52.173C51.2052 52.1777 51.1319 52.1511 51.0793 52.094C47.7798 48.5204 46.9469 43.3758 46.829 39.6894C46.7021 35.7116 47.3584 32.5256 47.3652 32.4939C47.3932 32.3602 47.5242 32.2744 47.6579 32.3024C47.7916 32.3304 47.8773 32.4614 47.8493 32.5951C47.8429 32.6262 47.1974 35.764 47.324 39.685C47.4401 43.2836 48.249 48.2992 51.4425 51.7584C51.5354 51.8587 51.529 52.0153 51.4287 52.1082C51.3855 52.1477 51.3314 52.1693 51.2771 52.173Z" fill="white"/>
</g>
</g>
</g>
</g>
</g>
<g id="Group_5">
<g id="Group_6">
<path id="Vector_7" d="M47.9387 75.2985C48.1102 65.372 50.0225 58.0765 51.6602 53.4042C52.9459 49.7364 55.1117 44.6928 57.9395 44.629C59.2943 44.5983 59.8102 45.7337 61.2383 45.6395C63.9348 45.4619 64.8093 41.2357 67.0902 38.5287C70.9916 33.8976 80.7213 31.6788 86.3297 36.1823C93.0834 41.6057 91.0496 54.519 86.0951 57.5333C83.1596 59.3192 78.9647 57.7719 78.3523 59.4104C77.7361 61.0593 81.8645 62.9486 81.5599 65.7447C81.2446 68.6394 76.4238 70.2515 76.1325 70.3453C70.3066 72.2245 66.9538 68.189 60.9902 68.3261C57.7545 68.4004 53.2676 69.7137 47.9387 75.2985Z" fill="url(#paint1_linear_881_6481)"/>
<g id="Clip path group_2">
<mask id="mask1_881_6481" style="mask-type:luminance" maskUnits="userSpaceOnUse" x="47" y="33" width="44" height="43">
<g id="SVGID_6_">
<path id="Vector_8" d="M47.9387 75.2985C48.1102 65.372 50.0225 58.0765 51.6602 53.4042C52.9459 49.7364 55.1117 44.6928 57.9395 44.629C59.2943 44.5983 59.8102 45.7337 61.2383 45.6395C63.9348 45.4619 64.8093 41.2357 67.0902 38.5287C70.9916 33.8976 80.7213 31.6788 86.3297 36.1823C93.0834 41.6057 91.0496 54.519 86.0951 57.5333C83.1596 59.3192 78.9647 57.7719 78.3523 59.4104C77.7361 61.0593 81.8645 62.9486 81.5599 65.7447C81.2446 68.6394 76.4238 70.2515 76.1325 70.3453C70.3066 72.2245 66.9538 68.189 60.9902 68.3261C57.7545 68.4004 53.2676 69.7137 47.9387 75.2985Z" fill="white"/>
</g>
</mask>
<g mask="url(#mask1_881_6481)">
<g id="Group_7">
<g id="Group_8">
<path id="Vector_9" d="M45.1622 82.7389L45.3084 82.7774C51.219 60.2498 69.8546 43.6702 95.1587 38.4268L95.128 38.2786C83.1356 40.7637 72.2314 46.0072 63.5939 53.4425C54.5134 61.2592 48.14 71.3897 45.1622 82.7389Z" fill="#FCFDFE"/>
<path id="Vector_10" d="M45.5519 48.2372C48.6832 53.7845 50.7167 63.7023 50.0847 70.3451L50.2353 70.3593C50.87 63.6901 48.8281 53.7329 45.6839 48.1626L45.5519 48.2372Z" fill="#FCFDFE"/>
<path id="Vector_11" d="M46.3733 78.33L46.5033 78.4073C48.2788 75.4275 51.4929 73.4599 56.0554 72.5591C59.4008 71.8984 63.3802 71.8164 67.8833 72.3147L67.8999 72.1645C63.3816 71.6645 59.3866 71.7472 56.026 72.4106C51.4193 73.3201 48.1718 75.3117 46.3733 78.33Z" fill="#FCFDFE"/>
<path id="Vector_12" d="M64.861 52.4347L64.9869 52.5188C68.6226 47.0744 68.5126 40.1908 67.7803 35.3748L67.6307 35.3974C68.359 40.1871 68.47 47.0305 64.861 52.4347Z" fill="#FCFDFE"/>
<path id="Vector_13" d="M77.4452 44.2961L77.4854 44.442C84.5952 42.4801 91.7799 45.363 95.4302 47.256L95.4997 47.1216C91.8302 45.2185 84.605 42.3204 77.4452 44.2961Z" fill="#FCFDFE"/>
</g>
</g>
</g>
</g>
</g>
</g>
<g id="Group_9">
<path id="Vector_14" d="M50.7295 33.572C50.4077 33.572 50.1329 33.3094 50.1018 32.9586C49.5492 26.7303 47.6585 20.8126 44.778 16.2953C42.2263 12.2936 39.1885 9.90532 36.6503 9.90532C36.6473 9.90532 36.6449 9.90532 36.6419 9.90532C27.397 9.92457 25.4632 32.7219 25.4449 32.9522C25.4149 33.3252 25.1107 33.6014 24.7619 33.5697C24.4145 33.5376 24.1573 33.2091 24.1873 32.8364C24.2667 31.8455 26.2457 8.57141 36.6395 8.5498C36.6432 8.5498 36.6469 8.5498 36.6507 8.5498C39.6497 8.5498 42.9907 11.093 45.8196 15.5293C48.8186 20.2329 50.7859 26.3771 51.3584 32.8299C51.3915 33.2027 51.137 33.5335 50.7899 33.5693C50.77 33.571 50.7497 33.572 50.7295 33.572Z" fill="url(#paint2_linear_881_6481)"/>
<path id="Vector_15" d="M12.2159 80.4904L24.3855 87.108L31.759 62.8049L19.6093 30.2231L16.1643 31.1303L10.937 77.9235C10.8185 78.9829 11.3296 80.0086 12.2159 80.4904Z" fill="url(#paint3_linear_881_6481)"/>
<path id="Vector_16" opacity="0.3" d="M31.7589 62.8049L19.6093 30.2231L17.5772 30.7583C17.2952 35.1084 17.4192 38.6888 17.6106 41.2955C18.4249 52.3885 21.1299 55.4756 19.8196 63.2144C18.7301 69.649 16.3506 70.5224 16.5586 74.8516C16.7851 79.5667 19.8469 83.5151 23.4871 86.6198L24.3851 87.108L31.7589 62.8049Z" fill="url(#paint4_linear_881_6481)"/>
<path id="Vector_17" d="M19.6093 30.2231L65.4382 32.7181L80.0025 82.2946L24.3855 87.108L19.6093 30.2231Z" fill="url(#paint5_linear_881_6481)"/>
<g id="Group_10" opacity="0.3">
<path id="Vector_18" d="M65.4383 32.7182L41.5383 31.417C41.1352 32.051 40.6008 33.0841 40.5012 34.4022C39.9127 42.1966 55.9959 44.72 57.4372 54.2873C58.5341 61.5713 51.7839 69.9758 45.7608 73.7203C39.4151 77.6653 35.1152 75.6676 30.8235 80.0475C28.9379 81.9719 27.7893 84.3784 27.1067 86.8727L80.0026 82.295L65.4383 32.7182Z" fill="url(#paint6_linear_881_6481)"/>
</g>
<path id="Vector_19" d="M33.6661 34.6861C33.3799 34.6861 33.1206 34.4751 33.052 34.1628C32.9231 33.5723 29.9419 19.6194 34.1456 12.7719C35.3505 10.8094 37.0338 9.6112 39.1486 9.21045C50.0154 7.15405 56.7056 32.2218 56.9851 33.29C57.0793 33.6506 56.8838 34.0247 56.5482 34.126C56.2123 34.2276 55.8642 34.0169 55.7697 33.6567C55.7042 33.4072 49.1184 8.69627 39.3678 10.5454C37.5831 10.8833 36.2199 11.8557 35.1992 13.5177C31.2917 19.8831 34.2506 33.7138 34.2809 33.8528C34.3606 34.2171 34.1499 34.5821 33.8106 34.6675C33.7624 34.6803 33.7138 34.6861 33.6661 34.6861Z" fill="url(#paint7_linear_881_6481)"/>
<path id="Vector_20" d="M33.6705 36.6832C34.6448 36.6832 35.4346 35.8349 35.4346 34.7885C35.4346 33.7421 34.6448 32.8938 33.6705 32.8938C32.6963 32.8938 31.9065 33.7421 31.9065 34.7885C31.9065 35.8349 32.6963 36.6832 33.6705 36.6832Z" fill="url(#paint8_linear_881_6481)"/>
<path id="Vector_21" d="M56.6738 36.5071C57.6481 36.5071 58.4378 35.6589 58.4378 34.6125C58.4378 33.5661 57.6481 32.7178 56.6738 32.7178C55.6996 32.7178 54.9098 33.5661 54.9098 34.6125C54.9098 35.6589 55.6996 36.5071 56.6738 36.5071Z" fill="url(#paint9_linear_881_6481)"/>
<path id="Vector_22" d="M68.9457 56.574L54.7173 42.6998C54.4175 42.4074 53.9881 42.3253 53.6127 42.4894L46.0194 45.8044C45.3796 46.0837 45.1588 46.9378 45.5734 47.5313L57.9658 65.2743C58.3085 65.7648 58.9524 65.8729 59.4179 65.518L68.8471 58.334C69.3961 57.916 69.444 57.0598 68.9457 56.574ZM52.6751 47.5773C52.1957 47.9233 51.4401 47.6178 50.9874 46.8946C50.5346 46.1714 50.5562 45.3044 51.036 44.9584C51.5154 44.6123 52.271 44.9179 52.7237 45.641C53.1765 46.3639 53.1549 47.2309 52.6751 47.5773Z" fill="#D8DEE8"/>
<path id="Vector_23" d="M68.9457 56.3845L54.7173 42.5103C54.4175 42.2179 53.9881 42.1359 53.6127 42.3L46.0194 45.615C45.3796 45.8942 45.1588 46.7484 45.5734 47.3419L57.9658 65.0848C58.3085 65.5754 58.9524 65.6834 59.4179 65.3286L68.8471 58.1445C69.3961 57.7265 69.444 56.8703 68.9457 56.3845ZM52.6751 47.3878C52.1957 47.7339 51.4401 47.4283 50.9874 46.7051C50.5346 45.982 50.5562 45.115 51.036 44.7689C51.5154 44.4229 52.271 44.7284 52.7237 45.4516C53.1765 46.1748 53.1549 47.0414 52.6751 47.3878Z" fill="#F4F7FA"/>
<g id="Group_11">
<path id="Vector_24" d="M49.7183 43.9803C49.6727 43.9803 49.6295 43.9536 49.6109 43.909C49.118 42.747 48.4533 41.7432 47.6349 40.9259C45.3928 38.6858 42.4974 38.3337 39.6976 37.993C36.9113 37.6541 34.2796 37.334 32.7077 35.1166C32.3096 34.5554 31.6914 33.5409 32.0233 33.0527C32.1563 32.8569 32.422 32.7668 32.812 32.7853C32.8765 32.7884 32.9261 32.8431 32.9231 32.9076C32.92 32.972 32.866 33.0227 32.8008 33.0186C32.5919 33.0088 32.3211 33.0294 32.2161 33.1841C32.0399 33.4433 32.3076 34.149 32.8981 34.9815C34.4102 37.1146 36.9923 37.4285 39.7256 37.7611C42.565 38.1065 45.5008 38.4637 47.8 40.7604C48.6396 41.5994 49.3213 42.6278 49.826 43.8175C49.8513 43.877 49.8236 43.9455 49.7642 43.9705C49.7487 43.9776 49.7335 43.9803 49.7183 43.9803Z" fill="#26264F"/>
</g>
<g id="Group_12">
<path id="Vector_25" d="M50.9334 46.3285C50.9033 46.3285 50.8733 46.317 50.8507 46.2941C50.8051 46.2485 50.8054 46.1746 50.851 46.129C50.8608 46.1192 51.8351 45.1334 51.8304 43.8184C51.8274 43.0108 51.4601 42.2417 50.7382 41.5327C49.2075 40.0297 45.1464 38.2889 41.5633 36.7528C39.3762 35.8152 37.3107 34.9297 35.9542 34.1663C35.6466 33.9931 35.3211 33.8287 34.9869 33.6778C34.9281 33.6511 34.9022 33.5823 34.9285 33.5235C34.9552 33.4648 35.024 33.4388 35.0831 33.4651C35.4234 33.6191 35.755 33.7865 36.0686 33.9631C37.4143 34.7204 39.4741 35.6036 41.6554 36.5384C45.2574 38.0823 49.3402 39.8325 50.902 41.3663C51.6707 42.1212 52.0617 42.9466 52.0641 43.8197C52.0681 45.2333 51.059 46.2519 51.0158 46.2944C50.9931 46.317 50.9631 46.3285 50.9334 46.3285Z" fill="#26264F"/>
</g>
<path id="Vector_26" d="M68.9457 56.3846L54.7173 42.5104C54.4175 42.218 53.9881 42.1363 53.6126 42.3001L52.9364 42.5951C53.1133 43.24 53.378 43.9655 53.7818 44.7062C55.8834 48.5601 59.3318 48.394 60.1286 51.0686C60.8345 53.4389 58.4662 54.7107 58.1542 58.0369C57.9982 59.699 58.3544 61.9097 60.2616 64.6865L68.8474 58.1453C69.3961 57.7266 69.444 56.8704 68.9457 56.3846Z" fill="white"/>
<path id="Vector_27" d="M58.085 61.4684C57.8943 61.4684 57.7082 61.3648 57.6022 61.1767C57.4405 60.8908 57.5256 60.518 57.7916 60.3442L64.6435 55.8765C64.9099 55.703 65.2569 55.7942 65.4186 56.0801C65.5804 56.3661 65.4953 56.7388 65.2292 56.9127L58.3774 61.3803C58.2856 61.4401 58.1846 61.4684 58.085 61.4684Z" fill="#D8DEE8"/>
</g>
<g id="Group_13">
<path id="Vector_28" d="M53.9081 87.6011L71.4775 88.8368V63.1042L53.9081 64.3399V87.6011Z" fill="url(#paint10_linear_881_6481)"/>
<path id="Vector_29" d="M71.4775 88.8368L84.6738 87.0758V64.7471L71.4775 63.1042V88.8368Z" fill="url(#paint11_linear_881_6481)"/>
<path id="Vector_30" d="M65.2579 63.5415V73.9829H59.371V63.9558L65.2579 63.5415Z" fill="white"/>
<g id="Group_14" opacity="0.71">
<path id="Vector_31" d="M78.8618 76.4284C78.2636 73.2339 75.9938 71.6262 75.5684 67.4198C75.435 66.1004 75.5144 64.8327 75.7372 63.6345L84.6742 64.747V87.076L73.75 88.5338C78.6116 83.1367 79.3848 79.2215 78.8618 76.4284Z" fill="white"/>
</g>
</g>
</g>
</g>
<defs>
<linearGradient id="paint0_linear_881_6481" x1="72.6988" y1="14.0485" x2="50.0571" y2="72.5882" gradientUnits="userSpaceOnUse">
<stop stop-color="#AA80F9"/>
<stop offset="0.9964" stop-color="#6165D7"/>
</linearGradient>
<linearGradient id="paint1_linear_881_6481" x1="76.1483" y1="47.7576" x2="53.3894" y2="73.2147" gradientUnits="userSpaceOnUse">
<stop offset="0.00359712" stop-color="#E38DDD"/>
<stop offset="1" stop-color="#9571F6"/>
</linearGradient>
<linearGradient id="paint2_linear_881_6481" x1="13.2491" y1="22.3812" x2="35.5302" y2="21.4125" gradientUnits="userSpaceOnUse">
<stop stop-color="#AB316D"/>
<stop offset="1" stop-color="#792D3D"/>
</linearGradient>
<linearGradient id="paint3_linear_881_6481" x1="10.9201" y1="58.6655" x2="31.759" y2="58.6655" gradientUnits="userSpaceOnUse">
<stop stop-color="#FF9085"/>
<stop offset="1" stop-color="#FB6FBB"/>
</linearGradient>
<linearGradient id="paint4_linear_881_6481" x1="16.546" y1="58.6655" x2="31.759" y2="58.6655" gradientUnits="userSpaceOnUse">
<stop stop-color="#FF9085"/>
<stop offset="1" stop-color="#FB6FBB"/>
</linearGradient>
<linearGradient id="paint5_linear_881_6481" x1="42.0802" y1="55.142" x2="78.4714" y2="116.456" gradientUnits="userSpaceOnUse">
<stop stop-color="#FF9085"/>
<stop offset="1" stop-color="#FB6FBB"/>
</linearGradient>
<linearGradient id="paint6_linear_881_6481" x1="41.9742" y1="49.7006" x2="71.4348" y2="118.888" gradientUnits="userSpaceOnUse">
<stop stop-color="#FF9085"/>
<stop offset="1" stop-color="#FB6FBB"/>
</linearGradient>
<linearGradient id="paint7_linear_881_6481" x1="47.4091" y1="2.18748" x2="37.7221" y2="84.8733" gradientUnits="userSpaceOnUse">
<stop stop-color="#AB316D"/>
<stop offset="1" stop-color="#792D3D"/>
</linearGradient>
<linearGradient id="paint8_linear_881_6481" x1="52.5081" y1="-1.04871" x2="24.4802" y2="52.2727" gradientUnits="userSpaceOnUse">
<stop stop-color="#AB316D"/>
<stop offset="1" stop-color="#792D3D"/>
</linearGradient>
<linearGradient id="paint9_linear_881_6481" x1="70.1688" y1="8.93927" x2="42.1409" y2="62.2605" gradientUnits="userSpaceOnUse">
<stop stop-color="#AB316D"/>
<stop offset="1" stop-color="#792D3D"/>
</linearGradient>
<linearGradient id="paint10_linear_881_6481" x1="56.3648" y1="64.6654" x2="73.34" y2="93.3347" gradientUnits="userSpaceOnUse">
<stop stop-color="#FFC444"/>
<stop offset="0.3138" stop-color="#FBA94A"/>
<stop offset="0.9964" stop-color="#F36F56"/>
</linearGradient>
<linearGradient id="paint11_linear_881_6481" x1="71.0729" y1="64.965" x2="86.5332" y2="91.0758" gradientUnits="userSpaceOnUse">
<stop stop-color="#FFC444"/>
<stop offset="0.3138" stop-color="#FBA94A"/>
<stop offset="0.9964" stop-color="#F36F56"/>
</linearGradient>
</defs>
</svg>
