<svg width="96" height="78" viewBox="0 0 96 78" fill="none" xmlns="http://www.w3.org/2000/svg">
<g id="Frame" clip-path="url(#clip0_881_6398)">
<path id="Floor_1_" d="M48 77.412C74.2335 77.412 95.5 64.9185 95.5 49.507C95.5 34.0955 74.2335 21.6021 48 21.6021C21.7665 21.6021 0.5 34.0955 0.5 49.507C0.5 64.9185 21.7665 77.412 48 77.412Z" fill="#F5F5F5"/>
<g id="Water_2_">
<g id="XMLID_18_">
<path id="Vector" d="M79.2054 30.2445C78.9457 29.0825 78.3473 27.8393 77.8533 26.7539C77.7953 26.6263 77.7327 26.5011 77.67 26.3735C76.5892 24.2397 76.5962 21.7163 77.7675 19.6312C77.8069 19.5593 77.8486 19.4874 77.8857 19.4155C78.614 18.0912 78.9294 16.9547 78.9318 15.4471C78.9364 14.2967 78.1826 12.5781 76.6658 11.6945C76.3364 11.4996 75.9839 11.3303 75.6151 11.1842C74.9332 10.9082 74.4717 10.2588 74.4763 9.51892L74.4833 7.46399L67.9057 7.43848L67.8987 9.49341C67.8964 10.2333 67.4302 10.878 66.746 11.1494C66.3749 11.2932 66.02 11.4602 65.6907 11.6527C64.1669 12.5225 63.4015 14.2364 63.3969 15.3868C63.3876 16.8944 63.6914 18.0332 64.4104 19.3645C64.4475 19.4317 64.4846 19.499 64.5218 19.5663C65.6814 21.6629 65.6721 24.1933 64.5774 26.3248C64.5125 26.4524 64.4498 26.5776 64.3919 26.7052C63.8886 27.786 63.2786 29.0245 63.0119 30.1842C62.7567 31.3114 62.6941 32.5197 62.6895 33.7235L62.6524 43.2954C62.6477 44.5385 63.4618 45.7817 65.0969 46.7349C66.4329 47.5119 68.1144 47.9781 69.8516 48.1242C70.6401 48.1915 71.4426 48.1961 72.2266 48.1335C73.9614 47.992 75.6267 47.5444 76.9603 46.7813C78.6024 45.842 79.4258 44.6058 79.4304 43.3673L79.4583 36.4441C79.4606 35.5813 79.4954 34.679 79.5 33.7791C79.5 32.5731 79.4536 31.367 79.2054 30.2445Z" fill="#E48100"/>
<path id="Vector_2" opacity="0.3" d="M79.2054 30.2445C78.9457 29.0825 78.3473 27.8393 77.8533 26.7539C77.7953 26.6263 77.7327 26.5011 77.67 26.3735C76.5892 24.2397 76.5962 21.7163 77.7675 19.6312C77.8069 19.5593 77.8486 19.4874 77.8857 19.4155C78.614 18.0912 78.9294 16.9547 78.9318 15.4471C78.9364 14.2967 78.1826 12.5781 76.6658 11.6945C76.3364 11.4996 75.9839 11.3303 75.6151 11.1842C74.9332 10.9082 74.4717 10.2588 74.4763 9.51892L74.4833 7.46399L67.9057 7.43848L67.8987 9.49341C67.8964 10.2333 67.4302 10.878 66.746 11.1494C66.3749 11.2932 66.02 11.4602 65.6907 11.6527C64.1669 12.5225 63.4015 14.2364 63.3969 15.3868C63.3876 16.8944 63.6914 18.0332 64.4104 19.3645C64.4475 19.4317 64.4846 19.499 64.5218 19.5663C65.6814 21.6629 65.6721 24.1933 64.5774 26.3248C64.5125 26.4524 64.4498 26.5776 64.3919 26.7052C63.8886 27.786 63.2786 29.0245 63.0119 30.1842C62.7567 31.3114 62.6941 32.5197 62.6895 33.7235L62.6524 43.2954C62.6477 44.5385 63.4618 45.7817 65.0969 46.7349C66.4329 47.5119 68.1144 47.9781 69.8516 48.1242C70.6401 48.1915 71.4426 48.1961 72.2266 48.1335C73.9614 47.992 75.6267 47.5444 76.9603 46.7813C78.6024 45.842 79.4258 44.6058 79.4304 43.3673L79.4583 36.4441C79.4606 35.5813 79.4954 34.679 79.5 33.7791C79.5 32.5731 79.4536 31.367 79.2054 30.2445Z" fill="black"/>
<path id="Vector_3" opacity="0.1" d="M77.7679 19.6307C77.8073 19.5588 77.8491 19.4869 77.8862 19.415C78.5124 18.2762 78.8325 17.2743 78.909 16.0566C78.7583 16.5321 78.5449 16.9937 78.2851 17.4158C77.5314 18.6357 76.432 19.6006 75.321 20.5098C74.1938 21.4305 72.9414 22.4766 72.8022 23.9238C72.6677 25.3247 73.6557 26.598 74.7806 27.4469C75.9055 28.2934 77.2206 28.8918 78.2318 29.8706C78.6725 30.2973 79.0389 30.789 79.3775 31.3016C79.3358 30.9444 79.2824 30.5896 79.2059 30.244C78.9461 29.082 78.3478 27.8389 77.8537 26.7534C77.7958 26.6258 77.7331 26.5006 77.6705 26.373C76.5897 24.2392 76.5967 21.7158 77.7679 19.6307Z" fill="black"/>
<g id="Group">
<path id="XMLID_23_" d="M66.7924 9.7329L66.7878 10.8392C66.7808 11.4979 67.2169 12.1636 68.0913 12.6738C69.8308 13.6874 72.658 13.699 74.4114 12.6993C74.8452 12.4488 75.1768 12.1589 75.3948 11.8481C75.6129 11.542 75.7219 11.2126 75.7242 10.881L75.7288 9.75841C75.7288 9.65868 75.7219 9.55895 75.6964 9.45922C75.5897 8.90026 75.1675 8.35521 74.4323 7.92846C74.4114 7.91454 74.3883 7.90294 74.3674 7.89367C72.6186 6.91491 69.8377 6.91723 68.1121 7.90294C67.3723 8.32506 66.9409 8.86547 66.8319 9.41979C66.8017 9.52416 66.7924 9.62853 66.7924 9.7329Z" fill="#E48100"/>
<path id="XMLID_22_" opacity="0.1" d="M66.7924 9.7329L66.7878 10.8392C66.7808 11.4979 67.2169 12.1636 68.0913 12.6738C69.8308 13.6874 72.658 13.699 74.4114 12.6993C74.8452 12.4488 75.1768 12.1589 75.3948 11.8481C75.6129 11.542 75.7219 11.2126 75.7242 10.881L75.7288 9.75841C75.7288 9.65868 75.7219 9.55895 75.6964 9.45922C75.5897 8.90026 75.1675 8.35521 74.4323 7.92846C74.4114 7.91454 74.3883 7.90294 74.3674 7.89367C72.6186 6.91491 69.8377 6.91723 68.1121 7.90294C67.3723 8.32506 66.9409 8.86547 66.8319 9.41979C66.8017 9.52416 66.7924 9.62853 66.7924 9.7329Z" fill="black"/>
<path id="XMLID_21_" opacity="0.2" d="M74.411 11.5767C76.1598 10.5771 76.1668 8.94428 74.4249 7.92841C72.6831 6.91486 69.8559 6.90326 68.1071 7.9029C66.3583 8.90253 66.3513 10.5377 68.0932 11.5512C69.835 12.5648 72.6622 12.5763 74.411 11.5767Z" fill="black"/>
<path id="XMLID_20_" d="M66.7969 8.44057L66.7946 9.10622C66.7946 9.21059 66.8015 9.31496 66.827 9.41933C66.9337 9.97597 67.3605 10.5187 68.0957 10.9478C68.875 11.4024 69.8723 11.6528 70.8859 11.7016C72.1476 11.7665 73.4464 11.5253 74.4159 10.9686C74.8496 10.7182 75.1766 10.4329 75.3993 10.1221C75.5524 9.91103 75.6474 9.68605 75.6915 9.45876C75.717 9.35903 75.7263 9.25466 75.7263 9.15492L75.7286 8.4684C75.7309 7.80507 75.2996 7.14406 74.4298 6.63613C74.3509 6.59206 74.2744 6.54799 74.1909 6.50857C72.4375 5.62026 69.7795 5.65505 68.1096 6.61062C67.2352 7.11623 66.7946 7.77724 66.7969 8.44057Z" fill="#E48100"/>
<path id="XMLID_19_" opacity="0.1" d="M66.7969 8.44057L66.7946 9.10622C66.7946 9.21059 66.8015 9.31496 66.827 9.41933C66.9337 9.97597 67.3605 10.5187 68.0957 10.9478C68.875 11.4024 69.8723 11.6528 70.8859 11.7016C72.1476 11.7665 73.4464 11.5253 74.4159 10.9686C74.8496 10.7182 75.1766 10.4329 75.3993 10.1221C75.5524 9.91103 75.6474 9.68605 75.6915 9.45876C75.717 9.35903 75.7263 9.25466 75.7263 9.15492L75.7286 8.4684C75.7309 7.80507 75.2996 7.14406 74.4298 6.63613C74.3509 6.59206 74.2744 6.54799 74.1909 6.50857C72.4375 5.62026 69.7795 5.65505 68.1096 6.61062C67.2352 7.11623 66.7946 7.77724 66.7969 8.44057Z" fill="black"/>
<path id="Vector_4" d="M66.7969 8.41949C66.7922 9.83892 68.7869 10.9963 71.2546 11.0055C73.7224 11.0148 75.7263 9.87371 75.7309 8.45428C75.7356 7.03484 73.741 5.8775 71.2732 5.86822C68.8077 5.85894 66.8015 7.00005 66.7969 8.41949Z" fill="#E48100"/>
</g>
</g>
<path id="XMLID_17_" d="M69.7259 5.78388L69.7167 8.09626C69.7167 8.13337 69.719 8.16816 69.7283 8.20527C69.7654 8.39777 69.9138 8.58564 70.1689 8.73407C70.438 8.89179 70.7836 8.9776 71.1361 8.99384C71.5745 9.01703 72.0221 8.93354 72.3584 8.74103C72.5091 8.65522 72.6228 8.55549 72.6993 8.4488C72.7527 8.37458 72.7851 8.29804 72.8014 8.21918C72.8107 8.18439 72.813 8.1496 72.813 8.11481L72.8223 5.79316C72.8223 5.56355 72.6738 5.33393 72.3723 5.15766C72.3445 5.14143 72.319 5.12751 72.2888 5.1136C71.6811 4.80513 70.7604 4.81672 70.1805 5.14839C69.879 5.32466 69.7259 5.55427 69.7259 5.78388Z" fill="#E48100"/>
<path id="XMLID_8_" opacity="0.1" d="M69.7259 5.78388L69.7167 8.09626C69.7167 8.13337 69.719 8.16816 69.7283 8.20527C69.7654 8.39777 69.9138 8.58564 70.1689 8.73407C70.438 8.89179 70.7836 8.9776 71.1361 8.99384C71.5745 9.01703 72.0221 8.93354 72.3584 8.74103C72.5091 8.65522 72.6228 8.55549 72.6993 8.4488C72.7527 8.37458 72.7851 8.29804 72.8014 8.21918C72.8107 8.18439 72.813 8.1496 72.813 8.11481L72.8223 5.79316C72.8223 5.56355 72.6738 5.33393 72.3723 5.15766C72.3445 5.14143 72.319 5.12751 72.2888 5.1136C71.6811 4.80513 70.7604 4.81672 70.1805 5.14839C69.879 5.32466 69.7259 5.55427 69.7259 5.78388Z" fill="black"/>
<path id="Vector_5" d="M69.7258 5.77677C69.7235 6.26847 70.4147 6.66972 71.2705 6.67203C72.1263 6.67435 72.8198 6.28007 72.8221 5.78837C72.8245 5.29667 72.1333 4.89543 71.2775 4.89311C70.4216 4.88847 69.7282 5.28507 69.7258 5.77677Z" fill="#E48100"/>
<path id="Vector_6" opacity="0.5" d="M70.7256 5.77942C70.7256 5.95337 70.9714 6.09717 71.2729 6.09717C71.5768 6.09949 71.8226 5.95801 71.8249 5.78406C71.8249 5.61011 71.5791 5.46631 71.2776 5.46631C70.9761 5.46631 70.7256 5.60547 70.7256 5.77942Z" fill="#E48100"/>
<path id="Vector_7" opacity="0.3" d="M70.7256 5.77942C70.7256 5.95337 70.9714 6.09717 71.2729 6.09717C71.5768 6.09949 71.8226 5.95801 71.8249 5.78406C71.8249 5.61011 71.5791 5.46631 71.2776 5.46631C70.9761 5.46631 70.7256 5.60547 70.7256 5.77942Z" fill="black"/>
</g>
<path id="Shadow_2_" d="M76.9345 50.4845C79.309 50.4845 81.2338 49.3727 81.2338 48.0013C81.2338 46.6298 79.309 45.5181 76.9345 45.5181C74.56 45.5181 72.6351 46.6298 72.6351 48.0013C72.6351 49.3727 74.56 50.4845 76.9345 50.4845Z" fill="#E0E0E0"/>
<g id="Plants_2_">
<g id="XMLID_49_">
<path id="XMLID_52_" d="M85.6249 36.049L83.7271 34.9538C83.7271 34.9538 83.2631 30.8914 83.5718 27.745C84.0059 23.3242 86.8615 18.0033 90.2687 19.2539C93.6759 20.5025 88.7075 25.0069 87.6003 28.7567C86.4951 32.5064 85.6249 36.049 85.6249 36.049Z" fill="#E48100"/>
<path id="XMLID_51_" opacity="0.15" d="M85.6249 36.049L83.7271 34.9538C83.7271 34.9538 83.2631 30.8914 83.5718 27.745C84.0059 23.3242 86.8615 18.0033 90.2687 19.2539C93.6759 20.5025 88.7075 25.0069 87.6003 28.7567C86.4951 32.5064 85.6249 36.049 85.6249 36.049Z" fill="black"/>
<path id="XMLID_50_" d="M84.6272 35.5891C84.6292 35.5891 84.6292 35.5891 84.6312 35.5891C84.6949 35.5871 84.7447 35.5334 84.7427 35.4697C84.4102 25.6463 89.299 20.7037 89.3488 20.6559C89.3946 20.6121 89.3946 20.5384 89.3507 20.4926C89.3049 20.4468 89.2333 20.4468 89.1875 20.4906C89.1377 20.5404 84.1752 25.5527 84.5117 35.4756C84.5157 35.5394 84.5655 35.5891 84.6272 35.5891Z" fill="white"/>
</g>
<g id="XMLID_46_">
<path id="XMLID_48_" d="M86.8177 36.7319L85.4676 35.9533C85.4676 35.9533 85.2386 33.1654 86.6046 29.778C87.7955 26.8288 90.7467 24.3834 92.2322 24.8972C93.7178 25.411 93.6799 26.4644 92.9571 27.5696C92.2322 28.6748 87.8273 31.3074 86.8177 36.7319Z" fill="#E48100"/>
<path id="XMLID_47_" d="M86.1048 36.4351C86.1685 36.4351 86.2203 36.3833 86.2203 36.3196C86.1944 30.1085 92.0251 25.9107 92.0849 25.8689C92.1366 25.8331 92.1486 25.7614 92.1127 25.7096C92.0769 25.6578 92.0052 25.6459 91.9534 25.6817C91.8937 25.7236 85.9654 29.991 85.9913 36.3216C85.9913 36.3853 86.0431 36.4351 86.1048 36.4351Z" fill="white"/>
</g>
</g>
<g id="Plants_1_">
<g id="XMLID_39_">
<g id="XMLID_44_">
<path id="XMLID_45_" d="M13.1671 34.2946L14.7661 33.3706C14.7661 33.3706 15.718 29.4157 15.3396 25.8552C14.806 20.8509 11.5122 18.9671 10.2597 19.3992C9.00711 19.8313 8.64468 21.287 10.7177 24.2681C11.9404 26.0264 13.4419 29.6886 13.1671 34.2946Z" fill="#E48100"/>
</g>
<g id="XMLID_42_" opacity="0.15">
<path id="XMLID_43_" d="M13.1671 34.2946L14.7661 33.3706C14.7661 33.3706 15.718 29.4157 15.3396 25.8552C14.806 20.8509 11.5122 18.9671 10.2597 19.3992C9.00711 19.8313 8.64468 21.287 10.7177 24.2681C11.9404 26.0264 13.4419 29.6886 13.1671 34.2946Z" fill="black"/>
</g>
<g id="XMLID_40_">
<path id="XMLID_41_" d="M13.8302 32.3511C13.8243 32.3511 13.8203 32.3511 13.8143 32.3491C13.7546 32.3371 13.7147 32.2794 13.7267 32.2197C14.6029 27.6037 12.9919 22.4182 10.9945 20.2595C10.9527 20.2137 10.9547 20.144 11.0005 20.1022C11.0463 20.0604 11.116 20.0624 11.1578 20.1082C13.191 22.3066 14.8339 27.5778 13.9457 32.2615C13.9338 32.3152 13.884 32.3531 13.8302 32.3511Z" fill="white"/>
</g>
</g>
<g id="XMLID_32_">
<g id="XMLID_37_">
<path id="XMLID_38_" d="M8.97719 36.7141C8.72429 36.8435 8.0532 36.268 7.86601 36.1267C7.5454 35.8877 7.2925 35.5591 7.1312 35.1927C6.94401 34.7666 6.91414 34.3205 7.00176 33.8645C7.04756 33.6275 7.12522 33.3985 7.20488 33.1715C7.28254 32.9484 7.35821 32.7234 7.43588 32.5004C7.51155 32.2793 7.58921 32.0523 7.57129 31.8193C7.53544 31.3514 7.13916 31.0029 6.77674 30.7042C6.37647 30.3716 5.96426 29.9395 5.99612 29.3799C6.02002 28.9478 6.26495 28.5575 6.54972 28.2309C6.83448 27.9043 7.16903 27.6215 7.42791 27.275C7.6151 27.0261 7.76644 26.7294 7.7545 26.4188C7.74653 26.2256 7.67683 26.0404 7.59319 25.8652C7.41397 25.4908 7.16903 25.1423 7.05353 24.744C6.93604 24.3457 6.97985 23.8579 7.30046 23.593C7.56332 23.376 7.9377 23.362 8.27623 23.4018C8.58888 23.4377 8.88957 23.595 9.15642 23.7623C10.0207 24.3019 10.4767 25.3813 11.4007 25.8094C11.7571 25.9747 12.1554 26.0265 12.5298 26.1459C12.9042 26.2654 13.2825 26.4785 13.4398 26.8389C13.7525 27.5479 13.0655 28.3703 13.2726 29.1171C13.4558 29.7782 14.0751 30.059 14.3997 30.6624C14.5411 30.9272 14.563 31.2239 14.5231 31.5226C14.4554 32.0264 14.3618 32.3928 14.091 32.9425C13.868 33.3965 13.2367 34.2568 13.2367 34.2568C13.2367 34.2568 9.01503 36.6942 8.97719 36.7141Z" fill="#E48100"/>
</g>
<g id="XMLID_35_">
<path id="XMLID_36_" d="M11.4266 35.4375C11.4246 35.4375 11.4226 35.4375 11.4226 35.4375C11.3608 35.4315 11.315 35.3777 11.321 35.316C11.7253 30.925 9.89719 25.9646 8.46142 24.477C8.4196 24.4332 8.4196 24.3635 8.46341 24.3197C8.50722 24.2779 8.57692 24.2779 8.62073 24.3217C10.0864 25.8391 11.9523 30.8832 11.5421 35.3359C11.5361 35.3957 11.4843 35.4415 11.4266 35.4375Z" fill="white"/>
</g>
<g id="XMLID_33_">
<path id="XMLID_34_" d="M10.9905 30.0251C10.9805 30.0251 10.9686 30.0231 10.9586 30.0191C9.56668 29.5113 7.8103 29.344 7.79237 29.344C7.73064 29.338 7.68683 29.2843 7.69281 29.2225C7.69878 29.1608 7.74657 29.115 7.81428 29.123C7.8322 29.125 9.61845 29.2922 11.0363 29.812C11.0941 29.8319 11.1239 29.8976 11.102 29.9534C11.0821 29.9992 11.0363 30.0271 10.9905 30.0251Z" fill="white"/>
</g>
</g>
</g>
<g id="Group 14">
<path id="Shadow_1_" d="M45.6435 71.4719L42.9313 69.9057C41.0905 68.8432 41.0905 67.1218 42.9313 66.0593L48.9766 62.5687L27.0969 49.9361L21.0516 53.4267C19.2108 54.4892 16.2287 54.4892 14.3879 53.4267L11.6757 51.8605C9.83484 50.798 9.83484 49.0766 11.6757 48.0141L30.0169 37.4253C31.8577 36.3628 34.8398 36.3628 36.6806 37.4253L39.3929 38.9915C41.2337 40.054 41.2337 41.7754 39.3929 42.8379L32.7173 46.6914L54.5969 59.324L61.2725 55.4705C63.1134 54.408 66.0954 54.408 67.9362 55.4705L70.6509 57.0367C72.4917 58.0992 72.4917 59.8206 70.6509 60.8831L52.3096 71.4719C50.4688 72.5344 47.4844 72.5344 45.6435 71.4719Z" fill="#E0E0E0"/>
<g id="Dumbbell_2_">
<g id="XMLID_28_">
<path id="XMLID_31_" d="M34.493 27.4396C33.0509 22.7266 27.1584 18.8253 21.6503 20.3677L21.6527 20.3701C20.86 20.5849 20.0292 20.9335 19.172 21.4278C13.831 24.5101 9.5 32.0094 9.5 38.1813C9.5 39.3345 9.65042 40.3588 9.93215 41.2422H9.92976C11.3718 45.9576 17.2644 49.835 22.7725 48.2926H22.7701C23.5604 48.0778 24.3889 47.7292 25.246 47.2349C30.587 44.1502 34.918 36.6509 34.918 30.4814C34.918 29.3354 34.77 28.3183 34.493 27.4396Z" fill="#455A64"/>
<path id="XMLID_30_" d="M25.2465 47.2331C30.5875 44.1483 34.9185 36.649 34.9185 30.4795C34.9185 24.3101 30.5875 21.8079 25.2465 24.8902C19.9055 27.9726 15.5745 35.4719 15.5745 41.6438C15.5745 47.8156 19.9055 50.3154 25.2465 47.2331Z" fill="#37474F"/>
<path id="XMLID_29_" d="M25.2457 31.7328C27.3014 30.5462 28.9655 31.5084 28.9655 33.8816C28.9655 36.2549 27.299 39.139 25.2457 40.3257C23.19 41.5123 21.5259 40.5501 21.5259 38.1769C21.5259 35.8036 23.19 32.9194 25.2457 31.7328Z" fill="#455A64"/>
<path id="Vector_8" d="M26.5182 35.2924C26.5182 36.1041 25.9523 37.0902 25.248 37.5009C24.9209 37.6919 24.6177 37.7205 24.3932 37.6131C24.3598 37.5988 24.3288 37.5797 24.3001 37.5582C24.0948 37.4125 23.973 37.138 23.973 36.7607C23.973 35.949 24.546 34.9629 25.248 34.5522C25.5751 34.3612 25.8735 34.3326 26.098 34.44L26.1911 34.4949C26.3964 34.6358 26.5182 34.9104 26.5182 35.2924Z" fill="#37474F"/>
</g>
<path id="Vector_9" d="M46.9533 47.0893C46.9533 47.9011 46.3874 48.8872 45.6831 49.2931C45.4778 49.4148 45.2963 49.465 45.1316 49.465C44.9811 49.465 44.8427 49.422 44.7066 49.3432L24.3956 37.6131C24.3621 37.5988 24.3311 37.5797 24.3024 37.5582C24.0971 37.4125 23.9753 37.138 23.9753 36.7607C23.9753 35.949 24.5484 34.9629 25.2503 34.5522C25.5774 34.3612 25.8758 34.3326 26.1003 34.44L26.1934 34.4949L46.5044 46.2203C46.7909 46.385 46.9533 46.6357 46.9533 47.0893Z" fill="#FAFAFA"/>
<g id="XMLID_24_">
<path id="XMLID_27_" d="M66.8923 46.1389C65.4502 41.4258 59.5601 37.5245 54.0496 39.0669L54.052 39.0693C53.2593 39.2842 52.4285 39.6327 51.5713 40.127C46.2303 43.2093 41.8993 50.7087 41.8993 56.8805C41.8993 58.0337 42.0521 59.058 42.3314 59.9414H42.3291C43.7711 64.6568 49.6637 68.5342 55.1718 66.9918H55.1694C55.9597 66.777 56.7881 66.4284 57.6453 65.9342C62.9863 62.8494 67.3173 55.3501 67.3173 49.1806C67.3173 48.0346 67.1693 47.0175 66.8923 46.1389Z" fill="#455A64"/>
<path id="XMLID_26_" d="M57.6458 65.9323C62.9868 62.8476 67.3178 55.3482 67.3178 49.1787C67.3178 43.0093 62.9868 40.5071 57.6458 43.5895C52.3048 46.6718 47.9738 54.1711 47.9738 60.343C47.9738 66.5149 52.3024 69.017 57.6458 65.9323Z" fill="#37474F"/>
<path id="XMLID_25_" d="M57.645 50.432C59.7007 49.2454 61.3648 50.2076 61.3648 52.5808C61.3648 54.9541 59.6983 57.8383 57.645 59.0249C55.5893 60.2115 53.9252 59.2493 53.9252 56.8761C53.9252 54.5028 55.5893 51.6187 57.645 50.432Z" fill="#455A64"/>
<path id="Vector_10" d="M58.9175 53.9914C58.9175 54.8031 58.3516 55.7892 57.6473 56.1999C57.3202 56.3909 57.017 56.4195 56.7925 56.3121C56.7591 56.2977 56.7281 56.2786 56.6994 56.2572C56.4941 56.1115 56.3723 55.8369 56.3723 55.4597C56.3723 54.6479 56.9453 53.6619 57.6473 53.2512C57.9744 53.0602 58.2728 53.0316 58.4973 53.139L58.5904 53.1939C58.7957 53.3372 58.9175 53.6093 58.9175 53.9914Z" fill="#37474F"/>
</g>
<path id="Vector_11" d="M61.9982 55.7708C61.9982 56.5826 61.4323 57.5687 60.728 57.9745C60.5226 58.0963 60.3412 58.1464 60.1764 58.1464C60.026 58.1464 59.8875 58.1035 59.7515 58.0247L56.7933 56.3128C56.7598 56.2985 56.7288 56.2794 56.7001 56.2579C56.4948 56.1122 56.373 55.8377 56.373 55.4604C56.373 54.6487 56.9461 53.6626 57.648 53.2519C57.9751 53.0609 58.2736 53.0323 58.498 53.1397L58.5911 53.1946L61.5493 54.9017C61.8358 55.0665 61.9982 55.3172 61.9982 55.7708Z" fill="#FAFAFA"/>
<path id="Vector_12" d="M61.9975 55.7636C61.9975 56.5753 61.4317 57.5614 60.7274 57.9721C60.4003 58.1631 60.097 58.1917 59.8726 58.0843C59.8392 58.07 59.8081 58.0509 59.7795 58.0294C59.5742 57.8837 59.4524 57.6092 59.4524 57.2319C59.4524 56.4201 60.0254 55.4341 60.7274 55.0234C61.0544 54.8324 61.3529 54.8038 61.5773 54.9112L61.6704 54.9661C61.8758 55.1094 61.9975 55.3816 61.9975 55.7636Z" fill="#E0E0E0"/>
</g>
</g>
<g id="Speach_Bubble_1_">
<g id="Group_2">
<path id="XMLID_7_" d="M55.1019 2.07965L40.6565 10.4215C40.533 10.4932 40.4335 10.6644 40.4335 10.8078V16.8157C40.4335 16.9571 40.533 17.1304 40.6585 17.2001L41.457 17.6481C41.5805 17.7178 41.7816 17.7178 41.9031 17.6461L56.3485 9.30431C56.4719 9.23263 56.5715 9.06137 56.5715 8.91799V2.91005C56.5715 2.76866 56.4719 2.59541 56.3465 2.52571L55.5479 2.07766C55.4245 2.00796 55.2253 2.00995 55.1019 2.07965Z" fill="#E48100"/>
<path id="XMLID_6_" d="M41.6801 17.5164V11.5084C41.6801 11.3671 41.7796 11.1938 41.9031 11.1221L56.3484 2.78029C56.4719 2.7086 56.5715 2.76635 56.5715 2.90973V8.91568C56.5715 9.05707 56.4719 9.23032 56.3484 9.30201L41.9031 17.6438C41.7796 17.7155 41.6801 17.6578 41.6801 17.5164Z" fill="#E48100"/>
<path id="XMLID_5_" opacity="0.2" d="M41.9031 17.6439C41.7837 17.7136 41.5686 17.7156 41.4551 17.6459L40.6565 17.1979C40.5331 17.1282 40.4315 16.9569 40.4315 16.8155V10.8076C40.4315 10.7339 40.4594 10.6523 40.5032 10.5806L41.7438 11.2895C41.702 11.3592 41.6781 11.4369 41.6781 11.5085V17.5145C41.6801 17.6459 41.7717 17.7196 41.9031 17.6439Z" fill="black"/>
<path id="XMLID_4_" opacity="0.4" d="M56.5675 2.86799C56.5496 2.75647 56.458 2.71465 56.3465 2.78037L41.9011 11.1222C41.8394 11.158 41.7837 11.2198 41.7438 11.2895L40.5012 10.5805C40.541 10.5128 40.5948 10.4551 40.6546 10.4212L55.0999 2.07941C55.2234 2.00772 55.4225 2.00772 55.546 2.07742L56.3445 2.52547C56.458 2.5892 56.5516 2.73656 56.5675 2.86799Z" fill="white"/>
</g>
<g id="Group_3">
<path id="XMLID_3_" d="M39.8222 15.4915C39.6828 15.4078 38.6354 14.8184 38.5995 14.7985C38.496 14.7347 38.4601 14.5834 38.5557 14.4798L40.4515 12.9106L41.6782 13.6076L39.7824 15.1768C39.6908 15.2784 39.7286 15.4237 39.8222 15.4915Z" fill="#E48100"/>
<path id="XMLID_2_" opacity="0.1" d="M39.8222 15.4915C39.6828 15.4078 38.6354 14.8184 38.5995 14.7985C38.496 14.7347 38.4601 14.5834 38.5557 14.4798L40.4515 12.9106L41.6782 13.6076L39.7824 15.1768C39.6908 15.2784 39.7286 15.4237 39.8222 15.4915Z" fill="black"/>
<path id="XMLID_1_" d="M41.6801 13.6094L39.7844 15.1786C39.6549 15.316 39.7505 15.5052 39.9118 15.5211L41.6801 15.314V13.6094Z" fill="#E48100"/>
</g>
<g id="Group_4">
<path id="Vector_13" d="M42.8132 13.0521C42.8013 13.0322 42.7973 13.0043 42.8013 12.9684C42.8053 12.9326 42.8132 12.9007 42.8292 12.8689L43.3848 11.7896C43.3987 11.7637 43.4146 11.7318 43.4346 11.696C43.4545 11.6601 43.4764 11.6342 43.5023 11.6203L43.8169 11.4391C43.8368 11.4271 43.8527 11.4311 43.8667 11.447C43.8806 11.463 43.8866 11.4889 43.8866 11.5227V14.4918C43.8866 14.5257 43.8806 14.5595 43.8667 14.5914C43.8527 14.6233 43.8368 14.6452 43.8169 14.6571L43.4784 14.8523C43.4604 14.8622 43.4425 14.8602 43.4286 14.8443C43.4146 14.8284 43.4087 14.8025 43.4087 14.7686V12.7574L43.1 13.3488C43.0841 13.3787 43.0681 13.3986 43.0482 13.4046C43.0303 13.4105 43.0144 13.4046 43.0024 13.3826L42.8132 13.0521Z" fill="#FAFAFA"/>
<path id="Vector_14" d="M44.7986 13.9641C44.7986 13.9979 44.7926 14.0318 44.7787 14.0636C44.7648 14.0955 44.7488 14.1174 44.7289 14.1293L44.3904 14.3245C44.3725 14.3345 44.3545 14.3325 44.3406 14.3165C44.3267 14.3006 44.3207 14.2747 44.3207 14.2409V13.6395C44.3207 13.6056 44.3267 13.5718 44.3406 13.5399C44.3545 13.508 44.3705 13.4861 44.3904 13.4742L44.7289 13.279C44.7468 13.2691 44.7648 13.2711 44.7787 13.287C44.7926 13.3029 44.7986 13.3288 44.7986 13.3627V13.9641Z" fill="#FAFAFA"/>
<path id="Vector_15" d="M45.6708 13.4621C45.6708 13.496 45.6648 13.5298 45.6509 13.5617C45.6369 13.5935 45.621 13.6154 45.6011 13.6274L45.2626 13.8225C45.2446 13.8325 45.2267 13.8305 45.2128 13.8146C45.1988 13.7987 45.1929 13.7728 45.1929 13.7389V13.1375C45.1929 13.1037 45.1988 13.0698 45.2128 13.038C45.2267 13.0061 45.2427 12.9842 45.2626 12.9722L45.6011 12.7771C45.619 12.7671 45.6369 12.7691 45.6509 12.785C45.6648 12.801 45.6708 12.8269 45.6708 12.8607V13.4621Z" fill="#FAFAFA"/>
<path id="Vector_16" d="M46.5431 12.9582C46.5431 12.9921 46.5351 13.0259 46.5232 13.0578C46.5093 13.0896 46.4933 13.1115 46.4734 13.1235L46.1349 13.3186C46.117 13.3286 46.099 13.3266 46.0851 13.3107C46.0712 13.2947 46.0652 13.2689 46.0652 13.235V12.6336C46.0652 12.5998 46.0732 12.5659 46.0851 12.534C46.099 12.5022 46.115 12.4803 46.1349 12.4683L46.4734 12.2732C46.4913 12.2632 46.5093 12.2652 46.5232 12.2811C46.5371 12.2971 46.5431 12.323 46.5431 12.3568V12.9582Z" fill="#FAFAFA"/>
<path id="Vector_17" d="M48.3692 9.84417C48.3692 9.93378 48.3632 10.0214 48.3533 10.111C48.3433 10.1986 48.3254 10.2902 48.2995 10.3818C48.2736 10.4754 48.2418 10.571 48.2019 10.6706C48.1621 10.7702 48.1123 10.8757 48.0526 10.9872L47.6902 11.6842L48.3393 11.3098C48.3573 11.2999 48.3752 11.3018 48.3891 11.3178C48.4031 11.3337 48.409 11.3596 48.409 11.3935V11.8813C48.409 11.9152 48.4011 11.949 48.3891 11.9809C48.3772 12.0128 48.3593 12.0347 48.3393 12.0466L46.9733 12.8352C46.9533 12.8471 46.9374 12.8432 46.9235 12.8272C46.9095 12.8113 46.9036 12.7854 46.9036 12.7516V12.3553C46.9036 12.3055 46.9095 12.2537 46.9215 12.198C46.9334 12.1422 46.9514 12.0904 46.9792 12.0406L47.7519 10.6108C47.8116 10.4953 47.8495 10.4018 47.8654 10.3261C47.8813 10.2504 47.8893 10.1827 47.8893 10.121C47.8893 10.0991 47.8873 10.0712 47.8833 10.0353C47.8793 9.9995 47.8694 9.96764 47.8534 9.93776C47.8375 9.90789 47.8156 9.88798 47.7877 9.87603C47.7599 9.86408 47.72 9.87404 47.6722 9.90192C47.6244 9.9298 47.5846 9.96764 47.5547 10.0134C47.5249 10.0592 47.501 10.107 47.485 10.1528C47.4691 10.1986 47.4572 10.2444 47.4492 10.2863C47.4412 10.3281 47.4353 10.3599 47.4333 10.3818C47.4253 10.4296 47.4114 10.4655 47.3934 10.4894C47.3755 10.5133 47.3536 10.5332 47.3297 10.5471L47.0111 10.7303C46.9952 10.7403 46.9812 10.7363 46.9713 10.7244C46.9593 10.7104 46.9553 10.6905 46.9553 10.6626C46.9573 10.5332 46.9733 10.3958 47.0011 10.2524C47.031 10.109 47.0748 9.96764 47.1346 9.82824C47.1943 9.68884 47.268 9.56339 47.3576 9.44789C47.4472 9.33239 47.5508 9.2388 47.6722 9.1691C47.7857 9.10338 47.8873 9.0755 47.9729 9.08546C48.0606 9.09542 48.1322 9.13325 48.192 9.19897C48.2497 9.26468 48.2955 9.3543 48.3254 9.46581C48.3553 9.57733 48.3692 9.70278 48.3692 9.84417Z" fill="#FAFAFA"/>
<path id="Vector_18" d="M49.2653 11.3874C49.2653 11.4213 49.2593 11.4551 49.2454 11.487C49.2314 11.5188 49.2155 11.5407 49.1956 11.5527L48.857 11.7478C48.8391 11.7578 48.8212 11.7558 48.8073 11.7399C48.7933 11.7239 48.7874 11.6981 48.7874 11.6642V11.0628C48.7874 11.029 48.7933 10.9951 48.8073 10.9632C48.8212 10.9314 48.8371 10.9095 48.857 10.8975L49.1956 10.7024C49.2135 10.6924 49.2314 10.6944 49.2454 10.7103C49.2593 10.7263 49.2653 10.7522 49.2653 10.786V11.3874Z" fill="#FAFAFA"/>
<path id="Vector_19" d="M50.1355 10.8835C50.1355 10.9174 50.1295 10.9512 50.1156 10.9831C50.1017 11.0149 50.0857 11.0368 50.0658 11.0488L49.7273 11.2439C49.7094 11.2539 49.6914 11.2519 49.6775 11.236C49.6636 11.22 49.6576 11.1942 49.6576 11.1603V10.5589C49.6576 10.5251 49.6636 10.4912 49.6775 10.4593C49.6914 10.4275 49.7074 10.4056 49.7273 10.3936L50.0658 10.1985C50.0837 10.1885 50.1017 10.1905 50.1156 10.2064C50.1295 10.2224 50.1355 10.2483 50.1355 10.2821V10.8835Z" fill="#FAFAFA"/>
<path id="Vector_20" d="M51.0077 10.3815C51.0077 10.4154 50.9997 10.4493 50.9878 10.4811C50.9739 10.513 50.9579 10.5349 50.938 10.5468L50.5995 10.742C50.5816 10.7519 50.5636 10.7499 50.5497 10.734C50.5358 10.7181 50.5298 10.6922 50.5298 10.6583V10.057C50.5298 10.0231 50.5377 9.98925 50.5497 9.95738C50.5636 9.92552 50.5796 9.90362 50.5995 9.89167L50.938 9.69652C50.9559 9.68656 50.9739 9.68855 50.9878 9.70448C51.0017 9.72041 51.0077 9.7463 51.0077 9.78015V10.3815Z" fill="#FAFAFA"/>
<path id="Vector_21" d="M52.7422 6.28538C52.7602 6.27543 52.7781 6.27742 52.792 6.29335C52.806 6.30928 52.8119 6.33517 52.8119 6.36902V6.8569C52.8119 6.89076 52.806 6.92461 52.794 6.95846C52.7821 6.99232 52.7701 7.02219 52.7602 7.04608L52.4475 7.78687C52.5809 7.77094 52.6905 7.81077 52.7761 7.90834C52.8597 8.00592 52.9035 8.1732 52.9035 8.41216C52.9035 8.75866 52.8358 9.05736 52.7024 9.31026C52.569 9.56317 52.3798 9.75832 52.1389 9.89772C52.0154 9.96941 51.9059 10.0072 51.8083 10.0092C51.7127 10.0132 51.633 9.98932 51.5673 9.94153C51.5016 9.89373 51.4518 9.82603 51.416 9.73642C51.3801 9.6488 51.3622 9.54724 51.3602 9.43572C51.3602 9.40784 51.3662 9.38195 51.3762 9.35407C51.3881 9.32819 51.4001 9.31026 51.416 9.30031L51.7426 9.11312C51.7784 9.09321 51.8063 9.09121 51.8262 9.10914C51.8441 9.12706 51.866 9.14697 51.8899 9.16689C51.9138 9.1868 51.9437 9.20074 51.9795 9.2087C52.0174 9.21667 52.0692 9.20074 52.1389 9.16091C52.2225 9.11312 52.2902 9.0494 52.344 8.96775C52.3977 8.8881 52.4256 8.7945 52.4256 8.68697C52.4256 8.57943 52.3977 8.5177 52.344 8.49978C52.2902 8.48186 52.2205 8.49779 52.1389 8.54558L51.9238 8.66905C51.9039 8.68099 51.8879 8.67701 51.874 8.66108C51.8601 8.64515 51.8541 8.61926 51.8541 8.58541V8.19112C51.8541 8.15726 51.8601 8.12341 51.872 8.08956C51.884 8.05571 51.8959 8.02384 51.9079 7.99596L52.1827 7.34678L51.5076 7.73709C51.4897 7.74704 51.4717 7.74505 51.4578 7.72912C51.4439 7.71319 51.4379 7.6873 51.4379 7.65345V7.16357C51.4379 7.12972 51.4439 7.09587 51.4578 7.06401C51.4717 7.03214 51.4877 7.01024 51.5076 6.99829L52.7422 6.28538Z" fill="#FAFAFA"/>
<path id="Vector_22" d="M53.7558 8.79463C53.7558 8.82848 53.7478 8.86234 53.7358 8.8942C53.7219 8.92606 53.706 8.94797 53.6861 8.95991L53.3475 9.15507C53.3296 9.16502 53.3117 9.16303 53.2977 9.1471C53.2838 9.13117 53.2778 9.10528 53.2778 9.07143V8.47004C53.2778 8.43619 53.2858 8.40233 53.2977 8.37047C53.3117 8.33861 53.3276 8.3167 53.3475 8.30476L53.6861 8.1096C53.704 8.09964 53.7219 8.10164 53.7358 8.11757C53.7498 8.1335 53.7558 8.15939 53.7558 8.19324V8.79463Z" fill="#FAFAFA"/>
<path id="Vector_23" d="M54.626 8.29072C54.626 8.32458 54.618 8.35843 54.6061 8.39029C54.5921 8.42215 54.5762 8.44406 54.5563 8.45601L54.2178 8.65116C54.1998 8.66112 54.1819 8.65913 54.168 8.6432C54.154 8.62726 54.1481 8.60138 54.1481 8.56752V7.96613C54.1481 7.93228 54.156 7.89843 54.168 7.86656C54.1819 7.8347 54.1979 7.8128 54.2178 7.80085L54.5563 7.6057C54.5742 7.59574 54.5921 7.59773 54.6061 7.61366C54.62 7.62959 54.626 7.65548 54.626 7.68933V8.29072Z" fill="#FAFAFA"/>
<path id="Vector_24" d="M55.4982 7.78881C55.4982 7.82266 55.4922 7.85652 55.4783 7.88838C55.4643 7.92024 55.4484 7.94214 55.4285 7.95409L55.09 8.14925C55.072 8.1592 55.0541 8.15721 55.0402 8.14128C55.0262 8.12535 55.0203 8.09946 55.0203 8.06561V7.46223C55.0203 7.42837 55.0262 7.39452 55.0402 7.36266C55.0541 7.3308 55.07 7.30889 55.09 7.29694L55.4285 7.10179C55.4464 7.09183 55.4643 7.09382 55.4783 7.10975C55.4922 7.12569 55.4982 7.15157 55.4982 7.18543V7.78881Z" fill="#FAFAFA"/>
</g>
</g>
</g>
<defs>
<clipPath id="clip0_881_6398">
<rect width="95" height="77.3864" fill="white" transform="translate(0.5 0.0253906)"/>
</clipPath>
</defs>
</svg>
