<svg width="291" height="542" viewBox="0 0 291 542" fill="none" xmlns="http://www.w3.org/2000/svg">
<g clip-path="url(#clip0_879_4022)">
<path d="M200.083 160.674L179.846 182.192L188.006 195.596L209.371 172.295L200.083 160.674Z" fill="#E0B79A"/>
<path d="M108.988 121.887C108.988 121.887 103.617 134.043 129.284 195.656C129.284 195.656 143.349 221.305 149.461 222.108C159.461 223.416 187.413 208.406 208.688 177.674L192.605 165.726L161.123 183.916L142.666 136.183C142.637 136.183 131.806 104.352 108.988 121.887Z" fill="#E48100"/>
<path d="M161.093 183.916C161.093 183.916 154.862 186.918 154.179 198.182" stroke="#E46400" stroke-width="0.75" stroke-miterlimit="10"/>
<path d="M209.371 172.295C209.371 172.295 236.699 172.116 238.539 153.719L200.083 160.674L209.371 172.295Z" fill="#E0B79A"/>
<path d="M146.791 160.674H190.469V153.66H146.791C144.862 153.66 143.289 155.235 143.289 157.167C143.289 159.099 144.862 160.674 146.791 160.674Z" fill="#CFCFCF"/>
<path d="M182.309 160.674H264.502C269.25 160.674 273.404 157.523 274.65 152.946L290.673 95.2571C292.098 90.145 288.27 85.1221 282.988 85.1221H207.501C204.356 85.1221 201.566 87.262 200.765 90.3233L182.309 160.674Z" fill="#DAD9DB"/>
<path d="M232.367 126.138C232.367 130.447 235.838 133.925 240.141 133.925C244.443 133.925 247.915 130.447 247.915 126.138C247.915 121.828 244.443 118.351 240.141 118.351C235.838 118.351 232.367 121.828 232.367 126.138Z" fill="white"/>
<path d="M82.8165 101.201L40.7703 119.866C37.7733 121.204 36.0226 124.325 36.4084 127.564L42.6396 249.69H131.895L135.07 129.139C135.456 125.84 134.299 122.541 131.895 120.223L105.991 101.053L82.8165 101.201Z" fill="#E48100"/>
<path d="M70.71 106.551L84.7451 127.832L98.3352 115.943L112.103 122.898V105.57" stroke="#E46400" stroke-width="0.75" stroke-miterlimit="10"/>
<path d="M98.3352 115.943C98.3352 115.943 98.721 144.208 100.027 153.125C105.635 190.693 97.9495 218.036 97.9495 218.036" stroke="#E46400" stroke-width="0.75" stroke-miterlimit="10"/>
<path d="M124.21 126.227C124.21 126.227 131.45 152.292 127.415 188.166" stroke="#E46400" stroke-width="0.75" stroke-miterlimit="10"/>
<path d="M84.7453 208.406L56.6749 207.782L52.9065 223.029L84.4782 221.781L84.7453 208.406Z" fill="#E0B79A"/>
<path d="M84.7453 208.406L102.341 191.019C103.231 190.128 104.626 190.009 105.665 190.692C106.851 191.465 107.208 193.011 106.525 194.259L103.053 200.352L118.335 199.49C120.323 199.431 121.777 201.303 121.183 203.205L117.949 213.905C117.682 214.797 117.029 215.48 116.169 215.777C110.175 217.858 94.3593 225.734 84.5376 221.781L84.7453 208.406Z" fill="#E0B79A"/>
<path d="M39.168 120.847C39.168 120.847 27.0912 126.138 5.3115 186.68C5.3115 186.68 -2.90783 209.982 1.12765 214.44C7.71499 221.751 40.2659 232.956 76.5259 224.545L76.971 204.691L36.8536 198.598L54.7759 152.59C54.7759 152.59 67.8318 122.868 39.168 120.847Z" fill="#E48100"/>
<path d="M18.6345 202.581C26.1714 194.675 36.8535 198.628 36.8535 198.628L54.7758 152.619C54.7758 152.619 66.6449 130.626 48.3072 122.928" stroke="#E46400" stroke-width="0.75" stroke-miterlimit="10"/>
<path d="M48.3072 228.588C48.3072 228.588 70.9474 229.955 76.971 228.588V204.692L36.8535 198.599" stroke="#E46400" stroke-width="0.75" stroke-miterlimit="10"/>
<path d="M132.934 31.5938C132.934 31.5938 142.34 41.6396 130.649 57.4217L121.035 35.19L132.934 31.5938Z" fill="#1F2326"/>
<path d="M79.3449 59.3237L108.751 79.7126L109.166 103.163L98.4244 115.17L74.4489 105.927L73.9148 70.9745L79.3449 59.3237Z" fill="#E0B79A"/>
<path d="M109.077 99.0611C109.077 99.0611 80.6504 101.795 82.8165 63.0981L92.4898 68.6858L109.285 87.4697L109.077 99.0611Z" fill="#C98F80"/>
<path d="M111.124 92.3445L110.175 92.4634C96.021 94.1278 83.2321 83.9631 81.5704 69.8157L78.1877 40.867C77.7723 37.2112 80.3835 33.8824 84.0332 33.4663L117.741 29.5134C124.269 28.7406 130.204 33.4366 130.975 39.9753L133.735 63.7228C135.397 77.8702 125.249 90.6801 111.124 92.3445Z" fill="#E0B79A"/>
<path d="M68.8111 27.7004C71.4519 10.135 85.3981 9.03531 89.1369 8.76781C92.8756 8.50032 103.172 11.9183 107.949 8.41116C112.489 5.08236 118.068 -2.19939 130.738 0.653864C139.432 2.61548 145.693 15.5443 136.999 28.6217C128.898 40.8075 92.4899 39.797 84.864 39.4701C86.2586 45.028 88.8698 58.8781 82.1044 64.5847C80.8879 73.5011 74.1225 78.9698 74.1225 78.9698C33.8566 33.9121 68.8111 27.7004 68.8111 27.7004Z" fill="#1F2326"/>
<path d="M86.4961 59.4724C87.0895 64.5844 83.4398 69.1913 78.3658 69.7857C73.2621 70.3801 68.6628 66.7244 68.0694 61.642C67.4759 56.5596 71.1256 51.9231 76.1997 51.3287C81.2737 50.7045 85.9026 54.3603 86.4961 59.4724Z" fill="#E0B79A"/>
<path d="M131.925 249.69L129.284 390.035L119.64 511.09L86.6741 511.12L92.7273 390.035L95.2198 249.69H131.925Z" fill="#20202A"/>
<path d="M119.64 511.09L134.773 522.889L148.393 525.653C154.654 526.931 159.342 532.162 159.877 538.552L160.144 541.525L84.5376 541.406L86.6444 511.149L119.64 511.09Z" fill="black"/>
<path d="M84.2705 541.881L160.47 542V537.185C160.47 536.234 159.698 535.461 158.749 535.461L84.2705 535.342V541.881Z" fill="#20202A"/>
<path d="M105.754 257.774V283.186C105.754 291.241 101.866 298.79 95.3087 303.427L95.2197 303.486" stroke="#141416" stroke-width="0.75" stroke-miterlimit="10"/>
<path d="M87.2673 498.399H120.768" stroke="#141416" stroke-width="0.75" stroke-miterlimit="10"/>
<path d="M44.1829 249.69L45.3994 391.491L37.4175 511.12H70.3542L83.7959 390.718L103.053 249.69H44.1829Z" fill="#20202A"/>
<path d="M70.3541 511.12L85.5169 522.889L99.1366 525.653C105.398 526.931 110.086 532.162 110.62 538.552L110.887 541.525L35.281 541.406L37.3878 511.149L70.3541 511.12Z" fill="black"/>
<path d="M35.0139 541.882L111.213 542V537.186C111.213 536.234 110.442 535.462 109.492 535.462L35.0139 535.343V541.882Z" fill="#20202A"/>
<path d="M44.5686 257.774H131.925" stroke="#141416" stroke-width="0.75" stroke-miterlimit="10"/>
<path d="M95.2197 317.544C95.4274 315.612 95.2197 257.774 95.2197 257.774" stroke="#141416" stroke-width="0.75" stroke-miterlimit="10"/>
<path d="M38.6042 498.399H72.1047" stroke="#141416" stroke-width="0.75" stroke-miterlimit="10"/>
</g>
<defs>
<clipPath id="clip0_879_4022">
<rect width="291" height="542" fill="white"/>
</clipPath>
</defs>
</svg>
