<svg width="418" height="575" viewBox="0 0 418 575" fill="none" xmlns="http://www.w3.org/2000/svg">
<g clip-path="url(#clip0_1020_3328)">
<path d="M327.083 193.674L306.846 215.192L315.006 228.596L336.371 205.295L327.083 193.674Z" fill="#E0B79A"/>
<path d="M235.988 154.887C235.988 154.887 230.617 167.043 256.284 228.656C256.284 228.656 270.349 254.305 276.461 255.108C286.461 256.416 314.413 241.406 335.688 210.674L319.605 198.726L288.123 216.916L269.666 169.183C269.637 169.183 258.806 137.352 235.988 154.887Z" fill="#E48100"/>
<path d="M288.093 216.916C288.093 216.916 281.862 219.918 281.179 231.182" stroke="#E46400" stroke-width="0.75" stroke-miterlimit="10"/>
<path d="M336.371 205.295C336.371 205.295 363.699 205.116 365.539 186.719L327.083 193.674L336.371 205.295Z" fill="#E0B79A"/>
<path d="M273.791 193.674H317.469V186.66H273.791C271.862 186.66 270.289 188.235 270.289 190.167C270.289 192.099 271.862 193.674 273.791 193.674Z" fill="#CFCFCF"/>
<path d="M309.309 193.674H391.502C396.25 193.674 400.404 190.523 401.65 185.946L417.673 128.257C419.098 123.145 415.27 118.122 409.988 118.122H334.501C331.356 118.122 328.566 120.262 327.765 123.323L309.309 193.674Z" fill="#DAD9DB"/>
<path d="M359.367 159.138C359.367 163.447 362.838 166.925 367.141 166.925C371.443 166.925 374.915 163.447 374.915 159.138C374.915 154.828 371.443 151.351 367.141 151.351C362.838 151.351 359.367 154.828 359.367 159.138Z" fill="white"/>
<path d="M209.816 134.201L167.77 152.866C164.773 154.204 163.023 157.325 163.408 160.564L169.64 282.69H258.895L262.07 162.139C262.456 158.84 261.299 155.541 258.895 153.223L232.991 134.053L209.816 134.201Z" fill="#E48100"/>
<path d="M197.71 139.551L211.745 160.832L225.335 148.943L239.103 155.898V138.57" stroke="#E46400" stroke-width="0.75" stroke-miterlimit="10"/>
<path d="M225.335 148.943C225.335 148.943 225.721 177.208 227.027 186.125C232.635 223.693 224.949 251.036 224.949 251.036" stroke="#E46400" stroke-width="0.75" stroke-miterlimit="10"/>
<path d="M251.21 159.227C251.21 159.227 258.45 185.292 254.415 221.166" stroke="#E46400" stroke-width="0.75" stroke-miterlimit="10"/>
<path d="M211.745 241.406L183.675 240.782L179.906 256.029L211.478 254.781L211.745 241.406Z" fill="#E0B79A"/>
<path d="M211.745 241.406L229.341 224.019C230.231 223.128 231.626 223.009 232.665 223.692C233.851 224.465 234.208 226.011 233.525 227.259L230.053 233.352L245.335 232.49C247.323 232.431 248.777 234.303 248.183 236.205L244.949 246.905C244.682 247.797 244.029 248.48 243.169 248.777C237.175 250.858 221.359 258.734 211.538 254.781L211.745 241.406Z" fill="#E0B79A"/>
<path d="M166.168 153.847C166.168 153.847 154.091 159.138 132.312 219.68C132.312 219.68 124.092 242.982 128.128 247.44C134.715 254.751 167.266 265.956 203.526 257.545L203.971 237.691L163.854 231.598L181.776 185.59C181.776 185.59 194.832 155.868 166.168 153.847Z" fill="#E48100"/>
<path d="M145.635 235.581C153.171 227.675 163.854 231.628 163.854 231.628L181.776 185.619C181.776 185.619 193.645 163.626 175.307 155.928" stroke="#E46400" stroke-width="0.75" stroke-miterlimit="10"/>
<path d="M175.307 261.588C175.307 261.588 197.947 262.955 203.971 261.588V237.692L163.854 231.599" stroke="#E46400" stroke-width="0.75" stroke-miterlimit="10"/>
<path d="M259.934 64.5938C259.934 64.5938 269.34 74.6396 257.649 90.4217L248.035 68.19L259.934 64.5938Z" fill="#1F2326"/>
<path d="M206.345 92.3237L235.751 112.713L236.166 136.163L225.424 148.17L201.449 138.927L200.915 103.975L206.345 92.3237Z" fill="#E0B79A"/>
<path d="M236.077 132.061C236.077 132.061 207.65 134.795 209.817 96.0981L219.49 101.686L236.285 120.47L236.077 132.061Z" fill="#C98F80"/>
<path d="M238.124 125.345L237.175 125.463C223.021 127.128 210.232 116.963 208.57 102.816L205.188 73.867C204.772 70.2112 207.383 66.8824 211.033 66.4663L244.741 62.5134C251.269 61.7406 257.204 66.4366 257.975 72.9753L260.735 96.7228C262.397 110.87 252.249 123.68 238.124 125.345Z" fill="#E0B79A"/>
<path d="M195.811 60.7004C198.452 43.135 212.398 42.0353 216.137 41.7678C219.876 41.5003 230.172 44.9183 234.949 41.4112C239.489 38.0824 245.068 30.8006 257.738 33.6539C266.432 35.6155 272.693 48.5443 263.999 61.6217C255.898 73.8075 219.49 72.797 211.864 72.4701C213.259 78.028 215.87 91.8781 209.104 97.5847C207.888 106.501 201.122 111.97 201.122 111.97C160.857 66.9121 195.811 60.7004 195.811 60.7004Z" fill="#1F2326"/>
<path d="M213.496 92.4724C214.09 97.5844 210.44 102.191 205.366 102.786C200.262 103.38 195.663 99.7244 195.069 94.642C194.476 89.5596 198.126 84.9231 203.2 84.3287C208.274 83.7045 212.903 87.3603 213.496 92.4724Z" fill="#E0B79A"/>
<path d="M258.925 282.69L256.284 423.035L246.64 544.09L213.674 544.12L219.727 423.035L222.22 282.69H258.925Z" fill="#20202A"/>
<path d="M246.64 544.09L261.773 555.889L275.393 558.653C281.654 559.931 286.342 565.162 286.877 571.552L287.144 574.525L211.538 574.406L213.644 544.149L246.64 544.09Z" fill="black"/>
<path d="M211.271 574.881L287.47 575V570.185C287.47 569.234 286.698 568.461 285.749 568.461L211.271 568.342V574.881Z" fill="#20202A"/>
<path d="M232.754 290.774V316.186C232.754 324.241 228.866 331.79 222.309 336.427L222.22 336.486" stroke="#141416" stroke-width="0.75" stroke-miterlimit="10"/>
<path d="M214.267 531.399H247.768" stroke="#141416" stroke-width="0.75" stroke-miterlimit="10"/>
<path d="M171.183 282.69L172.399 424.491L164.417 544.12H197.354L210.796 423.718L230.053 282.69H171.183Z" fill="#20202A"/>
<path d="M197.354 544.12L212.517 555.889L226.137 558.653C232.398 559.931 237.086 565.162 237.62 571.552L237.887 574.525L162.281 574.406L164.388 544.149L197.354 544.12Z" fill="black"/>
<path d="M162.014 574.882L238.213 575V570.186C238.213 569.234 237.442 568.462 236.492 568.462L162.014 568.343V574.882Z" fill="#20202A"/>
<path d="M171.569 290.774H258.925" stroke="#141416" stroke-width="0.75" stroke-miterlimit="10"/>
<path d="M222.22 350.544C222.427 348.612 222.22 290.774 222.22 290.774" stroke="#141416" stroke-width="0.75" stroke-miterlimit="10"/>
<path d="M165.604 531.399H199.105" stroke="#141416" stroke-width="0.75" stroke-miterlimit="10"/>
</g>
<g clip-path="url(#clip1_1020_3328)">
<path d="M90.6489 63.1558C96.2072 42.4196 83.9022 21.1068 63.165 15.5524C42.4278 9.99787 21.1112 22.3051 15.5529 43.0412C9.99463 63.7774 22.2996 85.0902 43.0368 90.6447C63.774 96.1992 85.0906 83.892 90.6489 63.1558Z" fill="#F2D139"/>
<path d="M82.7514 63.3332L47.1365 83.8955L62.315 110.186L97.93 89.6232L82.7514 63.3332Z" fill="#F2D139"/>
<path d="M62.3152 110.185C62.3152 110.185 53.4265 97.7885 34.9966 87.5029L53.7339 76.6849L70.3853 105.526L62.3152 110.185Z" fill="#F2D139"/>
<path d="M97.8361 89.6774C97.8361 89.6774 91.5444 75.7811 91.8519 54.6776L73.1145 65.4956L89.7659 94.3367L97.8361 89.6774Z" fill="#F2D139"/>
<path d="M73.4491 45.9456C71.0282 44.2048 67.3823 44.4129 64.5856 46.4563C63.6804 47.1164 62.9517 47.8931 62.4101 48.7558C61.1689 48.708 59.8295 48.9313 58.3647 49.421L58.2788 49.4545C58.0694 49.5471 57.8465 49.6515 57.6198 49.7703L57.6162 49.7642C55.8523 50.6046 54.3527 52.0569 53.3829 53.7614C50.5893 53.8131 48.5768 54.8537 47.352 55.759L47.2801 55.8167C46.1266 56.8386 45.2605 57.8887 44.6813 58.9875C43.6634 59.0251 42.6264 59.2679 41.6021 59.7218C38.4341 61.1221 36.4309 64.1755 36.7281 67.1424C37.1839 71.7084 40.8615 74.2807 43.2974 75.9845C43.7119 76.2751 44.105 76.5496 44.4129 76.7885C49.6029 80.8172 54.5019 86.1707 58.6104 90.8765C61.1113 93.744 65.4908 100.012 67.4452 103.292L69.2394 102.224C67.2382 98.8699 62.7555 92.4509 60.1855 89.506C56.0129 84.7241 51.03 79.2814 45.6983 75.1403C45.3478 74.8695 44.9333 74.579 44.4974 74.2725C42.2498 72.6986 39.1701 70.5454 38.8093 66.9358C38.6048 64.886 40.135 62.6598 42.4512 61.634C42.9343 61.4197 43.426 61.2694 43.9105 61.1837C43.6888 62.3552 43.749 63.5945 44.0794 64.9164C44.6543 67.2295 46.0782 69.0161 47.7948 69.5862C49.0198 69.9912 50.2623 69.747 51.2975 68.8986C53.5726 67.0309 52.1722 63.3582 50.9193 61.8046L50.8821 61.7613C49.7456 60.5004 48.4019 59.6584 46.9576 59.2587C47.385 58.6398 47.9403 58.0321 48.6302 57.4194C49.4648 56.8122 50.7502 56.1307 52.489 55.9195C52.4334 56.1175 52.3874 56.318 52.3491 56.518C51.8992 58.8566 53.257 62.5256 55.6848 63.7529C57.3339 64.5843 58.9851 64.4035 60.1068 63.2705C61.3454 62.0176 61.5401 59.9517 60.5897 58.1303C59.4583 55.9605 57.8258 54.5693 55.8113 54.0297C56.8713 52.6007 58.1158 51.8135 59.0729 51.3903C59.9502 51.1022 60.7572 50.9235 61.5021 50.8614C61.1261 52.3121 61.1834 53.8968 61.7071 55.5115L61.726 55.5653C62.442 57.429 64.9237 60.4733 67.6805 59.4398C68.9298 58.9693 69.7673 58.0166 70.0273 56.7503C70.3919 54.9786 69.5566 52.8522 67.8409 51.1977C66.8612 50.2506 65.8198 49.5819 64.6927 49.1851C65.0122 48.8066 65.387 48.4608 65.8123 48.1465C67.8558 46.6552 70.5536 46.4444 72.2247 47.6434C75.1704 49.7607 75.4983 53.5026 75.7345 56.2378C75.782 56.7685 75.8263 57.2727 75.8856 57.7117C76.8043 64.3966 79.0281 71.4362 81.083 77.4409C82.3484 81.139 85.6648 88.2353 87.5672 91.6425L89.3894 90.6228C87.529 87.2884 84.2873 80.3633 83.0545 76.7637C81.0334 70.8528 78.8466 63.9333 77.9496 57.426C77.8966 57.04 77.8554 56.5623 77.8093 56.055C77.5643 53.0944 77.1737 48.6202 73.4491 45.9456ZM49.3117 63.1331C49.9977 63.9989 51.0289 66.4086 49.9699 67.2788C49.4898 67.6733 48.9923 67.7786 48.4509 67.5977C47.4214 67.2578 46.5035 66.0042 46.1032 64.4071C45.8153 63.2428 45.7868 62.1915 46.0445 61.2014C47.2474 61.4493 48.3726 62.102 49.3117 63.1331ZM58.6218 61.7983C58.1572 62.2688 57.4482 62.302 56.626 61.8869C55.0901 61.1114 54.1009 58.4591 54.3974 56.9128C54.462 56.5762 54.5535 56.2443 54.672 55.917C56.4042 56.1707 57.7723 57.2372 58.7372 59.0906C59.3454 60.2562 59.1041 61.3095 58.6218 61.7983ZM67.9832 56.3207C67.8662 56.8817 67.5263 57.2599 66.9476 57.4767C65.6644 57.9587 64.0962 55.8591 63.6864 54.8339C63.263 53.505 63.2603 52.2042 63.6472 51.0385C64.6351 51.3134 65.5296 51.8607 66.394 52.6923C67.5769 53.8374 68.2023 55.264 67.9832 56.3207Z" fill="white"/>
<path d="M107.959 102.51C108.562 103.554 108.204 104.889 107.16 105.491L71.4422 126.113C70.3985 126.716 69.0634 126.358 68.461 125.314L58.9514 108.843C58.349 107.8 58.7068 106.465 59.7505 105.862L95.4686 85.2405C96.5122 84.6379 97.8473 84.9955 98.4498 86.039L107.959 102.51Z" fill="#F3F3F3"/>
<path d="M101.114 87.6478L59.0122 111.955L61.1926 115.732L103.294 91.4243L101.114 87.6478Z" fill="#6D6E70"/>
<path d="M104.814 94.057L62.7129 118.364L64.8933 122.141L106.995 97.8335L104.814 94.057Z" fill="#6D6E70"/>
<path d="M78.9873 121.757L81.1186 125.448C82.1362 127.211 84.39 127.814 86.1527 126.797L100.403 118.569C102.166 117.552 102.77 115.298 101.752 113.536L99.6209 109.844L78.9873 121.757Z" fill="#F3F3F3"/>
<path d="M39.5336 21.7373C48.5351 16.5402 58.7138 15.2176 68.1316 17.2504C57.3216 12.7292 44.5983 13.1266 33.6672 19.4377C15.0724 30.1734 8.70048 53.9452 19.4342 72.5365C22.5813 77.9875 26.8518 82.3854 31.7819 85.6137C29.1106 83.0468 26.7474 80.0675 24.8017 76.6975C13.6962 57.4552 20.2895 32.8478 39.5336 21.7373Z" fill="#F5DE68"/>
<path opacity="0.21" d="M67.7027 101.384L62.2417 104.537L73.8826 124.7L79.3436 121.547L67.7027 101.384Z" fill="#F8F8F8"/>
<path d="M99.6178 109.846L78.9873 121.757L80.1327 123.741L100.763 111.83L99.6178 109.846Z" fill="#4D4E4F"/>
<path opacity="0.21" d="M87.3639 116.921L83.9478 118.893L87.9215 125.776L91.3376 123.803L87.3639 116.921Z" fill="#F8F8F8"/>
</g>
<defs>
<clipPath id="clip0_1020_3328">
<rect width="291" height="542" fill="white" transform="translate(127 33)"/>
</clipPath>
<clipPath id="clip1_1020_3328">
<rect width="77.751" height="119.218" fill="white" transform="translate(0 38.8755) rotate(-30)"/>
</clipPath>
</defs>
</svg>
