<svg width="334" height="522" viewBox="0 0 334 522" fill="none" xmlns="http://www.w3.org/2000/svg">
<g clip-path="url(#clip0_880_6216)">
<path d="M210.026 239.709C210.026 239.709 213.243 248.292 214.643 251.036C216.046 253.783 246.176 311.403 248.751 324.909C251.325 338.412 261.184 370.507 263.759 374.396C266.33 378.29 274.751 403.237 278.961 423.832C283.168 444.431 292.059 479.676 293.93 484.024C295.802 488.372 277.793 488.602 277.793 488.602C277.793 488.602 251.599 436.419 245.753 426.809C239.908 417.198 234.526 400.719 233.826 390.192C233.126 379.665 225.641 374.17 219.092 366.161C212.543 358.149 180.968 297.502 175.122 292.008C169.276 286.514 165.653 286.943 165.653 286.943V242.969L210.026 239.709Z" fill="#2F4563"/>
<path d="M123.238 239.709C123.238 239.709 120.022 248.292 118.618 251.036C117.215 253.783 83.7139 314.934 81.1426 328.437C78.568 341.941 72.0769 370.51 69.5056 374.396C66.9311 378.29 58.5139 403.237 54.3037 423.832C50.0935 444.431 41.2053 479.676 39.3341 484.024C37.4629 488.372 55.4716 488.602 55.4716 488.602C55.4716 488.602 81.6652 436.419 87.5111 426.809C93.357 417.198 98.7351 400.719 99.4384 390.192C100.142 379.665 107.623 374.17 114.173 366.161C120.722 358.149 152.293 297.502 158.143 292.008C163.988 286.514 167.731 286.943 167.731 286.943L167.615 242.972L123.238 239.709Z" fill="#2F4563"/>
<path d="M295.066 481.716C295.066 481.716 301.531 491.558 306.616 494.306C311.704 497.049 330.354 504.742 333.394 511.092C335.526 515.547 332.61 524.331 314.675 521.425C296.741 518.52 290.601 508.835 285.165 507.706C279.729 506.576 273.825 502.373 273.473 494.402C273.121 486.429 276.393 487.853 275.693 484.947C274.993 482.042 295.066 481.716 295.066 481.716Z" fill="#DBDFF0"/>
<path d="M38.934 481.716C38.934 481.716 32.4687 491.558 27.381 494.306C22.2964 497.049 3.64249 504.742 0.6034 511.092C-1.52913 515.547 1.38737 524.331 19.3219 521.425C37.2564 518.52 43.3959 508.835 48.832 507.706C54.2682 506.576 60.1722 502.373 60.5206 494.402C60.8723 486.429 57.6009 487.853 58.3042 484.947C59.0075 482.042 38.934 481.716 38.934 481.716Z" fill="#DBDFF0"/>
<path d="M220.825 139.82C216.05 123.357 223.231 88.7996 223.231 88.7996C213.962 84.7999 202.029 88.3024 196.909 88.3024C191.789 88.3024 177.677 84.4028 177.677 84.4028H166.263H154.849C154.849 84.4028 140.737 88.3024 135.617 88.3024C130.497 88.3024 118.563 84.7967 109.294 88.7996C109.294 88.7996 116.492 123.944 111.717 140.408C111.717 140.408 122.886 171.211 125.584 175.772C128.281 180.333 125.619 197.178 125.522 201.423C125.39 207.505 124.467 224.827 123.232 239.712C123.232 239.712 136.92 247.869 166.256 248.563C195.305 246.675 210.026 239.709 210.026 239.709C208.188 221.983 207 207.062 206.271 201.291C205.739 197.075 204.242 180.333 206.939 175.772C209.639 171.208 220.825 139.82 220.825 139.82Z" fill="#E48100"/>
<path d="M223.235 88.7963C223.235 88.7963 231.119 92.4667 234.817 92.7315C238.517 92.9962 244.266 87.376 251.403 88.0377C258.539 88.6995 261.249 92.4667 267.921 92.1375C274.596 91.8082 276.906 90.4427 277.367 87.9861C277.832 85.5295 286.355 70.3895 282.787 49.6293C279.219 28.8692 289.262 35.2157 289.262 35.2157C289.262 35.2157 299.041 52.9349 301.025 72.5039C303.009 92.0729 296.799 111.245 296.531 113.892C296.266 116.539 294.811 120.503 292.963 121.562C291.111 122.621 267.763 124.603 259.704 125C251.641 125.397 234.952 122.685 230.458 125.726C225.964 128.767 220.299 141.302 220.299 141.302C220.299 141.302 212.575 102.584 223.235 88.7963Z" fill="#EEA886"/>
<path d="M109.291 88.7964C109.291 88.7964 101.406 92.4668 97.709 92.7315C94.0085 92.9962 88.2594 87.376 81.1231 88.0377C73.9867 88.6995 71.2767 92.4668 64.6049 92.1375C57.9298 91.8082 55.6199 90.4427 55.1553 87.9861C54.6939 85.5295 46.1703 70.3895 49.7385 49.6293C53.3067 28.8692 43.2635 35.2157 43.2635 35.2157C43.2635 35.2157 33.4848 52.9349 31.5039 72.5039C29.5198 92.0729 35.7303 111.245 35.9981 113.892C36.2626 116.539 37.7144 120.503 39.5662 121.562C41.4181 122.621 64.763 124.603 72.8252 125C80.8876 125.397 97.5767 122.685 102.071 125.726C106.565 128.767 111.724 140.411 111.724 140.411C111.724 140.411 119.951 102.584 109.291 88.7964Z" fill="#EEA886"/>
<path d="M180.8 65.7829C180.8 65.7829 179.055 76.7166 182.633 84.0832C182.633 84.0832 186.491 101.341 168.776 102.509C151.058 103.678 150.3 87.7859 150.3 87.7859C150.3 87.7859 154.416 81.9946 151.242 66.5447C148.067 51.0981 180.8 65.7829 180.8 65.7829Z" fill="#EEA886"/>
<path d="M168.631 3.04073C168.631 3.04073 191.405 6.20107 188.749 42.6597C186.098 79.1183 166.001 76.5778 164.663 76.5681C163.324 76.5616 144.57 77.6786 142.127 33.2884C142.127 33.2916 140.766 0.458216 168.631 3.04073Z" fill="#EEA886"/>
<path d="M188.872 32.3782C188.872 32.3782 191.298 29.602 192.269 32.3363C193.244 35.0673 189.353 47.0211 189.069 48.0218C189.069 48.0218 188.637 49.1 188.03 48.5254C187.424 47.9508 188.872 32.3782 188.872 32.3782Z" fill="#EEA886"/>
<path d="M142.673 32.9367C142.673 32.9367 140.179 30.2218 139.276 32.9754C138.372 35.7322 142.663 48.1186 142.87 48.5802C142.87 48.5802 143.328 49.6487 143.921 49.058C144.515 48.4705 142.673 32.9367 142.673 32.9367Z" fill="#EEA886"/>
<path d="M188.985 37.9563L185.833 42.479C185.833 42.479 185.71 32.7203 185.152 31.2031C184.597 29.6826 185.617 24.3304 185.159 23.2392C184.697 22.1481 169.702 26.5804 144.905 24.6048C144.905 24.6048 147.851 33.3336 146.251 33.9954C144.654 34.6539 145.683 45.4392 145.683 45.4392L142.941 42.4112C142.941 42.4112 139.518 24.0237 139.743 20.9376C140.043 16.8282 138.23 -2.28889 173.115 0.229064C177.109 0.516368 180.968 1.89478 184.207 4.30943C187.846 7.0243 191.621 11.3016 191.414 17.3027C191.153 25.2278 188.985 37.9563 188.985 37.9563Z" fill="#FCCCA2"/>
<path d="M152.709 70.9834C152.709 70.9834 163.072 82.5627 178.848 70.4055C178.848 70.4055 174.551 79.4604 165.124 79.8769C155.703 80.2933 152.709 70.9834 152.709 70.9834Z" fill="#A77860"/>
<path d="M139.063 87.9763C139.063 87.9763 139.608 129.555 166.266 130.846V83.1438C166.266 83.1438 153.878 83.5893 139.063 87.9763Z" fill="#EEA886"/>
<path d="M193.47 87.9763C193.47 87.9763 192.924 129.555 166.263 130.846V83.1438C166.266 83.1438 178.652 83.5893 193.47 87.9763Z" fill="#EEA886"/>
<path d="M304.029 37.9242C304.029 54.2457 290.804 67.4779 274.493 67.4779C258.184 67.4779 244.96 54.2457 244.96 37.9242C244.96 21.6028 258.184 8.37061 274.493 8.37061C290.804 8.37383 304.029 21.6028 304.029 37.9242Z" fill="#434343"/>
<path d="M288.865 37.9241C288.865 45.8653 282.432 52.3055 274.493 52.3055C266.556 52.3055 260.12 45.8653 260.12 37.9241C260.12 29.9829 266.556 23.5427 274.493 23.5427C282.429 23.5427 288.865 29.9829 288.865 37.9241Z" fill="#6B6B6B"/>
<path d="M88.1595 37.9242C88.1595 54.2457 74.9353 67.4779 58.6236 67.4779C42.3118 67.4779 29.0908 54.2457 29.0908 37.9242C29.0908 21.6028 42.3151 8.37061 58.6236 8.37061C74.9353 8.37383 88.1595 21.6028 88.1595 37.9242Z" fill="#434343"/>
<path d="M72.9963 37.9241C72.9963 45.8653 66.5632 52.3055 58.6235 52.3055C50.687 52.3055 44.2507 45.8653 44.2507 37.9241C44.2507 29.9829 50.687 23.5427 58.6235 23.5427C66.56 23.5427 72.9963 29.9829 72.9963 37.9241Z" fill="#6B6B6B"/>
</g>
<defs>
<clipPath id="clip0_880_6216">
<rect width="334" height="522" fill="white"/>
</clipPath>
</defs>
</svg>
