<svg width="38" height="32" viewBox="0 0 38 32" fill="none" xmlns="http://www.w3.org/2000/svg">
<g id="Frame 12">
<path id="Vector" d="M31.1689 0.0375842C31.5714 0.0339656 31.9772 0.0303471 32.3933 0.0267286C35.3503 0.0520583 35.3503 0.0520582 36.3768 0.887937C37.2329 2.08929 37.1579 3.29787 37.1374 4.74166C37.151 5.15056 37.151 5.15056 37.1613 5.56669C37.1579 7.07923 37.0555 7.68714 36.162 8.93191C34.9922 9.84016 34.2691 9.79674 32.8537 9.64838C32.9083 9.99938 32.9629 10.3504 33.0209 10.7122C33.2289 12.2827 33.2562 13.8314 33.2562 15.4163C33.263 15.6913 33.2664 15.9663 33.2698 16.2486C33.2767 18.1447 33.0072 19.7658 32.5127 21.5895C33.512 21.6619 33.512 21.6619 34.5113 21.7306C35.5788 22.0563 35.9573 22.4326 36.6053 23.3988C36.8304 24.4807 36.8407 25.5301 36.8373 26.6337C36.8611 27.0679 36.8611 27.068 36.8816 27.5094C36.8884 28.6927 36.8645 29.5539 36.1688 30.5128C34.5795 31.8914 32.9697 32.0109 30.978 31.971C30.6983 31.9819 30.422 31.9928 30.1321 32C28.287 31.9928 27.1274 31.5947 25.7973 30.2088C25.0231 29.069 24.9447 28.0088 24.9242 26.6337C24.9038 26.384 24.8833 26.1308 24.8628 25.8738C24.8083 24.5169 24.9686 23.8221 25.695 22.7004C26.7148 21.9514 26.7148 21.9514 29.4432 21.5895C29.4432 17.6489 29.4432 13.7084 29.4432 9.64838C28.5428 9.64838 27.6424 9.64838 26.7148 9.64838C25.7052 8.92468 25.7052 8.92468 25.0095 7.83912C24.8356 6.78613 24.7673 5.99005 24.7946 4.9443C24.7878 4.691 24.781 4.44133 24.7742 4.18079C24.7878 2.90345 24.9924 2.07843 25.5961 0.9784C27.373 -0.194001 29.1226 -0.00583811 31.1689 0.0375842Z" fill="#E48100"/>
<path id="Vector_2" d="M27.4441 15.0587C27.7948 15.2404 27.7948 15.2404 28.1525 15.4221C28.1525 17.4607 28.1525 19.4993 28.1525 21.5996C27.4512 21.5996 26.0274 21.963 26.0274 21.963C26.0274 21.963 25.5591 22.1263 25.319 22.3264C25.0507 22.5501 24.9734 22.6383 24.7878 22.8715C24.0037 23.8565 24.0829 24.9501 24.0121 26.0293C23.9909 26.3564 23.9661 26.6834 23.9413 27.0214C23.9236 27.3957 23.9236 27.3957 23.9023 27.7772C22.3439 27.2539 21.4053 26.8978 20.5588 25.4152C20.0063 24.1434 20.0063 24.1434 20.0063 23.0532C19.6132 23.1731 19.2165 23.293 18.8092 23.4166C16.6345 23.9762 14.3783 24.0525 12.2143 23.4166C12.2001 23.7 12.1859 23.9871 12.1718 24.2814C11.7361 26.1274 10.8967 27.7482 9.735 29.2308C8.61932 29.7177 7.41864 29.6668 6.21442 29.685C5.85316 29.6959 5.49189 29.7032 5.12 29.7141C3.50847 29.5324 2.6053 28.8492 1.5215 27.6391C-0.0616926 25.288 -0.199823 22.9369 0.172069 20.1461C0.685633 18.4418 1.27712 17.2644 2.65135 16.1488C4.74811 15.6292 7.71616 15.1895 9.735 16.1488C10.3371 16.9519 10.3371 16.9519 10.8861 17.944C11.0703 18.2674 11.2544 18.5944 11.4457 18.9287C11.8601 19.7827 11.8601 19.7827 11.8601 20.5095C12.1505 20.4513 12.4374 20.3896 12.7385 20.3278C14.1587 20.1207 15.5188 20.1061 16.9532 20.1243C17.2118 20.1243 17.4739 20.1279 17.7431 20.1279C18.3771 20.1316 19.0146 20.1388 19.6521 20.1461C19.6982 19.819 19.7477 19.492 19.7938 19.154C20.6226 14.4991 23.4242 14.6153 27.4441 15.0587Z" fill="#E48100"/>
</g>
</svg>
