<svg width="96" height="84" viewBox="0 0 96 84" fill="none" xmlns="http://www.w3.org/2000/svg">
<g id="Frame" clip-path="url(#clip0_880_4298)">
<path id="Vector" d="M1 81.2188H90" stroke="#263238" stroke-miterlimit="10"/>
<g id="Group" filter="url(#filter0_d_880_4298)">
<g id="Group_2">
<path id="Vector_2" d="M71.2781 28.2118C71.9294 27.2936 76.2184 29.848 75.691 31.6621C75.1636 33.4762 73.448 33.2792 72.4409 32.3165C71.4369 31.3539 70.5791 29.1935 71.2781 28.2118Z" fill="#E48100"/>
<g id="Clip path group">
<mask id="mask0_880_4298" style="mask-type:luminance" maskUnits="userSpaceOnUse" x="71" y="28" width="5" height="6">
<g id="XMLID_16_">
<path id="Vector_3" d="M71.2794 28.2108C71.9307 27.2926 76.2198 29.847 75.6924 31.6611C75.165 33.4752 73.4494 33.2782 72.4422 32.3156C71.4383 31.3529 70.5805 29.1925 71.2794 28.2108Z" fill="white"/>
</g>
</mask>
<g mask="url(#mask0_880_4298)">
<path id="Vector_4" opacity="0.3" d="M71.2793 28.2113C71.9306 27.2931 76.2196 29.8475 75.6923 31.6616C75.1649 33.4757 73.4492 33.2787 72.4421 32.316C71.4382 31.3534 70.5804 29.193 71.2793 28.2113Z" fill="black" fill-opacity="0.7"/>
</g>
</g>
<path id="Vector_5" d="M71.2781 28.2118C71.9294 27.2936 76.2184 29.848 75.691 31.6621C75.1636 33.4762 73.448 33.2792 72.4409 32.3165C71.4369 31.3539 70.5791 29.1935 71.2781 28.2118Z" stroke="#263238" stroke-width="0.4" stroke-miterlimit="10" stroke-linecap="round" stroke-linejoin="round"/>
</g>
<g id="Group_3">
<path id="Vector_6" d="M73.3105 21.1704C73.3105 21.1704 73.9332 21.1704 75.0007 23.6199C75.7441 25.3292 75.3311 27.0003 75.3311 27.0003L73.7839 34.4537L69.9937 32.1916L72.1826 26.7176C72.1795 26.7207 71.0453 23.1847 73.3105 21.1704Z" fill="white" stroke="#263238" stroke-width="0.4" stroke-miterlimit="10" stroke-linecap="round" stroke-linejoin="round"/>
<g id="Group_4">
<g id="Group_5">
<path id="Vector_7" d="M71.7848 25.9679L69.3671 26.7685C69.1129 26.8353 68.6077 26.4064 68.63 26.1458L69.348 17.7012C69.3766 17.3613 69.618 17.0753 69.9485 16.9896L72.6267 16.4082C72.8809 16.3414 73.5258 16.6496 73.5036 16.9101L72.3884 25.2563C72.3567 25.5962 72.1152 25.8821 71.7848 25.9679Z" fill="#E48100"/>
<g id="Clip path group_2">
<mask id="mask1_880_4298" style="mask-type:luminance" maskUnits="userSpaceOnUse" x="68" y="16" width="6" height="11">
<g id="XMLID_17_">
<path id="Vector_8" d="M71.7835 25.9684L69.3657 26.769C69.1116 26.8358 68.6064 26.4069 68.6286 26.1463L69.3467 17.7017C69.3752 17.3618 69.6167 17.0758 69.9471 16.99L72.6254 16.4086C72.8795 16.3419 73.5245 16.6501 73.5022 16.9106L72.3871 25.2568C72.3553 25.5967 72.1139 25.8826 71.7835 25.9684Z" fill="white"/>
</g>
</mask>
<g mask="url(#mask1_880_4298)">
<path id="Vector_9" opacity="0.3" d="M71.7836 25.9689L69.3658 26.7695C69.1117 26.8362 68.6065 26.4073 68.6288 26.1468L69.3468 17.7022C69.3754 17.3623 69.6168 17.0763 69.9472 16.9905L72.6255 16.4091C72.8797 16.3424 73.5246 16.6506 73.5024 16.9111L72.3872 25.2572C72.3554 25.5972 72.114 25.8831 71.7836 25.9689Z" fill="black" fill-opacity="0.7"/>
</g>
</g>
<path id="Vector_10" d="M71.7848 25.9679L69.3671 26.7685C69.1129 26.8353 68.6077 26.4064 68.63 26.1458L69.348 17.7012C69.3766 17.3613 69.618 17.0753 69.9485 16.9896L72.6267 16.4082C72.8809 16.3414 73.5258 16.6496 73.5036 16.9101L72.3884 25.2563C72.3567 25.5962 72.1152 25.8821 71.7848 25.9679Z" stroke="#263238" stroke-width="0.4" stroke-miterlimit="10" stroke-linecap="round" stroke-linejoin="round"/>
</g>
<path id="Vector_11" d="M72.1822 26.1784L69.504 26.7598C69.2498 26.8265 69.0052 26.62 69.0274 26.3563L69.7454 17.9117C69.774 17.5717 70.0155 17.2858 70.3459 17.2L73.0241 16.6186C73.2783 16.5519 73.5229 16.7584 73.5007 17.0221L72.7827 25.4667C72.7541 25.8067 72.5126 26.0926 72.1822 26.1784Z" fill="#E48100" stroke="#263238" stroke-width="0.4" stroke-miterlimit="10" stroke-linecap="round" stroke-linejoin="round"/>
<path id="Vector_12" opacity="0.3" d="M70.6982 19.4708L70.2661 19.5661C70.2248 19.5756 70.1867 19.5439 70.1899 19.5026L70.3043 18.1396C70.3074 18.0856 70.3487 18.0379 70.4027 18.0252L70.8348 17.9299C70.8761 17.9204 70.9143 17.9522 70.9111 17.9935L70.7967 19.3564C70.7903 19.4136 70.7522 19.4581 70.6982 19.4708Z" fill="black" fill-opacity="0.7"/>
</g>
<g id="Group_6">
<g id="Vector_13">
<path d="M74.464 23.7061C74.5689 22.5211 73.4886 20.7451 72.7738 20.7451C72.0558 20.7451 69.8732 22.4258 69.8732 22.4258C69.0281 23.039 69.4474 23.6204 69.4474 23.6204C68.9518 23.9476 68.8152 24.3924 69.0408 24.5989C69.2949 24.8308 69.9907 24.5989 69.9907 24.5989C69.9907 24.5989 69.2663 25.1295 69.4474 25.3868C69.8732 26 71.2774 25.1898 71.2774 25.1898C71.2774 25.1898 70.4641 25.7267 70.5086 25.8284C70.8167 26.4988 72.1448 25.7172 72.1448 25.7172L73.0788 26.1969C73.0788 26.1969 73.0693 26.988 73.9303 27.0007" fill="white"/>
<path d="M74.464 23.7061C74.5689 22.5211 73.4886 20.7451 72.7738 20.7451C72.0558 20.7451 69.8732 22.4258 69.8732 22.4258C69.0281 23.039 69.4474 23.6204 69.4474 23.6204C68.9518 23.9476 68.8152 24.3924 69.0408 24.5989C69.2949 24.8308 69.9907 24.5989 69.9907 24.5989C69.9907 24.5989 69.2663 25.1295 69.4474 25.3868C69.8732 26 71.2774 25.1898 71.2774 25.1898C71.2774 25.1898 70.4641 25.7267 70.5086 25.8284C70.8167 26.4988 72.1448 25.7172 72.1448 25.7172L73.0788 26.1969C73.0788 26.1969 73.0693 26.988 73.9303 27.0007" stroke="#263238" stroke-width="0.4" stroke-miterlimit="10" stroke-linecap="round" stroke-linejoin="round"/>
</g>
<g id="Vector_14">
<path d="M69.447 23.62C69.447 23.62 71.4899 22.2984 71.7472 22.2634C72.0046 22.2285 72.9513 22.022 72.9513 22.022" fill="white"/>
<path d="M69.447 23.62C69.447 23.62 71.4899 22.2984 71.7472 22.2634C72.0046 22.2285 72.9513 22.022 72.9513 22.022" stroke="#263238" stroke-width="0.4" stroke-miterlimit="10" stroke-linecap="round" stroke-linejoin="round"/>
</g>
<g id="Vector_15">
<path d="M69.991 24.5993C69.991 24.5993 71.6526 23.7415 71.9544 23.7415C72.2721 23.7415 73.311 23.5063 73.311 23.5063" fill="white"/>
<path d="M69.991 24.5993C69.991 24.5993 71.6526 23.7415 71.9544 23.7415C72.2721 23.7415 73.311 23.5063 73.311 23.5063" stroke="#263238" stroke-width="0.4" stroke-miterlimit="10" stroke-linecap="round" stroke-linejoin="round"/>
</g>
<g id="Vector_16">
<path d="M71.2782 25.1938C71.2782 25.1938 71.7198 24.8888 71.8914 24.8316C72.0629 24.7744 73.0828 24.8316 73.0828 24.8316" fill="white"/>
<path d="M71.2782 25.1938C71.2782 25.1938 71.7198 24.8888 71.8914 24.8316C72.0629 24.7744 73.0828 24.8316 73.0828 24.8316" stroke="#263238" stroke-width="0.4" stroke-miterlimit="10" stroke-linecap="round" stroke-linejoin="round"/>
</g>
</g>
</g>
<g id="Group_7">
<path id="Vector_17" d="M54.9276 25.1479C58.1111 25.1956 65.4024 36.5758 65.4024 36.5758L69.9901 30.8603L71.2768 28.2106C71.2768 28.2106 71.9027 32.9762 75.6897 31.6609C75.6897 31.6609 72.3602 44.1722 68.6303 45.6813C64.9004 47.1904 54.54 36.5758 54.54 36.5758L54.9276 25.1479Z" fill="#E48100"/>
<g id="Clip path group_3">
<mask id="mask2_880_4298" style="mask-type:luminance" maskUnits="userSpaceOnUse" x="54" y="25" width="22" height="21">
<g id="XMLID_18_">
<path id="Vector_18" d="M54.9278 25.1499C58.1112 25.1976 65.4025 36.5778 65.4025 36.5778L69.9902 30.8623L71.2769 28.2126C71.2769 28.2126 71.9028 32.9782 75.6899 31.6629C75.6899 31.6629 72.3603 44.1741 68.6304 45.6832C64.9006 47.1923 54.5402 36.5778 54.5402 36.5778L54.9278 25.1499Z" fill="white"/>
</g>
</mask>
<g mask="url(#mask2_880_4298)">
<path id="Vector_19" opacity="0.2" d="M55.1879 37.2221C56.5 38.5088 59.6072 41.4507 62.6349 43.5381C61.7453 40.5611 59.3085 37.3904 59.3085 37.3904C58.5524 37.1395 57.4849 34.8742 57.4849 34.8742C56.9829 35.0648 56.2712 33.4922 56.2712 33.4922C55.6867 33.991 55.3594 35.4556 55.1879 37.2221Z" fill="black" fill-opacity="0.7"/>
</g>
</g>
<g id="Clip path group_4">
<mask id="mask3_880_4298" style="mask-type:luminance" maskUnits="userSpaceOnUse" x="54" y="25" width="22" height="21">
<g id="XMLID_18__2">
<path id="Vector_20" d="M54.9278 25.1499C58.1112 25.1976 65.4025 36.5778 65.4025 36.5778L69.9902 30.8623L71.2769 28.2126C71.2769 28.2126 71.9028 32.9782 75.6899 31.6629C75.6899 31.6629 72.3603 44.1741 68.6304 45.6832C64.9006 47.1923 54.5402 36.5778 54.5402 36.5778L54.9278 25.1499Z" fill="white"/>
</g>
</mask>
<g mask="url(#mask3_880_4298)">
<path id="Vector_21" opacity="0.2" d="M65.1933 39.4969C65.1933 39.4969 64.9645 38.0672 65.457 36.5104L65.403 36.5803C65.403 36.5803 64.9074 35.8083 64.1194 34.6646C63.9129 36.1482 63.8081 38.62 65.1933 39.4969Z" fill="black" fill-opacity="0.7"/>
</g>
</g>
<path id="Vector_22" d="M54.9276 25.1479C58.1111 25.1956 65.4024 36.5758 65.4024 36.5758L69.9901 30.8603L71.2768 28.2106C71.2768 28.2106 71.9027 32.9762 75.6897 31.6609C75.6897 31.6609 72.3602 44.1722 68.6303 45.6813C64.9004 47.1904 54.54 36.5758 54.54 36.5758L54.9276 25.1479Z" stroke="#263238" stroke-width="0.4" stroke-miterlimit="10" stroke-linecap="round" stroke-linejoin="round"/>
</g>
<g id="Group_8">
<path id="Vector_23" d="M21.9977 74.1574C21.9977 74.1574 19.9866 78.1955 19.9866 79.1581C19.9866 80.1208 19.653 80.537 17.8929 80.537C16.1328 80.537 11.7771 80.5751 11.1067 80.2637C11.1067 80.2637 7.61833 80.2637 7.03375 80.2637C6.06792 80.2637 5.69303 79.3487 6.28078 79.4758C6.86854 79.5997 11.1893 78.4051 12.3617 77.9222C13.534 77.4393 15.472 76.8674 16.5141 75.8603C17.5562 74.8532 18.8175 71.0947 18.8175 71.0947L21.9977 74.1574Z" fill="white" stroke="#263238" stroke-width="0.4" stroke-miterlimit="10" stroke-linecap="round" stroke-linejoin="round"/>
<path id="Vector_24" d="M11.1062 80.2673C11.1062 79.0854 12.3643 79.6509 14.2896 79.1617C15.5191 78.8471 15.6462 78.415 15.6462 78.415" stroke="#263238" stroke-width="0.4" stroke-miterlimit="10" stroke-linecap="round" stroke-linejoin="round"/>
</g>
<g id="Group_9">
<path id="Vector_25" d="M56.2206 32.4498C56.3477 34.7627 56.4017 37.1614 56.497 38.9532C56.7226 43.2836 59.6232 55.941 59.6232 55.941C59.6232 55.941 62.7908 57.844 62.9592 61.3325C63.1275 64.8209 43.703 74.6698 38.4926 71.8644C33.2822 69.0591 33.9844 60.9004 33.9844 60.9004C33.9844 60.9004 26.2768 29.7588 29.4316 27.2585C32.5896 24.7581 33.6476 25.0663 41.7269 23.9512C49.8061 22.836 54.9307 25.1457 54.9307 25.1457C54.9307 25.1457 55.6646 25.8097 55.8521 26.7724" fill="#E48100"/>
<g id="Clip path group_5">
<mask id="mask4_880_4298" style="mask-type:luminance" maskUnits="userSpaceOnUse" x="28" y="23" width="35" height="50">
<g id="XMLID_19_">
<path id="Vector_26" d="M56.2199 32.4518C56.347 34.7647 56.401 37.1633 56.4963 38.9552C56.7219 43.2855 59.6225 55.9429 59.6225 55.9429C59.6225 55.9429 62.79 57.846 62.9584 61.3344C63.1268 64.8228 43.7023 74.6717 38.4919 71.8664C33.2815 69.061 33.9836 60.9023 33.9836 60.9023C33.9836 60.9023 26.2761 29.7608 29.4309 27.2604C32.5889 24.7601 33.6469 25.0683 41.7261 23.9531C49.8054 22.838 54.93 25.1477 54.93 25.1477C54.93 25.1477 55.6639 25.8117 55.8513 26.7744" fill="white"/>
</g>
</mask>
<g mask="url(#mask4_880_4298)">
<path id="Vector_27" opacity="0.2" d="M33.981 60.9041C33.981 60.9041 33.2789 69.0628 38.4892 71.8713C43.7028 74.6767 63.1242 64.8278 62.9558 61.3362C62.7906 57.8478 59.623 55.9447 59.623 55.9447C59.623 55.9447 59.3371 54.6898 58.9336 52.8376C56.1791 54.6231 49.9012 58.3275 45.8155 57.9145C45.8155 57.9145 52.6176 60.3259 56.967 58.2545C61.3196 56.1798 55.1593 60.9804 53.9043 60.9041C52.6462 60.8311 43.2834 59.1345 41.5869 60.0146C39.8903 60.8914 36.1191 67.3663 36.1191 67.3663C36.1191 67.3663 33.8317 62.2258 34.34 59.071C34.34 59.071 34.4067 49.2475 33.3138 43.5065C33.3138 43.5065 35.9285 38.9951 33.0374 35.4908C31.9699 34.1978 30.8039 36.8601 29.7587 40.733C31.3122 50.118 33.981 60.9041 33.981 60.9041Z" fill="black" fill-opacity="0.7"/>
</g>
</g>
<path id="Vector_28" d="M56.2206 32.4498C56.3477 34.7627 56.4017 37.1614 56.497 38.9532C56.7226 43.2836 59.6232 55.941 59.6232 55.941C59.6232 55.941 62.7908 57.844 62.9592 61.3325C63.1275 64.8209 43.703 74.6698 38.4926 71.8644C33.2822 69.0591 33.9844 60.9004 33.9844 60.9004C33.9844 60.9004 26.2768 29.7588 29.4316 27.2585C32.5896 24.7581 33.6476 25.0663 41.7269 23.9512C49.8061 22.836 54.9307 25.1457 54.9307 25.1457C54.9307 25.1457 55.6646 25.8097 55.8521 26.7724" stroke="#263238" stroke-width="0.4" stroke-miterlimit="10" stroke-linecap="round" stroke-linejoin="round"/>
</g>
<path id="Vector_29" d="M60.1229 58.9219C60.6121 58.8616 61.937 59.6971 61.937 59.6971C61.937 59.6971 83.3631 54.1945 86.5878 55.9419C93.0531 59.443 89.6028 66.3531 88.2621 68.3356C86.9214 70.3181 67.1474 79.684 60.2754 79.8588C53.4034 80.0367 40.8159 78.14 38.3378 74.0956C35.8565 70.0512 38.3981 65.5652 41.8452 62.2706C45.3527 58.9188 52.1929 61.8512 54.5408 61.1808C57.5685 60.3198 58.6297 59.1094 60.1229 58.9219Z" fill="#263238"/>
<g id="Group_10">
<path id="Vector_30" d="M42.2008 77.7466L41.8831 79.1286C41.8831 79.1286 42.725 81.5209 46.4326 81.9117C50.1402 82.3025 52.3324 83.1222 54.1116 83.2302C55.8907 83.3382 56.9296 83.1857 56.9296 83.1857L57.295 82.6424L42.2008 77.7466Z" fill="white" stroke="#263238" stroke-width="0.4" stroke-miterlimit="10" stroke-linecap="round" stroke-linejoin="round"/>
<g id="Group_11">
<path id="Vector_31" d="M63.7166 77.6003L57.2958 82.6392C57.2958 82.6392 52.3173 82.2452 48.0887 81.2635V81.2603C45.045 80.555 42.389 79.5447 42.2429 78.1627C42.0205 76.0595 44.2698 75.4812 46.9417 75.5638C47.4405 75.5766 47.952 75.6147 48.4699 75.6687C52.7494 76.1262 58.1854 73.7656 58.1854 73.7656L63.7166 77.6003Z" fill="#E48100"/>
<g id="Clip path group_6">
<mask id="mask5_880_4298" style="mask-type:luminance" maskUnits="userSpaceOnUse" x="42" y="73" width="22" height="10">
<g id="XMLID_20_">
<path id="Vector_32" d="M63.7166 77.5994L57.2958 82.6382C57.2958 82.6382 52.3173 82.2442 48.0887 81.2625V81.2593C45.045 80.554 42.389 79.5437 42.2429 78.1617C42.0205 76.0585 44.2698 75.4803 46.9417 75.5629C47.4405 75.5756 47.952 75.6137 48.4699 75.6677C52.7494 76.1252 58.1854 73.7646 58.1854 73.7646L63.7166 77.5994Z" fill="white"/>
</g>
</mask>
<g mask="url(#mask5_880_4298)">
<path id="Vector_33" opacity="0.2" d="M42.2456 78.1153C43.3989 78.5696 44.8318 79.2018 45.8166 79.8722C45.8166 79.8722 51.78 82.9412 60.9426 79.78L63.7194 77.6006L58.1913 73.7627C58.1913 73.7627 52.7553 76.1264 48.4758 75.6658C47.958 75.6117 47.4465 75.5736 46.9477 75.5641C44.2948 75.4815 42.0614 76.047 42.2456 78.1153Z" fill="black" fill-opacity="0.7"/>
</g>
</g>
<path id="Vector_34" d="M63.7166 77.6003L57.2958 82.6392C57.2958 82.6392 52.3173 82.2452 48.0887 81.2635V81.2603C45.045 80.555 42.389 79.5447 42.2429 78.1627C42.0205 76.0595 44.2698 75.4812 46.9417 75.5638C47.4405 75.5766 47.952 75.6147 48.4699 75.6687C52.7494 76.1262 58.1854 73.7656 58.1854 73.7656L63.7166 77.6003Z" stroke="#263238" stroke-width="0.4" stroke-miterlimit="10" stroke-linecap="round" stroke-linejoin="round"/>
</g>
<g id="Group_12">
<path id="Vector_35" d="M57.7305 79.587C58.887 79.7745 57.6161 82.1414 56.0467 81.4234C54.4804 80.7054 56.5741 79.3996 57.7305 79.587Z" fill="white"/>
<g id="Clip path group_7">
<mask id="mask6_880_4298" style="mask-type:luminance" maskUnits="userSpaceOnUse" x="55" y="79" width="4" height="3">
<g id="XMLID_21_">
<path id="Vector_36" d="M57.7302 79.5875C58.8866 79.775 57.6158 82.1419 56.0463 81.4239C54.48 80.7059 56.5737 79.4001 57.7302 79.5875Z" fill="white"/>
</g>
</mask>
<g mask="url(#mask6_880_4298)">
<path id="Vector_37" opacity="0.2" d="M55.5599 81.0429C56.351 80.9476 57.1834 80.8047 58.0539 80.6077C58.2763 80.1438 58.2255 79.6673 57.7331 79.5878C56.7609 79.429 55.1279 80.3249 55.5599 81.0429Z" fill="black" fill-opacity="0.7"/>
</g>
</g>
<path id="Vector_38" d="M57.7305 79.587C58.887 79.7745 57.6161 82.1414 56.0467 81.4234C54.4804 80.7054 56.5741 79.3996 57.7305 79.587Z" stroke="#263238" stroke-width="0.4" stroke-miterlimit="10" stroke-linecap="round" stroke-linejoin="round"/>
</g>
<g id="Group_13">
<path id="Vector_39" d="M48.0908 81.2592C45.0472 80.5539 42.3912 79.5436 42.2451 78.1616C42.0227 76.0583 44.272 75.4801 46.9439 75.5627C47.0615 75.6739 49.654 78.1806 48.0908 81.2592Z" fill="white"/>
<g id="Clip path group_8">
<mask id="mask7_880_4298" style="mask-type:luminance" maskUnits="userSpaceOnUse" x="42" y="75" width="7" height="7">
<g id="XMLID_22_">
<path id="Vector_40" d="M48.0911 81.2587C45.0475 80.5534 42.3914 79.5431 42.2453 78.1611C42.0229 76.0579 44.2723 75.4796 46.9442 75.5622C47.0617 75.6734 49.6542 78.1801 48.0911 81.2587Z" fill="white"/>
</g>
</mask>
<g mask="url(#mask7_880_4298)">
<path id="Vector_41" opacity="0.2" d="M42.2448 78.114C43.3981 78.5684 44.8309 79.2006 45.8158 79.871C45.8158 79.871 46.7054 80.3285 48.3257 80.7097C49.3519 77.8885 47.058 75.6677 46.9468 75.5629C44.294 75.4803 42.0605 76.0458 42.2448 78.114Z" fill="black" fill-opacity="0.7"/>
</g>
</g>
<path id="Vector_42" d="M48.0908 81.2592C45.0472 80.5539 42.3912 79.5436 42.2451 78.1616C42.0227 76.0583 44.272 75.4801 46.9439 75.5627C47.0615 75.6739 49.654 78.1806 48.0908 81.2592Z" stroke="#263238" stroke-width="0.4" stroke-miterlimit="10" stroke-linecap="round" stroke-linejoin="round"/>
</g>
<g id="Group_14">
<path id="Vector_43" d="M50.2611 78.6447C50.2547 78.6447 50.2484 78.6447 50.242 78.6447C50.0673 78.6542 49.918 78.5176 49.9084 78.3428C49.8449 77.018 48.8251 75.9378 48.8155 75.9283C48.6948 75.8012 48.698 75.601 48.8251 75.4803C48.9521 75.3596 49.1523 75.3628 49.273 75.4898C49.3207 75.5407 50.4676 76.748 50.5438 78.3142C50.5534 78.4826 50.4263 78.6288 50.2611 78.6447Z" fill="white" stroke="#263238" stroke-width="0.4" stroke-miterlimit="10" stroke-linecap="round" stroke-linejoin="round"/>
</g>
<g id="Group_15">
<path id="Vector_44" d="M51.5314 78.7213C51.5219 78.7213 51.5124 78.7245 51.5029 78.7245C51.3281 78.7277 51.182 78.5879 51.1788 78.4131C51.1534 77.0756 50.2161 75.9128 50.2066 75.9001C50.0954 75.7634 50.1145 75.5633 50.2511 75.4521C50.3877 75.3409 50.5847 75.36 50.6991 75.4966C50.7435 75.5506 51.7856 76.8341 51.8142 78.3972C51.8206 78.5656 51.6935 78.7054 51.5314 78.7213Z" fill="white" stroke="#263238" stroke-width="0.4" stroke-miterlimit="10" stroke-linecap="round" stroke-linejoin="round"/>
</g>
<g id="Group_16">
<path id="Vector_45" d="M53.0537 78.5628C53.0505 78.5628 53.0505 78.5628 53.0473 78.5628C52.8726 78.5787 52.7169 78.4484 52.7042 78.2737C52.6057 77.1617 51.659 75.7384 51.6494 75.7225C51.5509 75.5764 51.5922 75.3794 51.7352 75.2809C51.8813 75.1824 52.0783 75.2237 52.1768 75.3667C52.2213 75.4302 53.2252 76.9393 53.3364 78.2165C53.3523 78.3912 53.2252 78.5437 53.0537 78.5628Z" fill="white" stroke="#263238" stroke-width="0.4" stroke-miterlimit="10" stroke-linecap="round" stroke-linejoin="round"/>
</g>
<g id="Group_17">
<path id="Vector_46" d="M54.4909 78.4108C54.4623 78.414 54.4337 78.414 54.4051 78.4076C54.2335 78.379 54.116 78.2138 54.1446 78.0423C54.3701 76.692 53.1184 75.5356 53.1025 75.526C52.9722 75.4085 52.9627 75.2083 53.0802 75.0781C53.1978 74.9478 53.3979 74.9383 53.5282 75.0558C53.5917 75.113 55.0532 76.4537 54.7704 78.1503C54.7482 78.2901 54.6306 78.3949 54.4909 78.4108Z" fill="white" stroke="#263238" stroke-width="0.4" stroke-miterlimit="10" stroke-linecap="round" stroke-linejoin="round"/>
</g>
<g id="Group_18">
<path id="Vector_47" d="M56.05 78.0349C56.015 78.0381 55.9801 78.0381 55.9451 78.0286C55.7735 77.9904 55.6687 77.8189 55.7068 77.6473C55.9832 76.4432 54.7982 75.0834 54.7855 75.0707C54.6711 74.9405 54.6806 74.7371 54.8141 74.6228C54.9443 74.5052 55.1445 74.5179 55.262 74.6482C55.3192 74.7149 56.679 76.2653 56.3264 77.7871C56.2978 77.9237 56.1834 78.019 56.05 78.0349Z" fill="white" stroke="#263238" stroke-width="0.4" stroke-miterlimit="10" stroke-linecap="round" stroke-linejoin="round"/>
</g>
</g>
<g id="Group_19">
<path id="Vector_48" d="M89.0752 75.6792L89.5358 77.0199C89.5358 77.0199 88.9481 79.4885 85.304 80.2637C81.6599 81.0421 79.5631 82.0873 77.8061 82.3828C76.046 82.6751 74.9976 82.6338 74.9976 82.6338L74.5782 82.1318L89.0752 75.6792Z" fill="white" stroke="#263238" stroke-width="0.4" stroke-miterlimit="10" stroke-linecap="round" stroke-linejoin="round"/>
<g id="Group_20">
<path id="Vector_49" d="M67.665 77.7945L74.5783 82.1312C74.5783 82.1312 79.4869 81.2162 83.5885 79.7961V79.7929C86.54 78.773 89.0753 77.4895 89.0753 76.098C89.0753 73.982 86.7782 73.6453 84.1286 74.0075C83.6329 74.071 83.1278 74.1631 82.6195 74.2712C78.413 75.1766 72.7579 73.3975 72.7579 73.3975L67.665 77.7945Z" fill="#E48100"/>
<g id="Clip path group_9">
<mask id="mask8_880_4298" style="mask-type:luminance" maskUnits="userSpaceOnUse" x="67" y="73" width="23" height="10">
<g id="XMLID_23_">
<path id="Vector_50" d="M67.6656 77.7931L74.5789 82.1297C74.5789 82.1297 79.4875 81.2147 83.5891 79.7946V79.7914C86.5406 78.7716 89.0759 77.4881 89.0759 76.0965C89.0759 73.9806 86.7788 73.6438 84.1292 74.006C83.6336 74.0695 83.1284 74.1617 82.6201 74.2697C78.4136 75.1752 72.7585 73.396 72.7585 73.396L67.6656 77.7931Z" fill="white"/>
</g>
</mask>
<g mask="url(#mask8_880_4298)">
<path id="Vector_51" opacity="0.2" d="M67.6652 77.7931L71.7318 80.3442C75.8143 79.1147 78.4703 76.5127 79.989 74.527C76.383 74.5366 72.758 73.396 72.758 73.396L67.6652 77.7931Z" fill="black" fill-opacity="0.7"/>
</g>
</g>
<path id="Vector_52" d="M67.665 77.7945L74.5783 82.1312C74.5783 82.1312 79.4869 81.2162 83.5885 79.7961V79.7929C86.54 78.773 89.0753 77.4895 89.0753 76.098C89.0753 73.982 86.7782 73.6453 84.1286 74.0075C83.6329 74.071 83.1278 74.1631 82.6195 74.2712C78.413 75.1766 72.7579 73.3975 72.7579 73.3975L67.665 77.7945Z" stroke="#263238" stroke-width="0.4" stroke-miterlimit="10" stroke-linecap="round" stroke-linejoin="round"/>
</g>
<path id="Vector_53" d="M83.5892 79.7919C86.5407 78.772 89.076 77.4885 89.076 76.0969C89.076 73.981 86.779 73.6442 84.1293 74.0064C84.0245 74.1303 81.7116 76.8944 83.5892 79.7919Z" fill="white" stroke="#263238" stroke-width="0.4" stroke-miterlimit="10" stroke-linecap="round" stroke-linejoin="round"/>
<g id="Group_21">
<path id="Vector_54" d="M81.1555 77.4228C81.1619 77.4228 81.1682 77.4228 81.1746 77.4228C81.3493 77.4133 81.4828 77.2639 81.4732 77.0892C81.397 75.7644 82.2993 74.5825 82.3088 74.573C82.4168 74.4332 82.3914 74.2362 82.2516 74.1282C82.1118 74.0202 81.9149 74.0456 81.8068 74.1822C81.7624 74.2362 80.7489 75.5579 80.841 77.1241C80.8474 77.2925 80.9871 77.4228 81.1555 77.4228Z" fill="white" stroke="#263238" stroke-width="0.4" stroke-miterlimit="10" stroke-linecap="round" stroke-linejoin="round"/>
</g>
<g id="Group_22">
<path id="Vector_55" d="M79.8977 77.6322C79.9072 77.6322 79.9167 77.6322 79.9263 77.6322C80.101 77.6163 80.2313 77.4638 80.2154 77.2891C80.101 75.9547 80.9112 74.703 80.9175 74.6903C81.0128 74.5441 80.9715 74.3471 80.8254 74.2518C80.6792 74.1565 80.4823 74.1946 80.387 74.344C80.3488 74.4012 79.4465 75.7895 79.58 77.3463C79.5959 77.5051 79.7357 77.6322 79.8977 77.6322Z" fill="white" stroke="#263238" stroke-width="0.4" stroke-miterlimit="10" stroke-linecap="round" stroke-linejoin="round"/>
</g>
<g id="Group_23">
<path id="Vector_56" d="M78.3692 77.6328C78.3723 77.6328 78.3723 77.6328 78.3755 77.6328C78.5503 77.6296 78.69 77.4835 78.6869 77.3087C78.6678 76.1904 79.4589 74.6749 79.4684 74.6622C79.551 74.5066 79.4907 74.3159 79.335 74.2333C79.1793 74.1507 78.9887 74.2111 78.9061 74.3668C78.8711 74.4335 78.0292 76.0411 78.0515 77.3214C78.0546 77.493 78.1976 77.6328 78.3692 77.6328Z" fill="white" stroke="#263238" stroke-width="0.4" stroke-miterlimit="10" stroke-linecap="round" stroke-linejoin="round"/>
</g>
<g id="Group_24">
<path id="Vector_57" d="M76.923 77.6326C76.9516 77.6326 76.9802 77.6295 77.0088 77.6199C77.1772 77.5723 77.2757 77.3975 77.2312 77.2292C76.8658 75.9107 77.9905 74.6303 78 74.6176C78.1176 74.4873 78.1049 74.2872 77.9746 74.1696C77.8443 74.0521 77.6442 74.0648 77.5266 74.1951C77.4695 74.2586 76.1573 75.7455 76.618 77.4007C76.6561 77.5405 76.7832 77.6326 76.923 77.6326Z" fill="white" stroke="#263238" stroke-width="0.4" stroke-miterlimit="10" stroke-linecap="round" stroke-linejoin="round"/>
</g>
<g id="Group_25">
<path id="Vector_58" d="M75.3308 77.4233C75.3658 77.4233 75.4007 77.417 75.4357 77.4074C75.6009 77.3502 75.6898 77.1692 75.6327 77.0039C75.2324 75.838 76.2681 74.3606 76.2776 74.3447C76.3793 74.2018 76.3443 74.0048 76.2045 73.9031C76.0616 73.8015 75.8646 73.8332 75.7629 73.9762C75.7121 74.0461 74.5239 75.7331 75.0322 77.2105C75.0767 77.3407 75.2006 77.4233 75.3308 77.4233Z" fill="white" stroke="#263238" stroke-width="0.4" stroke-miterlimit="10" stroke-linecap="round" stroke-linejoin="round"/>
</g>
<path id="Vector_59" d="M73.8227 79.1422C72.6916 79.4504 74.2039 81.6712 75.6908 80.7911C77.1745 79.9111 74.9537 78.834 73.8227 79.1422Z" fill="white" stroke="#263238" stroke-width="0.4" stroke-miterlimit="10" stroke-linecap="round" stroke-linejoin="round"/>
</g>
<path id="Vector_60" d="M43.6176 60.5969C47.805 59.863 58.9279 65.7152 65.7427 69.6134C66.6481 69.0828 67.3471 68.638 67.6648 68.3521C69.2343 66.9542 75.223 59.2562 79.3532 57.4961L86.8955 67.3609C85.1958 69.7405 80.1665 72.3679 75.1531 74.5347C74.613 75.4242 73.5169 77.0922 72.0078 78.6426C68.9229 81.8165 67.6648 80.0373 67.6648 80.0373C67.6648 80.0373 65.7173 79.8181 62.8357 79.4242C62.645 79.7927 62.2066 80.3741 61.3806 80.2407C61.0057 80.1803 60.2845 79.6466 59.4712 78.9381C52.2052 77.8452 42.3404 76.0215 39.6781 73.8738C35.3223 70.3695 39.9195 61.245 43.6176 60.5969Z" fill="#263238"/>
<g id="Vector_61">
<path d="M32.3926 32.4486C33.1774 34.9902 33.2441 38.6311 32.596 41.4714C32.596 41.4714 29.7747 53.9509 29.4253 56.6673C29.0758 59.3837 24.3007 69.9442 24.0497 73.3977L21.8543 76.5557C21.8543 76.5557 18.6455 76.3143 16.5073 73.8806L18.0164 70.5352C18.0164 70.5352 19.3984 65.3883 19.9004 64.6735C20.4024 63.9587 22.0545 54.2559 22.6105 52.6706C23.1664 51.0852 26.5055 29.9546 29.4253 27.2604C29.4253 27.2604 30.2036 27.2001 30.5213 27.8101" fill="#E48100"/>
<path d="M32.3926 32.4486C33.1774 34.9902 33.2441 38.6311 32.596 41.4714C32.596 41.4714 29.7747 53.9509 29.4252 56.6673C29.0758 59.3837 24.3007 69.9442 24.0497 73.3977L21.8543 76.5557C21.8543 76.5557 18.6455 76.3143 16.5073 73.8806L18.0164 70.5352C18.0164 70.5352 19.3984 65.3883 19.9004 64.6735C20.4024 63.9587 22.0545 54.2559 22.6105 52.6706C23.1664 51.0852 26.5055 29.9546 29.4252 27.2604C29.4252 27.2604 30.2036 27.2001 30.5213 27.8101" stroke="#263238" stroke-width="0.4" stroke-miterlimit="10" stroke-linecap="round" stroke-linejoin="round"/>
</g>
<g id="Group_26">
<path id="Vector_62" d="M74.8073 72.631C73.3204 72.0115 71.1854 72.631 71.1854 72.631C71.1854 72.631 64.1736 69.5779 59.3699 66.6709C54.5662 63.7639 47.6815 61.5812 47.6815 61.5812C45.0414 61.3938 43.7864 61.4541 42.5283 62.8393" stroke="white" stroke-width="0.4" stroke-miterlimit="10" stroke-linecap="round" stroke-linejoin="round"/>
<path id="Vector_63" d="M39.3228 71.0938C39.3228 71.0938 39.2878 73.2224 42.306 74.6965" stroke="white" stroke-width="0.4" stroke-miterlimit="10" stroke-linecap="round" stroke-linejoin="round"/>
<path id="Vector_64" d="M72.6309 62.21C72.6309 62.21 67.8621 65.6571 66.9122 67.9287C66.9122 67.9287 65.079 68.7102 64.2053 69.3234" stroke="white" stroke-width="0.4" stroke-miterlimit="10" stroke-linecap="round" stroke-linejoin="round"/>
<path id="Vector_65" d="M66.5659 65.0762C66.2451 66.0674 66.1243 67.1413 66.3976 68.1579" stroke="white" stroke-width="0.4" stroke-miterlimit="10" stroke-linecap="round" stroke-linejoin="round"/>
<path id="Vector_66" d="M67.6651 62.8389C67.4046 63.2138 67.179 63.6172 66.9821 64.0303" stroke="white" stroke-width="0.4" stroke-miterlimit="10" stroke-linecap="round" stroke-linejoin="round"/>
<path id="Vector_67" d="M60.8782 62.5244C60.8782 62.5244 59.2834 64.6562 58.8862 66.3877" stroke="white" stroke-width="0.4" stroke-miterlimit="10" stroke-linecap="round" stroke-linejoin="round"/>
<path id="Vector_68" d="M51.9994 75.4082C51.4053 75.3701 50.8143 75.3033 50.2297 75.189" stroke="white" stroke-width="0.4" stroke-miterlimit="10" stroke-linecap="round" stroke-linejoin="round"/>
<path id="Vector_69" d="M66.9533 73.8799C62.6007 74.7123 57.8351 75.3477 53.2474 75.4525" stroke="white" stroke-width="0.4" stroke-miterlimit="10" stroke-linecap="round" stroke-linejoin="round"/>
</g>
<path id="Vector_70" d="M65.4035 36.5786C65.4035 36.5786 64.4599 38.2053 65.4035 39.9654" stroke="#263238" stroke-width="0.4" stroke-miterlimit="10" stroke-linecap="round" stroke-linejoin="round"/>
<g id="Group_27">
<path id="Vector_71" d="M40.2186 27.0703C42.4108 28.4301 45.4862 29.5802 47.7896 27.8137" stroke="#263238" stroke-width="0.4" stroke-miterlimit="10" stroke-linecap="round" stroke-linejoin="round"/>
<path id="Vector_72" d="M38.4893 25.8247C38.7879 26.0757 39.0993 26.314 39.4201 26.5395" stroke="#263238" stroke-width="0.4" stroke-miterlimit="10" stroke-linecap="round" stroke-linejoin="round"/>
<path id="Vector_73" d="M57.3416 34.3018C57.2114 35.5122 57.1001 36.9514 56.4489 38.0157" stroke="#263238" stroke-width="0.4" stroke-miterlimit="10" stroke-linecap="round" stroke-linejoin="round"/>
<path id="Vector_74" d="M57.4852 32.5513C57.4693 32.8817 57.4471 33.2121 57.4185 33.5393" stroke="#263238" stroke-width="0.4" stroke-miterlimit="10" stroke-linecap="round" stroke-linejoin="round"/>
<path id="Vector_75" d="M58.667 38.0146C58.667 38.0146 57.9077 38.8184 56.4717 38.4499" stroke="#263238" stroke-width="0.4" stroke-miterlimit="10" stroke-linecap="round" stroke-linejoin="round"/>
<path id="Vector_76" d="M34.2311 34.8765C34.2311 34.8765 34.1358 40.0932 32.3916 42.387" stroke="#263238" stroke-width="0.4" stroke-miterlimit="10" stroke-linecap="round" stroke-linejoin="round"/>
<path id="Vector_77" d="M44.1598 57.5403C43.7468 57.445 43.3338 57.3465 42.9208 57.248" stroke="#263238" stroke-width="0.4" stroke-miterlimit="10" stroke-linecap="round" stroke-linejoin="round"/>
<path id="Vector_78" d="M59.6199 55.9434C57.8343 55.9688 56.2458 57.2396 54.6573 58.5104C51.4802 60.4167 48.3032 57.875 44.999 57.732" stroke="#263238" stroke-width="0.4" stroke-miterlimit="10" stroke-linecap="round" stroke-linejoin="round"/>
<path id="Vector_79" d="M34.9817 54.9395C34.7053 56.9346 34.4003 58.933 33.9778 60.9028" stroke="#263238" stroke-width="0.4" stroke-miterlimit="10" stroke-linecap="round" stroke-linejoin="round"/>
<path id="Vector_80" d="M35.2997 52.4707C35.2426 52.9536 35.1822 53.4334 35.1187 53.9163" stroke="#263238" stroke-width="0.4" stroke-miterlimit="10" stroke-linecap="round" stroke-linejoin="round"/>
<path id="Vector_81" d="M52.7226 45.519C50.7179 48.9249 47.8426 52.8104 43.7823 53.7921" stroke="#263238" stroke-width="0.4" stroke-miterlimit="10" stroke-linecap="round" stroke-linejoin="round"/>
<path id="Vector_82" d="M54.9087 41.1611C54.4226 42.3652 53.838 43.5344 53.2122 44.6686" stroke="#263238" stroke-width="0.4" stroke-miterlimit="10" stroke-linecap="round" stroke-linejoin="round"/>
<path id="Vector_83" d="M28.9169 39.2188C27.3951 42.955 25.8511 47.3933 23.1093 50.4338" stroke="#263238" stroke-width="0.4" stroke-miterlimit="10" stroke-linecap="round" stroke-linejoin="round"/>
<path id="Vector_84" d="M29.9588 36.5791C29.7491 37.1383 29.5299 37.6911 29.3107 38.2471" stroke="#263238" stroke-width="0.4" stroke-miterlimit="10" stroke-linecap="round" stroke-linejoin="round"/>
<path id="Vector_85" d="M25.0569 61.5063C25.0569 61.5063 21.4128 64.5055 19.9037 64.6771" stroke="#263238" stroke-width="0.4" stroke-miterlimit="10" stroke-linecap="round" stroke-linejoin="round"/>
<path id="Vector_86" d="M18.9251 74.2272C18.2357 73.8491 17.4224 73.3726 17.0729 72.6323" stroke="#263238" stroke-width="0.4" stroke-miterlimit="10" stroke-linecap="round" stroke-linejoin="round"/>
<path id="Vector_87" d="M21.4346 75.3295C20.8882 75.1389 20.3481 74.9197 19.8207 74.6782" stroke="#263238" stroke-width="0.4" stroke-miterlimit="10" stroke-linecap="round" stroke-linejoin="round"/>
<path id="Vector_88" d="M71.6193 33.2397C72.0227 33.6273 72.5215 33.9482 73.0807 34.0372" stroke="#263238" stroke-width="0.4" stroke-miterlimit="10" stroke-linecap="round" stroke-linejoin="round"/>
<path id="Vector_89" d="M69.9895 30.8633C70.2341 31.4034 70.5391 31.9181 70.8854 32.3978" stroke="#263238" stroke-width="0.4" stroke-miterlimit="10" stroke-linecap="round" stroke-linejoin="round"/>
</g>
<g id="Group_28">
<path id="Vector_90" d="M38.9595 24.4542C38.9595 24.4542 41.1802 27.6599 44.9927 27.2215C47.0959 26.9768 46.8799 25.3565 46.8799 25.3565C46.8799 25.3565 46.4828 25.1532 46.2445 24.5432C46.0189 23.9681 45.9331 23.0309 46.4573 21.5663C46.47 21.525 46.4859 21.4805 46.5018 21.4392C47.0991 19.8348 39.9031 17.6045 39.9031 17.6045C39.9031 17.6045 40.7831 21.7537 38.9595 24.4542Z" fill="white" stroke="#263238" stroke-width="0.4" stroke-miterlimit="10" stroke-linecap="round" stroke-linejoin="round"/>
<path id="Vector_91" d="M42.4442 20.4604C42.4442 20.4604 43.7786 23.7868 46.244 24.543C46.0184 23.9679 45.9326 23.0307 46.4568 21.5661L42.4442 20.4604Z" fill="#263238"/>
</g>
<g id="Group_29">
<g id="Vector_92">
<path d="M41.7886 19.68C41.6202 21.1065 45.2548 23.2638 47.3802 23.2574C48.3556 23.2542 49.7027 21.3798 50.2714 18.6126C50.5573 17.2146 49.7059 15.8485 50.3985 13.8978C50.9894 12.233 49.8329 7.26409 44.9307 6.8606C37.9253 6.28238 37.1088 13.793 40.2096 18.8572" fill="white"/>
<path d="M41.7886 19.68C41.6202 21.1065 45.2548 23.2638 47.3802 23.2574C48.3556 23.2542 49.7027 21.3798 50.2714 18.6126C50.5573 17.2146 49.7059 15.8485 50.3985 13.8978C50.9894 12.233 49.8329 7.26409 44.9307 6.8606C37.9253 6.28238 37.1088 13.793 40.2096 18.8572" stroke="#263238" stroke-width="0.4" stroke-miterlimit="10" stroke-linecap="round" stroke-linejoin="round"/>
</g>
<path id="Vector_93" d="M50.5382 13.5217C50.5382 13.5217 49.9568 12.6417 48.8258 12.8927" stroke="#263238" stroke-width="0.4" stroke-miterlimit="10" stroke-linecap="round" stroke-linejoin="round"/>
<path id="Vector_94" d="M46.4998 12.849C46.4998 12.849 45.0542 12.706 44.1742 13.5225" stroke="#263238" stroke-width="0.4" stroke-miterlimit="10" stroke-linecap="round" stroke-linejoin="round"/>
<path id="Vector_95" d="M48.4506 13.8369C48.3235 15.2825 49.9597 17.7002 49.5499 18.0465C49.14 18.3928 48.1679 17.9194 47.7898 17.732" stroke="#263238" stroke-width="0.4" stroke-miterlimit="10" stroke-linecap="round" stroke-linejoin="round"/>
<path id="Vector_96" d="M45.903 15.5023C46.0592 15.5023 46.1858 15.3259 46.1858 15.1083C46.1858 14.8907 46.0592 14.7144 45.903 14.7144C45.7468 14.7144 45.6202 14.8907 45.6202 15.1083C45.6202 15.3259 45.7468 15.5023 45.903 15.5023Z" fill="#263238"/>
<path id="Vector_97" d="M49.3306 15.5023C49.4868 15.5023 49.6134 15.3259 49.6134 15.1083C49.6134 14.8907 49.4868 14.7144 49.3306 14.7144C49.1744 14.7144 49.0479 14.8907 49.0479 15.1083C49.0479 15.3259 49.1744 15.5023 49.3306 15.5023Z" fill="#263238"/>
<path id="Vector_98" d="M48.4198 19.5842C48.4198 19.5842 46.755 19.8034 45.9067 18.9233" stroke="#263238" stroke-width="0.4" stroke-miterlimit="10" stroke-linecap="round" stroke-linejoin="round"/>
<path id="Vector_99" d="M46.188 19.1621C46.188 19.1621 46.2833 19.9627 47.1633 20.1851C48.0434 20.4043 48.0116 19.6133 48.0116 19.6133" stroke="#263238" stroke-width="0.4" stroke-miterlimit="10" stroke-linecap="round" stroke-linejoin="round"/>
<path id="Vector_100" d="M43.7036 10.066C43.7036 10.066 51.497 12.2041 52.3135 8.90318C52.3135 8.90318 50.8965 9.07156 49.3302 7.3623C47.4113 5.26544 44.3327 4.72217 41.7243 5.66575C39.116 6.60934 39.2748 7.97548 39.2748 7.97548C39.2748 7.97548 37.7339 8.17881 37.0445 10.0342C36.3519 11.8896 37.4448 18.4439 40.0596 19.8386L40.7807 18.9268C40.7807 18.9268 40.4916 17.0587 41.7243 15.6576L42.4169 15.8355C42.4169 15.8355 41.664 14.2152 42.4487 13.332C43.2334 12.4488 43.7672 11.2892 43.7036 10.066Z" fill="#263238"/>
<g id="Vector_101">
<path d="M41.7245 15.5015C41.7245 15.5015 40.9398 13.2395 39.9326 13.8368C38.9287 14.434 40.028 18.7707 41.7245 17.7954" fill="white"/>
<path d="M41.7245 15.5015C41.7245 15.5015 40.9398 13.2395 39.9326 13.8368C38.9287 14.434 40.028 18.7707 41.7245 17.7954" stroke="#263238" stroke-width="0.4" stroke-miterlimit="10" stroke-linecap="round" stroke-linejoin="round"/>
</g>
<path id="Vector_102" opacity="0.3" d="M41.7253 8.22869C41.7253 8.22869 46.5704 9.04519 48.0096 7.09766" stroke="white" stroke-width="0.4" stroke-miterlimit="10" stroke-linecap="round" stroke-linejoin="round"/>
<path id="Vector_103" opacity="0.3" d="M44.8676 9.35986C44.8676 9.35986 48.2352 10.4909 50.5386 9.35986" stroke="white" stroke-width="0.4" stroke-miterlimit="10" stroke-linecap="round" stroke-linejoin="round"/>
<path id="Vector_104" opacity="0.3" d="M40.6374 9.86328C40.6374 9.86328 40.5898 12.6559 38.0132 13.5233" stroke="white" stroke-width="0.4" stroke-miterlimit="10" stroke-linecap="round" stroke-linejoin="round"/>
</g>
</g>
</g>
<defs>
<filter id="filter0_d_880_4298" x="1.79968" y="5.21875" width="92.5885" height="86.25" filterUnits="userSpaceOnUse" color-interpolation-filters="sRGB">
<feFlood flood-opacity="0" result="BackgroundImageFix"/>
<feColorMatrix in="SourceAlpha" type="matrix" values="0 0 0 0 0 0 0 0 0 0 0 0 0 0 0 0 0 0 127 0" result="hardAlpha"/>
<feOffset dy="4"/>
<feGaussianBlur stdDeviation="2"/>
<feComposite in2="hardAlpha" operator="out"/>
<feColorMatrix type="matrix" values="0 0 0 0 0 0 0 0 0 0 0 0 0 0 0 0 0 0 0.25 0"/>
<feBlend mode="normal" in2="BackgroundImageFix" result="effect1_dropShadow_880_4298"/>
<feBlend mode="normal" in="SourceGraphic" in2="effect1_dropShadow_880_4298" result="shape"/>
</filter>
<clipPath id="clip0_880_4298">
<rect width="95" height="83.437" fill="white" transform="translate(0.5)"/>
</clipPath>
</defs>
</svg>
