<svg width="52" height="95" viewBox="0 0 52 95" fill="none" xmlns="http://www.w3.org/2000/svg">
<g id="UserMobilityIcon" clip-path="url(#clip0_881_6533)">
<g id="Group">
<path id="Vector" d="M44.5853 95H7.41487C3.7588 95 0.766846 92.0089 0.766846 88.352V6.64803C0.766846 2.99109 3.75794 0 7.41487 0H44.5862C48.2423 0 51.2342 2.99109 51.2342 6.64803V88.352C51.2334 92.008 48.2423 95 44.5853 95Z" fill="#2B478B"/>
<g id="Group_2">
<path id="Vector_2" d="M48.7322 7.27669V87.0875C48.7322 89.7948 46.5328 92.0097 43.8453 92.0097H8.15404C5.4674 92.0097 3.26807 89.7948 3.26807 87.0875V7.27669C3.26807 4.56935 5.46654 2.35449 8.15404 2.35449H43.8462C46.5328 2.35449 48.7322 4.56935 48.7322 7.27669Z" fill="#C0D8FB"/>
<path id="Vector_3" d="M43.8462 2.35449L8.59563 92.0097H8.15404C5.4674 92.0097 3.26807 89.7948 3.26807 87.0875V7.27669C3.26807 4.56935 5.46654 2.35449 8.15404 2.35449H43.8462Z" fill="#CBE1FD"/>
</g>
<path id="Vector_4" d="M33.4592 5.32237H18.5417C17.3265 5.32237 16.332 4.32792 16.332 3.11268V2.7651C16.332 1.54986 17.3265 0.55542 18.5417 0.55542H33.4592C34.6745 0.55542 35.6689 1.54986 35.6689 2.7651V3.11268C35.6681 4.32879 34.6736 5.32237 33.4592 5.32237Z" fill="#2B478B"/>
</g>
</g>
<defs>
<clipPath id="clip0_881_6533">
<rect width="50.4665" height="95" fill="white" transform="translate(0.766846)"/>
</clipPath>
</defs>
</svg>
