<svg width="96" height="110" viewBox="0 0 96 110" fill="none" xmlns="http://www.w3.org/2000/svg">
<g id="Frame" clip-path="url(#clip0_880_4254)">
<g id="Group">
<path id="Vector" d="M94.1777 62.329C94.1777 83.4714 80.1674 101.341 60.9263 107.163C56.6252 108.467 52.0646 109.167 47.3379 109.167C42.3117 109.167 37.4736 108.376 32.9331 106.911C14.1121 100.835 0.5 83.1718 0.5 62.329C0.5 36.4599 21.4689 15.4893 47.3379 15.4893C73.2052 15.4893 94.1777 36.4599 94.1777 62.329Z" fill="#E48100"/>
<g id="Group_2">
<g id="Group_3">
<path id="Vector_2" d="M83.7234 78.4344C83.7234 78.4344 85.8311 79.3713 86.8301 78.9457C87.8292 78.5202 89.3743 78.438 89.8619 78.438C90.514 78.4362 92.554 77.7093 92.5175 78.5056C92.481 79.3019 89.2063 79.8589 88.5341 80.1073C87.8639 80.3557 90.5395 81.8296 90.7897 82.4835C91.0381 83.1373 88.0173 87.433 86.3132 86.2093C84.6092 84.9856 83.6869 82.5419 83.338 82.3867C82.991 82.2314 82.0596 81.5447 82.0596 81.5447L83.7234 78.4344Z" fill="#EEA886"/>
<path id="Vector_3" d="M90.4663 82.1035C90.4663 82.1035 95.4067 86.2019 95.4852 86.7535C95.5638 87.3069 95.3026 87.5644 94.8241 87.201C94.3438 86.8375 89.9239 83.382 89.9239 83.382C89.9239 83.382 94.8752 89.2301 95.0414 89.663C95.1401 89.9168 94.6652 90.4447 94.3876 90.2748C94.1118 90.105 88.8463 84.6002 88.8463 84.6002C88.8463 84.6002 93.4579 90.0684 93.4835 90.4775C93.5054 90.8355 92.9502 91.2209 92.5776 90.841C92.205 90.4593 87.6153 85.6358 87.6153 85.6358C87.6153 85.6358 90.7019 89.8347 90.512 90.2036C90.3951 90.4301 90.0061 90.9031 89.2463 89.7945C88.4865 88.684 86.3989 86.2659 86.3989 86.2659L90.4663 82.1035Z" fill="#EEA886"/>
<path id="Vector_4" d="M44.8358 7.32199C44.8358 7.32199 38.248 13.9591 40.4908 22.5048C42.7354 31.0524 46.3407 31.0998 50.315 27.4233C54.2892 23.7468 56.6288 19.8785 57.1548 15.5828C57.6808 11.2853 50.8538 1.40264 44.8358 7.32199Z" fill="#EEA886"/>
<path id="Vector_5" d="M43.5481 35.8265C43.5481 35.8265 44.5252 33.591 45.2101 31.0742C45.3307 30.6304 45.4421 30.1775 45.537 29.7282C45.8731 28.1447 46.0101 26.5849 45.6485 25.5147C44.5983 22.4116 52.2381 24.5595 52.2381 24.5595C52.2381 24.5595 50.7569 32.771 52.2381 35.5416C53.7175 38.3104 43.5481 35.8265 43.5481 35.8265Z" fill="#EEA886"/>
<path id="Vector_6" d="M60.9245 107.164C56.6233 108.468 52.0628 109.167 47.3361 109.167C42.3098 109.167 37.4717 108.376 32.9313 106.911C32.6902 104.484 32.4692 102.271 32.3158 100.753C31.7441 95.0929 35.7165 75.9814 35.7165 75.9814L56.7256 75.5522C56.7256 75.5522 61.4687 82.5364 62.4732 88.7662C63.4303 94.7111 61.7591 103.423 60.9245 107.164Z" fill="#BD3939"/>
<path id="Vector_7" d="M85.0547 78.7998L82.3827 81.8207C82.3827 81.8207 66.4109 68.8587 65.6949 67.1401C64.979 65.4215 59.5692 55.7452 59.3537 54.7425C59.3537 54.7425 58.3181 57.4218 57.4561 60.0299C57.0981 61.1148 56.6342 63.0891 56.4223 63.9512C55.7064 66.8862 55.626 71.591 56.7237 75.5543C56.7237 75.5543 43.7855 80.376 35.7147 75.9835C35.7147 75.9835 36.5749 68.9647 35.2854 64.4297C33.996 59.893 27.2639 44.0891 27.2639 44.0891C27.2639 44.0891 30.8455 37.452 34.5695 36.1626C38.2935 34.8732 42.5435 33.9106 42.5435 33.9106H51.3705C51.3705 33.9106 57.1821 35.4247 58.4807 35.8338C60.8057 36.5681 62.9718 39.5177 63.401 42.1678C63.8302 44.8179 69.9194 62.9156 70.6353 63.4161C71.3531 63.9165 85.0547 78.7998 85.0547 78.7998Z" fill="#EDDAD3"/>
<path id="Vector_8" d="M32.7412 70.1881C32.7412 70.1881 38.4706 70.4109 39.3619 70.1881C40.2532 69.9653 46.1999 67.3864 46.5561 64.8404C46.9122 62.2944 32.7412 67.1234 32.7412 67.1234V70.1881Z" fill="#EEA886"/>
<path id="Vector_9" d="M50.5177 62.2306L27.2659 59.5093L37.7695 68.0568L50.5177 62.2306Z" fill="#4C5285"/>
<path id="Vector_10" d="M33.4407 66.9099C33.4407 66.9099 33.2014 69.8705 33.4407 70.4915C33.4407 70.4915 19.1017 69.0596 17.7647 67.0542C16.4278 65.0488 16.4753 62.6143 16.4753 62.6143L33.4407 66.9099Z" fill="#EDDAD3"/>
<path id="Vector_11" d="M46.9852 12.0977C46.9852 12.0977 50.1358 17.8271 52.0937 19.88C54.0516 21.9328 53.8214 23.5638 53.8214 23.5638C53.8214 23.5638 61.4521 14.1506 56.0095 8.46864C50.5668 2.78672 43.548 5.07885 41.4951 10.0448C39.4422 15.0108 40.1947 21.0763 40.1947 21.0763C40.1947 21.0763 40.2531 15.2482 46.9852 12.0977Z" fill="#FCCCA2"/>
<path id="Vector_12" d="M49.0638 6.0981C49.0638 6.0981 48.3022 1.90469 54.879 0.235367C61.4559 -1.43396 64.4128 6.14558 63.6019 10.7682C62.791 15.3908 57.1675 27.1163 60.2176 28.6413C63.2677 30.1663 64.4603 26.877 64.4603 26.877C64.4603 26.877 63.5069 32.6448 59.2642 31.3097C55.0215 29.9746 55.5932 20.6033 56.2342 16.8665C56.8753 13.1334 49.0638 6.0981 49.0638 6.0981Z" fill="#FCCCA2"/>
<path id="Vector_13" d="M42.5454 33.9084C42.5454 33.9084 43.1499 32.1496 43.086 31.7368C43.086 31.7368 51.3925 31.2218 53.5257 31.5396C53.5257 31.5396 53.6937 33.8902 53.6736 34.4216C53.6536 34.9513 44.0412 36.5585 42.5454 33.9084Z" fill="#EDDAD3"/>
<path id="Vector_14" d="M37.7693 68.0567L50.5175 63.7117V62.2305L37.3401 66.4586L37.7693 68.0567Z" fill="#323657"/>
<path id="Vector_15" d="M37.7694 68.0569L30.9898 42.8454L5.20654 40.124L12.2729 63.3302L37.7694 68.0569Z" fill="#323657"/>
<path id="Vector_16" d="M51.1824 26.5923C51.1568 26.6526 49.4948 30.4807 45.2083 31.0743C45.3288 30.6304 45.4402 30.1775 45.5352 29.7282C45.537 29.7282 47.8858 30.2012 51.1824 26.5923Z" fill="#A77860"/>
<path id="Vector_17" d="M59.3537 54.7405C59.3537 54.7405 58.3182 57.4199 57.4561 60.028C56.5795 52.7023 57.7593 46.8706 57.7593 46.8706C57.8561 50.7882 59.3537 54.7405 59.3537 54.7405Z" fill="#CFBEB8"/>
<path id="Vector_18" d="M50.0903 5.21802C50.0903 5.21802 54.7586 6.11478 57.0873 9.91734C57.0873 9.91734 56.616 6.47458 54.291 5.48102C51.966 4.48929 50.0903 5.21802 50.0903 5.21802Z" fill="#EDDAD3"/>
</g>
<path id="Vector_19" d="M52.1614 19.9877C52.2071 21.794 53.3705 23.1291 54.7604 22.9684C56.1503 22.8076 57.2388 21.2132 57.1913 19.4069C57.1456 17.6006 55.9804 16.2655 54.5923 16.4262C53.2025 16.5869 52.1139 18.1814 52.1614 19.9877Z" fill="#807066"/>
<g id="Group_4">
<path id="Vector_20" d="M47.3048 27.3775L47.082 26.7364C52.8845 24.7274 55.12 19.2774 55.1419 19.2227L55.772 19.4747C55.6807 19.7103 53.3977 25.268 47.3048 27.3775Z" fill="#807066"/>
</g>
<path id="Vector_21" d="M45.9937 27.5566C46.0868 28.1137 46.6128 28.4881 47.1699 28.3949C47.7269 28.3018 48.1013 27.7758 48.0082 27.2187C47.915 26.6617 47.389 26.2873 46.832 26.3804C46.2767 26.4736 45.9005 26.9996 45.9937 27.5566Z" fill="#807066"/>
</g>
</g>
</g>
<defs>
<clipPath id="clip0_880_4254">
<rect width="95" height="109.167" fill="white" transform="translate(0.5)"/>
</clipPath>
</defs>
</svg>
